Benne-1812.ufo
<glyph name="numbersign" format="1">
  <advance width="468"/>
  <unicode hex="0023"/>
  <outline>
    <contour>
      <point x="78" y="12"/>
      <point x="88" y="17"/>
      <point x="90" y="27" type="curve"/>
      <point x="134" y="206" type="line"/>
      <point x="248" y="212" type="line"/>
      <point x="205" y="38" type="line"/>
      <point x="205" y="35" type="line" smooth="yes"/>
      <point x="205" y="27"/>
      <point x="208" y="23"/>
      <point x="215" y="23" type="curve" smooth="yes"/>
      <point x="233" y="23"/>
      <point x="243" y="28"/>
      <point x="245" y="38" type="curve"/>
      <point x="288" y="214" type="line"/>
      <point x="346" y="217" type="line" smooth="yes"/>
      <point x="365" y="218"/>
      <point x="377" y="249"/>
      <point x="377" y="265" type="curve" smooth="yes"/>
      <point x="377" y="273"/>
      <point x="373" y="277"/>
      <point x="364" y="277" type="curve"/>
      <point x="303" y="274" type="line"/>
      <point x="337" y="412" type="line"/>
      <point x="393" y="415" type="line" smooth="yes"/>
      <point x="412" y="416"/>
      <point x="424" y="448"/>
      <point x="424" y="464" type="curve" smooth="yes"/>
      <point x="424" y="471"/>
      <point x="420" y="475"/>
      <point x="411" y="475" type="curve"/>
      <point x="352" y="472" type="line"/>
      <point x="395" y="649" type="line"/>
      <point x="395" y="657"/>
      <point x="392" y="661"/>
      <point x="387" y="661" type="curve" smooth="yes"/>
      <point x="368" y="661"/>
      <point x="357" y="655"/>
      <point x="354" y="644" type="curve" smooth="yes"/>
      <point x="311" y="470" type="line"/>
      <point x="198" y="464" type="line"/>
      <point x="240" y="638" type="line"/>
      <point x="240" y="646"/>
      <point x="237" y="650"/>
      <point x="232" y="650" type="curve" smooth="yes"/>
      <point x="213" y="650"/>
      <point x="202" y="644"/>
      <point x="199" y="633" type="curve" smooth="yes"/>
      <point x="157" y="462" type="line"/>
      <point x="88" y="459" type="line" smooth="yes"/>
      <point x="72" y="458"/>
      <point x="64" y="442"/>
      <point x="64" y="411" type="curve" smooth="yes"/>
      <point x="64" y="403"/>
      <point x="69" y="399"/>
      <point x="78" y="399" type="curve"/>
      <point x="142" y="402" type="line"/>
      <point x="108" y="264" type="line"/>
      <point x="41" y="261" type="line" smooth="yes"/>
      <point x="25" y="260"/>
      <point x="17" y="244"/>
      <point x="17" y="213" type="curve" smooth="yes"/>
      <point x="17" y="205"/>
      <point x="22" y="201"/>
      <point x="31" y="201" type="curve"/>
      <point x="94" y="204" type="line"/>
      <point x="50" y="27" type="line"/>
      <point x="50" y="24" type="line" smooth="yes"/>
      <point x="50" y="16"/>
      <point x="53" y="12"/>
      <point x="60" y="12" type="curve" smooth="yes"/>
    </contour>
    <contour>
      <point x="183" y="404" type="line"/>
      <point x="296" y="410" type="line"/>
      <point x="263" y="272" type="line"/>
      <point x="149" y="266" type="line"/>
    </contour>
  </outline>
</glyph>
<glyph name="period" format="1">
  <advance width="230"/>
  <unicode hex="002E"/>
  <outline>
    <contour>
      <point x="146" y="-14"/>
      <point x="170" y="10"/>
      <point x="170" y="41" type="curve" smooth="yes"/>
      <point x="170" y="72"/>
      <point x="146" y="96"/>
      <point x="115" y="96" type="curve" smooth="yes"/>
      <point x="100" y="96"/>
      <point x="87" y="91"/>
      <point x="76" y="80" type="curve" smooth="yes"/>
      <point x="65" y="69"/>
      <point x="60" y="56"/>
      <point x="60" y="41" type="curve" smooth="yes"/>
      <point x="60" y="10"/>
      <point x="84" y="-14"/>
      <point x="115" y="-14" type="curve" smooth="yes"/>
    </contour>
  </outline>
</glyph>
<glyph name="A" format="1">
  <advance width="684"/>
  <unicode hex="0041"/>
  <outline>
    <contour>
      <point x="147" y="1" type="line"/>
      <point x="238" y="-1" type="line" smooth="yes"/>
      <point x="257" y="-1"/>
      <point x="267" y="3"/>
      <point x="267" y="10" type="curve" smooth="yes"/>
      <point x="267" y="17"/>
      <point x="257" y="24"/>
      <point x="238" y="29" type="curve" smooth="yes"/>
      <point x="199" y="39"/>
      <point x="176" y="59"/>
      <point x="176" y="88" type="curve" smooth="yes"/>
      <point x="176" y="103"/>
      <point x="189" y="149"/>
      <point x="216" y="226" type="curve" smooth="yes"/>
      <point x="220" y="238"/>
      <point x="226" y="244"/>
      <point x="233" y="244" type="curve" smooth="yes"/>
      <point x="424" y="244" type="line" smooth="yes"/>
      <point x="440" y="244"/>
      <point x="449" y="240"/>
      <point x="451" y="233" type="curve" smooth="yes"/>
      <point x="476" y="148"/>
      <point x="489" y="96"/>
      <point x="489" y="76" type="curve" smooth="yes"/>
      <point x="489" y="53"/>
      <point x="469" y="38"/>
      <point x="428" y="31" type="curve" smooth="yes"/>
      <point x="406" y="28"/>
      <point x="395" y="21"/>
      <point x="395" y="12" type="curve" smooth="yes"/>
      <point x="395" y="4"/>
      <point x="405" y="0"/>
      <point x="424" y="0" type="curve" smooth="yes"/>
      <point x="529" y="1" type="line"/>
      <point x="668" y="-5" type="line"/>
      <point x="687" y="-5"/>
      <point x="697" y="-2"/>
      <point x="697" y="5" type="curve" smooth="yes"/>
      <point x="697" y="16"/>
      <point x="686" y="24"/>
      <point x="663" y="28" type="curve" smooth="yes"/>
      <point x="617" y="36"/>
      <point x="588" y="55"/>
      <point x="563" y="128" type="curve" smooth="yes"/>
      <point x="494" y="329"/>
      <point x="434" y="507"/>
      <point x="385" y="662" type="curve" smooth="yes"/>
      <point x="382" y="671"/>
      <point x="378" y="676"/>
      <point x="375" y="676" type="curve" smooth="yes"/>
      <point x="373" y="676"/>
      <point x="371" y="673"/>
      <point x="368" y="667" type="curve"/>
      <point x="367" y="664"/>
      <point x="364" y="661"/>
      <point x="360" y="656" type="curve" smooth="yes"/>
      <point x="356" y="651"/>
      <point x="342" y="644"/>
      <point x="318" y="636" type="curve"/>
      <point x="317" y="636"/>
      <point x="317" y="632"/>
      <point x="317" y="624" type="curve" smooth="yes"/>
      <point x="317" y="615"/>
      <point x="313" y="600"/>
      <point x="304" y="578" type="curve"/>
      <point x="243" y="411"/>
      <point x="181" y="255"/>
      <point x="117" y="108" type="curve" smooth="yes"/>
      <point x="100" y="69"/>
      <point x="71" y="43"/>
      <point x="31" y="31" type="curve" smooth="yes"/>
      <point x="9" y="24"/>
      <point x="-2" y="16"/>
      <point x="-2" y="8" type="curve" smooth="yes"/>
      <point x="-2" y="-1"/>
      <point x="8" y="-5"/>
      <point x="27" y="-5" type="curve"/>
    </contour>
    <contour>
      <point x="248" y="287"/>
      <point x="241" y="289"/>
      <point x="241" y="294" type="curve" smooth="yes"/>
      <point x="241" y="295"/>
      <point x="242" y="298"/>
      <point x="243" y="302" type="curve"/>
      <point x="333" y="542" type="line" smooth="yes"/>
      <point x="337" y="553"/>
      <point x="340" y="559"/>
      <point x="342" y="559" type="curve" smooth="yes"/>
      <point x="343" y="559"/>
      <point x="346" y="553"/>
      <point x="350" y="541" type="curve" smooth="yes"/>
      <point x="429" y="302" type="line"/>
      <point x="430" y="297"/>
      <point x="431" y="293"/>
      <point x="431" y="292" type="curve" smooth="yes"/>
      <point x="431" y="289"/>
      <point x="426" y="287"/>
      <point x="417" y="287" type="curve" smooth="yes"/>
      <point x="262" y="287" type="line" smooth="yes"/>
    </contour>
  </outline>
</glyph>
<glyph name="B" format="1">
  <advance width="578"/>
  <unicode hex="0042"/>
  <outline>
    <contour>
      <point x="135" y="-2"/>
      <point x="178" y="0"/>
      <point x="178" y="0" type="curve"/>
      <point x="273" y="-4" type="line"/>
      <point x="351" y="-4"/>
      <point x="416" y="14"/>
      <point x="468" y="50" type="curve" smooth="yes"/>
      <point x="477" y="56"/>
      <point x="487" y="65"/>
      <point x="500" y="78" type="curve" smooth="yes"/>
      <point x="524" y="103"/>
      <point x="537" y="142"/>
      <point x="537" y="195" type="curve" smooth="yes"/>
      <point x="537" y="222"/>
      <point x="533" y="245"/>
      <point x="524" y="265" type="curve"/>
      <point x="507" y="307"/>
      <point x="464" y="338"/>
      <point x="395" y="359" type="curve" smooth="yes"/>
      <point x="392" y="360"/>
      <point x="391" y="362"/>
      <point x="391" y="364" type="curve" smooth="yes"/>
      <point x="391" y="366"/>
      <point x="392" y="368"/>
      <point x="395" y="369" type="curve"/>
      <point x="444" y="389"/>
      <point x="496" y="425"/>
      <point x="496" y="508" type="curve" smooth="yes"/>
      <point x="496" y="615"/>
      <point x="425" y="657"/>
      <point x="274" y="657" type="curve"/>
      <point x="163" y="652" type="line"/>
      <point x="59" y="653" type="line" smooth="yes"/>
      <point x="40" y="653"/>
      <point x="30" y="649"/>
      <point x="30" y="642" type="curve" smooth="yes"/>
      <point x="30" y="631"/>
      <point x="42" y="624"/>
      <point x="65" y="622" type="curve" smooth="yes"/>
      <point x="111" y="618"/>
      <point x="130" y="597"/>
      <point x="130" y="549" type="curve" smooth="yes"/>
      <point x="130" y="99" type="line" smooth="yes"/>
      <point x="130" y="54"/>
      <point x="104" y="33"/>
      <point x="56" y="25" type="curve" smooth="yes"/>
      <point x="31" y="20"/>
      <point x="19" y="14"/>
      <point x="19" y="7" type="curve" smooth="yes"/>
      <point x="19" y="-1"/>
      <point x="29" y="-5"/>
      <point x="48" y="-5" type="curve" smooth="yes"/>
    </contour>
    <contour>
      <point x="232" y="37"/>
      <point x="208" y="55"/>
      <point x="208" y="108" type="curve" smooth="yes"/>
      <point x="208" y="307" type="line" smooth="yes"/>
      <point x="208" y="324"/>
      <point x="226" y="343"/>
      <point x="265" y="343" type="curve" smooth="yes"/>
      <point x="344" y="343"/>
      <point x="443" y="306"/>
      <point x="443" y="189" type="curve" smooth="yes"/>
      <point x="443" y="105"/>
      <point x="367" y="37"/>
      <point x="287" y="37" type="curve" smooth="yes"/>
    </contour>
    <contour>
      <point x="223" y="371"/>
      <point x="208" y="383"/>
      <point x="208" y="408" type="curve" smooth="yes"/>
      <point x="208" y="582" type="line" smooth="yes"/>
      <point x="208" y="614"/>
      <point x="222" y="627"/>
      <point x="274" y="627" type="curve" smooth="yes"/>
      <point x="375" y="627"/>
      <point x="410" y="564"/>
      <point x="410" y="503" type="curve" smooth="yes"/>
      <point x="410" y="442"/>
      <point x="386" y="412"/>
      <point x="365" y="400" type="curve" smooth="yes"/>
      <point x="333" y="381"/>
      <point x="296" y="371"/>
      <point x="254" y="371" type="curve" smooth="yes"/>
    </contour>
  </outline>
</glyph>
<glyph name="P" format="1">
  <advance width="552"/>
  <unicode hex="0050"/>
  <outline>
    <contour>
      <point x="183" y="2" type="line"/>
      <point x="194" y="2"/>
      <point x="209" y="1"/>
      <point x="226" y="-1" type="curve"/>
      <point x="243" y="-4"/>
      <point x="262" y="-5"/>
      <point x="281" y="-5" type="curve" smooth="yes"/>
      <point x="300" y="-5"/>
      <point x="310" y="-1"/>
      <point x="310" y="7" type="curve" smooth="yes"/>
      <point x="310" y="14"/>
      <point x="299" y="20"/>
      <point x="277" y="24" type="curve" smooth="yes"/>
      <point x="232" y="32"/>
      <point x="210" y="61"/>
      <point x="210" y="111" type="curve" smooth="yes"/>
      <point x="210" y="588" type="line" smooth="yes"/>
      <point x="210" y="616"/>
      <point x="231" y="630"/>
      <point x="274" y="630" type="curve" smooth="yes"/>
      <point x="377" y="630"/>
      <point x="441" y="575"/>
      <point x="441" y="458" type="curve" smooth="yes"/>
      <point x="441" y="339"/>
      <point x="401" y="279"/>
      <point x="320" y="279" type="curve"/>
      <point x="309" y="280"/>
      <point x="299" y="281"/>
      <point x="289" y="282" type="curve" smooth="yes"/>
      <point x="274" y="284" type="line"/>
      <point x="267" y="284"/>
      <point x="258" y="278"/>
      <point x="258" y="273" type="curve" smooth="yes"/>
      <point x="258" y="268"/>
      <point x="262" y="264"/>
      <point x="271" y="260" type="curve"/>
      <point x="279" y="256"/>
      <point x="290" y="254"/>
      <point x="303" y="254" type="curve" smooth="yes"/>
      <point x="450" y="254"/>
      <point x="531" y="351"/>
      <point x="531" y="482" type="curve" smooth="yes"/>
      <point x="531" y="589"/>
      <point x="425" y="658"/>
      <point x="274" y="658" type="curve"/>
      <point x="163" y="652" type="line"/>
      <point x="65" y="653" type="line" smooth="yes"/>
      <point x="46" y="653"/>
      <point x="36" y="649"/>
      <point x="36" y="642" type="curve" smooth="yes"/>
      <point x="36" y="633"/>
      <point x="48" y="626"/>
      <point x="71" y="622" type="curve" smooth="yes"/>
      <point x="117" y="614"/>
      <point x="130" y="586"/>
      <point x="130" y="522" type="curve" smooth="yes"/>
      <point x="130" y="100" type="line" smooth="yes"/>
      <point x="130" y="52"/>
      <point x="108" y="33"/>
      <point x="60" y="25" type="curve"/>
      <point x="36" y="20"/>
      <point x="24" y="14"/>
      <point x="24" y="7" type="curve" smooth="yes"/>
      <point x="24" y="-1"/>
      <point x="34" y="-5"/>
      <point x="53" y="-5" type="curve"/>
    </contour>
  </outline>
</glyph>
<glyph name="bracketright" format="1">
  <advance width="373"/>
  <unicode hex="005D"/>
  <outline>
    <contour>
      <point x="226" y="-200" type="line" smooth="yes"/>
      <point x="251" y="-200"/>
      <point x="257" y="-198"/>
      <point x="257" y="-175" type="curve" smooth="yes"/>
      <point x="257" y="668" type="line" smooth="yes"/>
      <point x="257" y="700"/>
      <point x="252" y="702"/>
      <point x="219" y="702" type="curve" smooth="yes"/>
      <point x="54" y="701" type="line" smooth="yes"/>
      <point x="42" y="701"/>
      <point x="36" y="697"/>
      <point x="36" y="688" type="curve" smooth="yes"/>
      <point x="36" y="679"/>
      <point x="45" y="674"/>
      <point x="62" y="673" type="curve" smooth="yes"/>
      <point x="170" y="667" type="line"/>
      <point x="186" y="667"/>
      <point x="209" y="643"/>
      <point x="209" y="624" type="curve" smooth="yes"/>
      <point x="209" y="-105" type="line" smooth="yes"/>
      <point x="209" y="-132"/>
      <point x="193" y="-151"/>
      <point x="174" y="-154" type="curve"/>
      <point x="62" y="-167" type="line"/>
      <point x="45" y="-170"/>
      <point x="36" y="-176"/>
      <point x="36" y="-185" type="curve" smooth="yes"/>
      <point x="36" y="-195"/>
      <point x="45" y="-200"/>
      <point x="62" y="-200" type="curve" smooth="yes"/>
    </contour>
  </outline>
</glyph>
<glyph name="tcedilla" format="1">
  <advance width="364"/>
  <unicode hex="0163"/>
  <outline>
    <contour>
      <point x="271" y="-5"/>
      <point x="302" y="3"/>
      <point x="319" y="14" type="curve"/>
      <point x="319" y="76" type="line"/>
      <point x="303" y="63"/>
      <point x="276" y="53"/>
      <point x="251" y="53" type="curve" smooth="yes"/>
      <point x="194" y="53"/>
      <point x="170" y="84"/>
      <point x="170" y="140" type="curve" smooth="yes"/>
      <point x="170" y="634" type="line"/>
      <point x="108" y="634" type="line"/>
      <point x="108" y="143" type="line"/>
      <point x="108" y="50"/>
      <point x="149" y="-5"/>
      <point x="252" y="-5" type="curve" smooth="yes"/>
    </contour>
    <contour>
      <point x="315" y="455" type="line"/>
      <point x="315" y="507" type="line"/>
      <point x="25" y="507" type="line"/>
      <point x="25" y="455" type="line"/>
    </contour>
    <component base="cedilla" xOffset="-30"/>
  </outline>
</glyph>
<glyph name="knI" format="1">
  <advance width="741"/>
  <unicode hex="0C87"/>
  <outline>
    <contour>
      <point x="643" y="-97"/>
      <point x="656" y="-85"/>
      <point x="656" y="-61" type="curve" smooth="yes"/>
      <point x="656" y="39"/>
      <point x="549" y="216"/>
      <point x="349" y="216" type="curve" smooth="yes"/>
      <point x="262" y="216"/>
      <point x="205" y="168"/>
      <point x="205" y="108" type="curve" smooth="yes"/>
      <point x="205" y="38"/>
      <point x="268" y="-14"/>
      <point x="370" y="-14" type="curve" smooth="yes"/>
      <point x="515" y="-14"/>
      <point x="649" y="148"/>
      <point x="649" y="315" type="curve" smooth="yes"/>
      <point x="649" y="442"/>
      <point x="596" y="519"/>
      <point x="505" y="519" type="curve" smooth="yes"/>
      <point x="432" y="519"/>
      <point x="367" y="461"/>
      <point x="344" y="377" type="curve"/>
      <point x="342" y="377" type="line"/>
      <point x="319" y="461"/>
      <point x="253" y="519"/>
      <point x="178" y="519" type="curve" smooth="yes"/>
      <point x="104" y="519"/>
      <point x="55" y="467"/>
      <point x="55" y="391" type="curve" smooth="yes"/>
      <point x="55" y="346"/>
      <point x="74" y="308"/>
      <point x="112" y="269" type="curve"/>
      <point x="134" y="286" type="line"/>
      <point x="111" y="312"/>
      <point x="102" y="329"/>
      <point x="102" y="359" type="curve" smooth="yes"/>
      <point x="102" y="402"/>
      <point x="133" y="442"/>
      <point x="189" y="442" type="curve" smooth="yes"/>
      <point x="274" y="442"/>
      <point x="324" y="358"/>
      <point x="338" y="283" type="curve"/>
      <point x="348" y="283" type="line"/>
      <point x="360" y="357"/>
      <point x="416" y="441"/>
      <point x="500" y="441" type="curve" smooth="yes"/>
      <point x="561" y="441"/>
      <point x="613" y="390"/>
      <point x="613" y="310" type="curve" smooth="yes"/>
      <point x="613" y="164"/>
      <point x="500" y="71"/>
      <point x="378" y="71" type="curve" smooth="yes"/>
      <point x="309" y="71"/>
      <point x="258" y="95"/>
      <point x="258" y="124" type="curve" smooth="yes"/>
      <point x="258" y="155"/>
      <point x="296" y="184"/>
      <point x="356" y="184" type="curve" smooth="yes"/>
      <point x="514" y="184"/>
      <point x="597" y="46"/>
      <point x="597" y="-70" type="curve" smooth="yes"/>
      <point x="597" y="-85"/>
      <point x="610" y="-97"/>
      <point x="626" y="-97" type="curve" smooth="yes"/>
    </contour>
  </outline>
</glyph>
<glyph name="knII" format="1">
  <advance width="896"/>
  <unicode hex="0C88"/>
  <outline>
    <contour>
      <point x="762" y="-14"/>
      <point x="816" y="30"/>
      <point x="816" y="108" type="curve" smooth="yes"/>
      <point x="816" y="223"/>
      <point x="682" y="279"/>
      <point x="682" y="363" type="curve" smooth="yes"/>
      <point x="682" y="397"/>
      <point x="708" y="418"/>
      <point x="739" y="418" type="curve" smooth="yes"/>
      <point x="772" y="418"/>
      <point x="798" y="400"/>
      <point x="798" y="363" type="curve" smooth="yes"/>
      <point x="798" y="325"/>
      <point x="768" y="298"/>
      <point x="692" y="298" type="curve" smooth="yes"/>
      <point x="45" y="298" type="line"/>
      <point x="45" y="239" type="line"/>
      <point x="659" y="239" type="line" smooth="yes"/>
      <point x="764" y="239"/>
      <point x="836" y="286"/>
      <point x="836" y="369" type="curve" smooth="yes"/>
      <point x="836" y="434"/>
      <point x="792" y="479"/>
      <point x="739" y="479" type="curve" smooth="yes"/>
      <point x="681" y="479"/>
      <point x="642" y="441"/>
      <point x="642" y="379" type="curve" smooth="yes"/>
      <point x="642" y="277"/>
      <point x="765" y="228"/>
      <point x="765" y="134" type="curve" smooth="yes"/>
      <point x="765" y="102"/>
      <point x="746" y="87"/>
      <point x="716" y="77" type="curve" smooth="yes"/>
      <point x="697" y="70"/>
      <point x="676" y="72"/>
      <point x="661" y="67" type="curve" smooth="yes"/>
      <point x="644" y="61"/>
      <point x="633" y="48"/>
      <point x="633" y="30" type="curve" smooth="yes"/>
      <point x="633" y="5"/>
      <point x="652" y="-14"/>
      <point x="690" y="-14" type="curve" smooth="yes"/>
    </contour>
    <contour>
      <point x="480" y="-14"/>
      <point x="574" y="88"/>
      <point x="574" y="228" type="curve" smooth="yes"/>
      <point x="574" y="317"/>
      <point x="528" y="401"/>
      <point x="454" y="439" type="curve" smooth="yes"/>
      <point x="422" y="456"/>
      <point x="385" y="464"/>
      <point x="344" y="464" type="curve" smooth="yes"/>
      <point x="303" y="464"/>
      <point x="266" y="456"/>
      <point x="234" y="439" type="curve" smooth="yes"/>
      <point x="160" y="401"/>
      <point x="114" y="317"/>
      <point x="114" y="228" type="curve" smooth="yes"/>
      <point x="114" y="88"/>
      <point x="208" y="-14"/>
      <point x="344" y="-14" type="curve" smooth="yes"/>
    </contour>
    <contour>
      <point x="234" y="71"/>
      <point x="159" y="146"/>
      <point x="159" y="249" type="curve" smooth="yes"/>
      <point x="159" y="350"/>
      <point x="243" y="436"/>
      <point x="344" y="436" type="curve" smooth="yes"/>
      <point x="445" y="436"/>
      <point x="529" y="351"/>
      <point x="529" y="250" type="curve" smooth="yes"/>
      <point x="529" y="147"/>
      <point x="453" y="71"/>
      <point x="344" y="71" type="curve" smooth="yes"/>
    </contour>
    <contour>
      <point x="235" y="434" type="line"/>
      <point x="345" y="444" type="line"/>
      <point x="444" y="434" type="line"/>
      <point x="525" y="434"/>
      <point x="579" y="480"/>
      <point x="579" y="552" type="curve" smooth="yes"/>
      <point x="579" y="607"/>
      <point x="548" y="648"/>
      <point x="505" y="664" type="curve"/>
      <point x="490" y="644" type="line"/>
      <point x="514" y="635"/>
      <point x="536" y="610"/>
      <point x="536" y="576" type="curve" smooth="yes"/>
      <point x="536" y="536"/>
      <point x="505" y="509"/>
      <point x="444" y="509" type="curve" smooth="yes"/>
      <point x="115" y="509" type="line"/>
      <point x="115" y="434" type="line"/>
    </contour>
  </outline>
</glyph>
<glyph name="knvL" format="1">
  <advance width="971"/>
  <unicode hex="0C8C"/>
  <outline>
    <contour>
      <point x="823" y="-14"/>
      <point x="916" y="120"/>
      <point x="916" y="241" type="curve" smooth="yes"/>
      <point x="916" y="419"/>
      <point x="818" y="509"/>
      <point x="736" y="509" type="curve" smooth="yes"/>
      <point x="701" y="509"/>
      <point x="681" y="496"/>
      <point x="681" y="473" type="curve" smooth="yes"/>
      <point x="681" y="456"/>
      <point x="692" y="444"/>
      <point x="705" y="437" type="curve" smooth="yes"/>
      <point x="720" y="429"/>
      <point x="743" y="435"/>
      <point x="776" y="427" type="curve" smooth="yes"/>
      <point x="825" y="414"/>
      <point x="882" y="353"/>
      <point x="882" y="262" type="curve" smooth="yes"/>
      <point x="882" y="137"/>
      <point x="776" y="71"/>
      <point x="634" y="71" type="curve" smooth="yes"/>
      <point x="519" y="71"/>
      <point x="464" y="100"/>
      <point x="464" y="155" type="curve" smooth="yes"/>
      <point x="464" y="236"/>
      <point x="607" y="275"/>
      <point x="607" y="387" type="curve" smooth="yes"/>
      <point x="607" y="464"/>
      <point x="558" y="519"/>
      <point x="484" y="519" type="curve" smooth="yes"/>
      <point x="413" y="519"/>
      <point x="341" y="461"/>
      <point x="318" y="377" type="curve"/>
      <point x="316" y="377" type="line"/>
      <point x="293" y="461"/>
      <point x="228" y="519"/>
      <point x="153" y="519" type="curve" smooth="yes"/>
      <point x="79" y="519"/>
      <point x="30" y="467"/>
      <point x="30" y="391" type="curve" smooth="yes"/>
      <point x="30" y="346"/>
      <point x="49" y="308"/>
      <point x="87" y="269" type="curve"/>
      <point x="109" y="286" type="line"/>
      <point x="86" y="312"/>
      <point x="77" y="329"/>
      <point x="77" y="359" type="curve" smooth="yes"/>
      <point x="77" y="402"/>
      <point x="108" y="442"/>
      <point x="164" y="442" type="curve" smooth="yes"/>
      <point x="249" y="442"/>
      <point x="298" y="358"/>
      <point x="312" y="283" type="curve"/>
      <point x="321" y="283" type="line"/>
      <point x="334" y="358"/>
      <point x="396" y="442"/>
      <point x="479" y="442" type="curve" smooth="yes"/>
      <point x="533" y="442"/>
      <point x="561" y="415"/>
      <point x="561" y="371" type="curve" smooth="yes"/>
      <point x="561" y="278"/>
      <point x="417" y="245"/>
      <point x="417" y="141" type="curve" smooth="yes"/>
      <point x="417" y="56"/>
      <point x="465" y="-14"/>
      <point x="632" y="-14" type="curve" smooth="yes"/>
    </contour>
  </outline>
</glyph>
<glyph name="knEE" format="1">
  <advance width="725"/>
  <unicode hex="0C8F"/>
  <outline>
    <contour>
      <point x="243" y="-14"/>
      <point x="311" y="43"/>
      <point x="334" y="126" type="curve"/>
      <point x="336" y="126" type="line"/>
      <point x="359" y="43"/>
      <point x="427" y="-14"/>
      <point x="497" y="-14" type="curve" smooth="yes"/>
      <point x="608" y="-14"/>
      <point x="670" y="88"/>
      <point x="670" y="211" type="curve" smooth="yes"/>
      <point x="670" y="378"/>
      <point x="547" y="522"/>
      <point x="373" y="532" type="curve"/>
      <point x="349" y="480"/>
      <point x="318" y="457"/>
      <point x="273" y="457" type="curve" smooth="yes"/>
      <point x="225" y="457"/>
      <point x="186" y="492"/>
      <point x="186" y="547" type="curve" smooth="yes"/>
      <point x="186" y="557"/>
      <point x="188" y="570"/>
      <point x="190" y="581" type="curve"/>
      <point x="169" y="592" type="line"/>
      <point x="160" y="566"/>
      <point x="153" y="537"/>
      <point x="153" y="510" type="curve" smooth="yes"/>
      <point x="153" y="441"/>
      <point x="195" y="384"/>
      <point x="267" y="384" type="curve" smooth="yes"/>
      <point x="320" y="384"/>
      <point x="356" y="421"/>
      <point x="383" y="476" type="curve"/>
      <point x="511" y="459"/>
      <point x="635" y="360"/>
      <point x="635" y="227" type="curve" smooth="yes"/>
      <point x="635" y="138"/>
      <point x="579" y="71"/>
      <point x="491" y="71" type="curve" smooth="yes"/>
      <point x="418" y="71"/>
      <point x="352" y="146"/>
      <point x="339" y="221" type="curve"/>
      <point x="330" y="221" type="line"/>
      <point x="316" y="145"/>
      <point x="251" y="71"/>
      <point x="178" y="71" type="curve" smooth="yes"/>
      <point x="127" y="71"/>
      <point x="92" y="104"/>
      <point x="90" y="156" type="curve"/>
      <point x="92" y="201"/>
      <point x="121" y="227"/>
      <point x="156" y="227" type="curve" smooth="yes"/>
      <point x="188" y="227"/>
      <point x="213" y="217"/>
      <point x="222" y="193" type="curve"/>
      <point x="238" y="208" type="line"/>
      <point x="227" y="250"/>
      <point x="203" y="287"/>
      <point x="153" y="287" type="curve" smooth="yes"/>
      <point x="95" y="287"/>
      <point x="52" y="232"/>
      <point x="50" y="143" type="curve"/>
      <point x="52" y="56"/>
      <point x="101" y="-14"/>
      <point x="173" y="-14" type="curve" smooth="yes"/>
    </contour>
  </outline>
</glyph>
<glyph name="knOO" format="1">
  <advance width="680"/>
  <unicode hex="0C93"/>
  <outline>
    <contour>
      <point x="261" y="-14"/>
      <point x="329" y="43"/>
      <point x="352" y="126" type="curve"/>
      <point x="354" y="126" type="line"/>
      <point x="377" y="43"/>
      <point x="445" y="-14"/>
      <point x="513" y="-14" type="curve" smooth="yes"/>
      <point x="579" y="-14"/>
      <point x="640" y="38"/>
      <point x="640" y="125" type="curve" smooth="yes"/>
      <point x="640" y="172"/>
      <point x="611" y="222"/>
      <point x="577" y="251" type="curve"/>
      <point x="556" y="236" type="line"/>
      <point x="580" y="212"/>
      <point x="592" y="183"/>
      <point x="592" y="154" type="curve" smooth="yes"/>
      <point x="592" y="116"/>
      <point x="567" y="71"/>
      <point x="509" y="71" type="curve" smooth="yes"/>
      <point x="436" y="71"/>
      <point x="370" y="146"/>
      <point x="357" y="221" type="curve"/>
      <point x="348" y="221" type="line"/>
      <point x="334" y="145"/>
      <point x="269" y="71"/>
      <point x="196" y="71" type="curve" smooth="yes"/>
      <point x="143" y="71"/>
      <point x="116" y="114"/>
      <point x="116" y="156" type="curve" smooth="yes"/>
      <point x="116" y="187"/>
      <point x="140" y="223"/>
      <point x="174" y="257" type="curve" smooth="yes"/>
      <point x="215" y="298"/>
      <point x="263" y="349"/>
      <point x="263" y="399" type="curve" smooth="yes"/>
      <point x="263" y="465"/>
      <point x="215" y="519"/>
      <point x="139" y="519" type="curve" smooth="yes"/>
      <point x="64" y="519"/>
      <point x="25" y="465"/>
      <point x="25" y="413" type="curve" smooth="yes"/>
      <point x="25" y="381"/>
      <point x="33" y="352"/>
      <point x="54" y="330" type="curve"/>
      <point x="74" y="345" type="line"/>
      <point x="67" y="360"/>
      <point x="64" y="372"/>
      <point x="64" y="383" type="curve" smooth="yes"/>
      <point x="64" y="421"/>
      <point x="87" y="452"/>
      <point x="139" y="452" type="curve" smooth="yes"/>
      <point x="176" y="452"/>
      <point x="210" y="427"/>
      <point x="210" y="385" type="curve" smooth="yes"/>
      <point x="210" y="344"/>
      <point x="179" y="311"/>
      <point x="147" y="278" type="curve" smooth="yes"/>
      <point x="108" y="238"/>
      <point x="65" y="193"/>
      <point x="65" y="125" type="curve" smooth="yes"/>
      <point x="65" y="38"/>
      <point x="126" y="-14"/>
      <point x="193" y="-14" type="curve" smooth="yes"/>
    </contour>
    <contour>
      <point x="185" y="508" type="line"/>
      <point x="143" y="537"/>
      <point x="125" y="564"/>
      <point x="125" y="601" type="curve" smooth="yes"/>
      <point x="125" y="646"/>
      <point x="148" y="677"/>
      <point x="200" y="689" type="curve"/>
      <point x="191" y="711" type="line"/>
      <point x="107" y="706"/>
      <point x="61" y="660"/>
      <point x="61" y="606" type="curve" smooth="yes"/>
      <point x="61" y="551"/>
      <point x="110" y="511"/>
      <point x="164" y="492" type="curve"/>
    </contour>
  </outline>
</glyph>
<glyph name="knKHA" format="1">
  <advance width="778"/>
  <unicode hex="0C96"/>
  <outline>
    <contour>
      <point x="348" y="-14"/>
      <point x="436" y="169"/>
      <point x="436" y="279" type="curve" smooth="yes"/>
      <point x="436" y="445"/>
      <point x="357" y="520"/>
      <point x="258" y="520" type="curve" smooth="yes"/>
      <point x="197" y="520"/>
      <point x="146" y="469"/>
      <point x="146" y="407" type="curve" smooth="yes"/>
      <point x="146" y="350"/>
      <point x="180" y="300"/>
      <point x="236" y="300" type="curve" smooth="yes"/>
      <point x="280" y="300"/>
      <point x="304" y="330"/>
      <point x="304" y="356" type="curve" smooth="yes"/>
      <point x="304" y="385"/>
      <point x="283" y="408"/>
      <point x="256" y="408" type="curve" smooth="yes"/>
      <point x="228" y="408"/>
      <point x="211" y="387"/>
      <point x="211" y="357" type="curve" smooth="yes"/>
      <point x="211" y="352"/>
      <point x="210" y="351"/>
      <point x="207" y="351" type="curve" smooth="yes"/>
      <point x="194" y="351"/>
      <point x="185" y="369"/>
      <point x="185" y="390" type="curve" smooth="yes"/>
      <point x="185" y="426"/>
      <point x="217" y="455"/>
      <point x="265" y="455" type="curve" smooth="yes"/>
      <point x="336" y="455"/>
      <point x="397" y="397"/>
      <point x="397" y="287" type="curve" smooth="yes"/>
      <point x="397" y="159"/>
      <point x="326" y="71"/>
      <point x="199" y="71" type="curve" smooth="yes"/>
      <point x="125" y="71"/>
      <point x="94" y="104"/>
      <point x="94" y="136" type="curve" smooth="yes"/>
      <point x="94" y="167"/>
      <point x="117" y="196"/>
      <point x="169" y="196" type="curve" smooth="yes"/>
      <point x="311" y="196"/>
      <point x="380" y="-14"/>
      <point x="528" y="-14" type="curve" smooth="yes"/>
      <point x="641" y="-14"/>
      <point x="721" y="95"/>
      <point x="723" y="242" type="curve"/>
      <point x="721" y="415"/>
      <point x="625" y="513"/>
      <point x="556" y="513" type="curve" smooth="yes"/>
      <point x="523" y="513"/>
      <point x="506" y="493"/>
      <point x="508" y="470" type="curve"/>
      <point x="506" y="451"/>
      <point x="518" y="435"/>
      <point x="536" y="430" type="curve"/>
      <point x="557" y="423"/>
      <point x="578" y="428"/>
      <point x="604" y="420" type="curve"/>
      <point x="639" y="407"/>
      <point x="686" y="344"/>
      <point x="688" y="255" type="curve"/>
      <point x="686" y="137"/>
      <point x="616" y="71"/>
      <point x="530" y="71" type="curve" smooth="yes"/>
      <point x="381" y="71"/>
      <point x="312" y="231"/>
      <point x="168" y="231" type="curve" smooth="yes"/>
      <point x="92" y="231"/>
      <point x="40" y="187"/>
      <point x="40" y="116" type="curve" smooth="yes"/>
      <point x="40" y="46"/>
      <point x="100" y="-14"/>
      <point x="194" y="-14" type="curve" smooth="yes"/>
    </contour>
  </outline>
</glyph>
<glyph name="knTTA" format="1">
  <advance width="780"/>
  <unicode hex="0C9F"/>
  <outline>
    <contour>
      <point x="318" y="-14"/>
      <point x="386" y="43"/>
      <point x="409" y="126" type="curve"/>
      <point x="411" y="126" type="line"/>
      <point x="434" y="43"/>
      <point x="502" y="-14"/>
      <point x="572" y="-14" type="curve" smooth="yes"/>
      <point x="683" y="-14"/>
      <point x="745" y="78"/>
      <point x="745" y="214" type="curve" smooth="yes"/>
      <point x="745" y="329"/>
      <point x="683" y="409"/>
      <point x="575" y="425" type="curve"/>
      <point x="545" y="425" type="line"/>
      <point x="561" y="386" type="line"/>
      <point x="659" y="378"/>
      <point x="706" y="302"/>
      <point x="706" y="227" type="curve" smooth="yes"/>
      <point x="706" y="138"/>
      <point x="654" y="71"/>
      <point x="566" y="71" type="curve" smooth="yes"/>
      <point x="493" y="71"/>
      <point x="427" y="146"/>
      <point x="414" y="221" type="curve"/>
      <point x="405" y="221" type="line"/>
      <point x="391" y="145"/>
      <point x="323" y="71"/>
      <point x="248" y="71" type="curve" smooth="yes"/>
      <point x="157" y="71"/>
      <point x="100" y="149"/>
      <point x="100" y="252" type="curve" smooth="yes"/>
      <point x="100" y="345"/>
      <point x="142" y="414"/>
      <point x="235" y="414" type="curve" smooth="yes"/>
      <point x="273" y="414"/>
      <point x="307" y="400"/>
      <point x="307" y="361" type="curve" smooth="yes"/>
      <point x="307" y="325"/>
      <point x="279" y="304"/>
      <point x="232" y="304" type="curve" smooth="yes"/>
      <point x="190" y="304"/>
      <point x="159" y="325"/>
      <point x="159" y="368" type="curve" smooth="yes"/>
      <point x="159" y="379"/>
      <point x="163" y="400"/>
      <point x="166" y="410" type="curve"/>
      <point x="135" y="389" type="line"/>
      <point x="132" y="367"/>
      <point x="131" y="354"/>
      <point x="131" y="341" type="curve" smooth="yes"/>
      <point x="131" y="268"/>
      <point x="174" y="233"/>
      <point x="232" y="233" type="curve" smooth="yes"/>
      <point x="295" y="233"/>
      <point x="337" y="285"/>
      <point x="337" y="351" type="curve" smooth="yes"/>
      <point x="337" y="417"/>
      <point x="301" y="479"/>
      <point x="230" y="479" type="curve" smooth="yes"/>
      <point x="128" y="479"/>
      <point x="60" y="372"/>
      <point x="60" y="241" type="curve" smooth="yes"/>
      <point x="60" y="82"/>
      <point x="137" y="-14"/>
      <point x="248" y="-14" type="curve" smooth="yes"/>
    </contour>
    <contour>
      <point x="234" y="468" type="line"/>
      <point x="192" y="497"/>
      <point x="174" y="524"/>
      <point x="174" y="561" type="curve" smooth="yes"/>
      <point x="174" y="606"/>
      <point x="197" y="637"/>
      <point x="249" y="649" type="curve"/>
      <point x="240" y="671" type="line"/>
      <point x="156" y="666"/>
      <point x="110" y="620"/>
      <point x="110" y="566" type="curve" smooth="yes"/>
      <point x="110" y="511"/>
      <point x="159" y="471"/>
      <point x="213" y="452" type="curve"/>
    </contour>
    <contour>
      <point x="643" y="441"/>
      <point x="703" y="488"/>
      <point x="703" y="554" type="curve" smooth="yes"/>
      <point x="703" y="613"/>
      <point x="658" y="663"/>
      <point x="572" y="671" type="curve"/>
      <point x="560" y="651" type="line"/>
      <point x="613" y="636"/>
      <point x="642" y="602"/>
      <point x="642" y="557" type="curve" smooth="yes"/>
      <point x="642" y="509"/>
      <point x="611" y="464"/>
      <point x="545" y="425" type="curve"/>
      <point x="577" y="407" type="line"/>
    </contour>
  </outline>
</glyph>
<glyph name="knBA" format="1">
  <advance width="709"/>
  <unicode hex="0CAC"/>
  <outline>
    <contour>
      <point x="261" y="-12"/>
      <point x="329" y="45"/>
      <point x="352" y="128" type="curve"/>
      <point x="354" y="128" type="line"/>
      <point x="377" y="45"/>
      <point x="445" y="-12"/>
      <point x="516" y="-12" type="curve" smooth="yes"/>
      <point x="619" y="-12"/>
      <point x="669" y="97"/>
      <point x="669" y="224" type="curve" smooth="yes"/>
      <point x="669" y="397"/>
      <point x="574" y="513"/>
      <point x="503" y="513" type="curve" smooth="yes"/>
      <point x="472" y="513"/>
      <point x="455" y="493"/>
      <point x="455" y="470" type="curve" smooth="yes"/>
      <point x="455" y="451"/>
      <point x="467" y="435"/>
      <point x="483" y="430" type="curve" smooth="yes"/>
      <point x="506" y="423"/>
      <point x="527" y="428"/>
      <point x="551" y="420" type="curve" smooth="yes"/>
      <point x="588" y="407"/>
      <point x="634" y="326"/>
      <point x="634" y="237" type="curve" smooth="yes"/>
      <point x="634" y="131"/>
      <point x="581" y="73"/>
      <point x="509" y="73" type="curve" smooth="yes"/>
      <point x="436" y="73"/>
      <point x="370" y="148"/>
      <point x="357" y="223" type="curve"/>
      <point x="348" y="223" type="line"/>
      <point x="334" y="147"/>
      <point x="269" y="73"/>
      <point x="196" y="73" type="curve" smooth="yes"/>
      <point x="143" y="73"/>
      <point x="116" y="116"/>
      <point x="116" y="158" type="curve" smooth="yes"/>
      <point x="116" y="189"/>
      <point x="141" y="225"/>
      <point x="174" y="259" type="curve" smooth="yes"/>
      <point x="214" y="300"/>
      <point x="263" y="351"/>
      <point x="263" y="401" type="curve" smooth="yes"/>
      <point x="263" y="467"/>
      <point x="215" y="521"/>
      <point x="139" y="521" type="curve" smooth="yes"/>
      <point x="64" y="521"/>
      <point x="25" y="467"/>
      <point x="25" y="415" type="curve" smooth="yes"/>
      <point x="25" y="383"/>
      <point x="33" y="354"/>
      <point x="54" y="332" type="curve"/>
      <point x="74" y="347" type="line"/>
      <point x="67" y="362"/>
      <point x="64" y="374"/>
      <point x="64" y="385" type="curve" smooth="yes"/>
      <point x="64" y="423"/>
      <point x="87" y="454"/>
      <point x="139" y="454" type="curve" smooth="yes"/>
      <point x="176" y="454"/>
      <point x="210" y="429"/>
      <point x="210" y="387" type="curve" smooth="yes"/>
      <point x="210" y="346"/>
      <point x="179" y="313"/>
      <point x="147" y="280" type="curve" smooth="yes"/>
      <point x="108" y="240"/>
      <point x="65" y="195"/>
      <point x="65" y="127" type="curve" smooth="yes"/>
      <point x="65" y="40"/>
      <point x="126" y="-12"/>
      <point x="193" y="-12" type="curve" smooth="yes"/>
    </contour>
  </outline>
</glyph>
<glyph name="knBHA" format="1">
  <advance width="732"/>
  <unicode hex="0CAD"/>
  <outline>
    <contour>
      <point x="261" y="-14"/>
      <point x="329" y="43"/>
      <point x="352" y="126" type="curve"/>
      <point x="354" y="126" type="line"/>
      <point x="377" y="43"/>
      <point x="445" y="-14"/>
      <point x="516" y="-14" type="curve" smooth="yes"/>
      <point x="618" y="-14"/>
      <point x="672" y="84"/>
      <point x="672" y="171" type="curve" smooth="yes"/>
      <point x="672" y="360"/>
      <point x="529" y="470"/>
      <point x="393" y="470" type="curve"/>
      <point x="383" y="434" type="line"/>
      <point x="535" y="424"/>
      <point x="634" y="301"/>
      <point x="634" y="203" type="curve" smooth="yes"/>
      <point x="634" y="121"/>
      <point x="585" y="71"/>
      <point x="509" y="71" type="curve" smooth="yes"/>
      <point x="436" y="71"/>
      <point x="370" y="146"/>
      <point x="357" y="221" type="curve"/>
      <point x="348" y="221" type="line"/>
      <point x="334" y="145"/>
      <point x="269" y="71"/>
      <point x="196" y="71" type="curve" smooth="yes"/>
      <point x="143" y="71"/>
      <point x="116" y="114"/>
      <point x="116" y="156" type="curve" smooth="yes"/>
      <point x="116" y="187"/>
      <point x="141" y="223"/>
      <point x="174" y="257" type="curve" smooth="yes"/>
      <point x="214" y="298"/>
      <point x="263" y="349"/>
      <point x="263" y="399" type="curve" smooth="yes"/>
      <point x="263" y="465"/>
      <point x="215" y="519"/>
      <point x="139" y="519" type="curve" smooth="yes"/>
      <point x="64" y="519"/>
      <point x="25" y="465"/>
      <point x="25" y="413" type="curve" smooth="yes"/>
      <point x="25" y="381"/>
      <point x="33" y="352"/>
      <point x="54" y="330" type="curve"/>
      <point x="74" y="345" type="line"/>
      <point x="67" y="360"/>
      <point x="64" y="372"/>
      <point x="64" y="383" type="curve" smooth="yes"/>
      <point x="64" y="421"/>
      <point x="87" y="452"/>
      <point x="139" y="452" type="curve" smooth="yes"/>
      <point x="176" y="452"/>
      <point x="210" y="427"/>
      <point x="210" y="385" type="curve" smooth="yes"/>
      <point x="210" y="344"/>
      <point x="179" y="311"/>
      <point x="147" y="278" type="curve" smooth="yes"/>
      <point x="108" y="238"/>
      <point x="65" y="193"/>
      <point x="65" y="125" type="curve" smooth="yes"/>
      <point x="65" y="38"/>
      <point x="126" y="-14"/>
      <point x="193" y="-14" type="curve" smooth="yes"/>
    </contour>
    <contour>
      <point x="380" y="-220"/>
      <point x="405" y="-201"/>
      <point x="405" y="-161" type="curve" smooth="yes"/>
      <point x="405" y="-117"/>
      <point x="376" y="-104"/>
      <point x="362" y="16" type="curve"/>
      <point x="346" y="16" type="line"/>
      <point x="333" y="-104"/>
      <point x="302" y="-117"/>
      <point x="302" y="-161" type="curve" smooth="yes"/>
      <point x="302" y="-197"/>
      <point x="327" y="-220"/>
      <point x="354" y="-220" type="curve" smooth="yes"/>
    </contour>
    <contour>
      <point x="537" y="434" type="line" smooth="yes"/>
      <point x="618" y="434"/>
      <point x="672" y="480"/>
      <point x="672" y="552" type="curve" smooth="yes"/>
      <point x="672" y="607"/>
      <point x="641" y="648"/>
      <point x="598" y="664" type="curve"/>
      <point x="583" y="644" type="line"/>
      <point x="607" y="635"/>
      <point x="629" y="610"/>
      <point x="629" y="576" type="curve" smooth="yes"/>
      <point x="629" y="536"/>
      <point x="598" y="509"/>
      <point x="537" y="509" type="curve" smooth="yes"/>
      <point x="346" y="509" type="line"/>
      <point x="346" y="434" type="line"/>
    </contour>
  </outline>
</glyph>
<glyph name="knVA" format="1">
  <advance width="701"/>
  <unicode hex="0CB5"/>
  <outline>
    <contour>
      <point x="251" y="-14"/>
      <point x="321" y="43"/>
      <point x="344" y="126" type="curve"/>
      <point x="346" y="126" type="line"/>
      <point x="369" y="43"/>
      <point x="438" y="-14"/>
      <point x="503" y="-14" type="curve" smooth="yes"/>
      <point x="598" y="-14"/>
      <point x="636" y="84"/>
      <point x="636" y="171" type="curve" smooth="yes"/>
      <point x="636" y="360"/>
      <point x="493" y="474"/>
      <point x="357" y="474" type="curve"/>
      <point x="347" y="434" type="line"/>
      <point x="499" y="424"/>
      <point x="598" y="311"/>
      <point x="598" y="193" type="curve" smooth="yes"/>
      <point x="598" y="121"/>
      <point x="559" y="71"/>
      <point x="493" y="71" type="curve" smooth="yes"/>
      <point x="428" y="71"/>
      <point x="363" y="145"/>
      <point x="349" y="221" type="curve"/>
      <point x="340" y="221" type="line"/>
      <point x="326" y="145"/>
      <point x="261" y="71"/>
      <point x="186" y="71" type="curve" smooth="yes"/>
      <point x="135" y="71"/>
      <point x="100" y="104"/>
      <point x="100" y="156" type="curve" smooth="yes"/>
      <point x="100" y="201"/>
      <point x="129" y="227"/>
      <point x="166" y="227" type="curve" smooth="yes"/>
      <point x="196" y="227"/>
      <point x="221" y="217"/>
      <point x="232" y="193" type="curve"/>
      <point x="248" y="208" type="line"/>
      <point x="235" y="250"/>
      <point x="211" y="287"/>
      <point x="163" y="287" type="curve" smooth="yes"/>
      <point x="103" y="287"/>
      <point x="60" y="232"/>
      <point x="60" y="143" type="curve" smooth="yes"/>
      <point x="60" y="56"/>
      <point x="109" y="-14"/>
      <point x="183" y="-14" type="curve" smooth="yes"/>
    </contour>
    <contour>
      <point x="495" y="434" type="line" smooth="yes"/>
      <point x="576" y="434"/>
      <point x="630" y="480"/>
      <point x="630" y="552" type="curve" smooth="yes"/>
      <point x="630" y="607"/>
      <point x="599" y="648"/>
      <point x="556" y="664" type="curve"/>
      <point x="541" y="644" type="line"/>
      <point x="565" y="635"/>
      <point x="587" y="610"/>
      <point x="587" y="576" type="curve" smooth="yes"/>
      <point x="587" y="536"/>
      <point x="556" y="509"/>
      <point x="495" y="509" type="curve" smooth="yes"/>
      <point x="60" y="509" type="line"/>
      <point x="60" y="434" type="line"/>
    </contour>
  </outline>
</glyph>
<glyph name="knAvagraha" format="1">
  <advance width="416"/>
  <unicode hex="0CBD"/>
  <outline>
    <contour>
      <point x="299" y="-14"/>
      <point x="371" y="40"/>
      <point x="371" y="127" type="curve" smooth="yes"/>
      <point x="371" y="284"/>
      <point x="100" y="288"/>
      <point x="100" y="383" type="curve" smooth="yes"/>
      <point x="100" y="411"/>
      <point x="122" y="437"/>
      <point x="174" y="437" type="curve" smooth="yes"/>
      <point x="366" y="437" type="line"/>
      <point x="366" y="519" type="line"/>
      <point x="171" y="519" type="line" smooth="yes"/>
      <point x="93" y="519"/>
      <point x="48" y="467"/>
      <point x="48" y="413" type="curve" smooth="yes"/>
      <point x="48" y="380"/>
      <point x="54" y="354"/>
      <point x="73" y="331" type="curve" smooth="yes"/>
      <point x="136" y="258"/>
      <point x="321" y="229"/>
      <point x="321" y="150" type="curve" smooth="yes"/>
      <point x="321" y="116"/>
      <point x="288" y="93"/>
      <point x="230" y="93" type="curve" smooth="yes"/>
      <point x="148" y="93"/>
      <point x="95" y="126"/>
      <point x="69" y="178" type="curve"/>
      <point x="45" y="154" type="line"/>
      <point x="57" y="45"/>
      <point x="125" y="-14"/>
      <point x="216" y="-14" type="curve" smooth="yes"/>
    </contour>
  </outline>
</glyph>
<glyph name="knmE" format="1">
  <advance width="0"/>
  <unicode hex="0CC6"/>
  <outline>
    <contour>
      <point x="-121" y="434"/>
      <point x="-67" y="480"/>
      <point x="-67" y="553" type="curve" smooth="yes"/>
      <point x="-67" y="651"/>
      <point x="-145" y="685"/>
      <point x="-202" y="685" type="curve" smooth="yes"/>
      <point x="-257" y="685"/>
      <point x="-285" y="657"/>
      <point x="-285" y="625" type="curve" smooth="yes"/>
      <point x="-285" y="592"/>
      <point x="-262" y="571"/>
      <point x="-228" y="571" type="curve" smooth="yes"/>
      <point x="-194" y="571"/>
      <point x="-173" y="597"/>
      <point x="-173" y="633" type="curve" smooth="yes"/>
      <point x="-173" y="639"/>
      <point x="-171" y="643"/>
      <point x="-167" y="643" type="curve" smooth="yes"/>
      <point x="-154" y="643"/>
      <point x="-110" y="629"/>
      <point x="-110" y="577" type="curve"/>
      <point x="-110" y="530"/>
      <point x="-150" y="509"/>
      <point x="-201" y="509" type="curve"/>
      <point x="-202" y="434" type="line"/>
    </contour>
  </outline>
</glyph>
<glyph name="knmOO" format="1">
  <advance width="1060"/>
  <unicode hex="0CCB"/>
  <outline>
    <contour>
      <point x="209" y="-14"/>
      <point x="239" y="103"/>
      <point x="239" y="274" type="curve"/>
      <point x="239" y="416"/>
      <point x="328" y="437"/>
      <point x="406" y="437" type="curve" smooth="yes"/>
      <point x="500" y="437"/>
      <point x="622" y="357"/>
      <point x="622" y="235" type="curve"/>
      <point x="622" y="140"/>
      <point x="572" y="71"/>
      <point x="480" y="71" type="curve" smooth="yes"/>
      <point x="409" y="71"/>
      <point x="367" y="112"/>
      <point x="367" y="169" type="curve"/>
      <point x="367" y="211"/>
      <point x="376" y="237"/>
      <point x="388" y="237" type="curve" smooth="yes"/>
      <point x="393" y="237"/>
      <point x="394" y="232"/>
      <point x="394" y="227" type="curve" smooth="yes"/>
      <point x="394" y="191"/>
      <point x="416" y="165"/>
      <point x="449" y="165" type="curve" smooth="yes"/>
      <point x="484" y="165"/>
      <point x="509" y="194"/>
      <point x="509" y="230" type="curve" smooth="yes"/>
      <point x="509" y="262"/>
      <point x="484" y="299"/>
      <point x="431" y="299" type="curve" smooth="yes"/>
      <point x="352" y="299"/>
      <point x="315" y="233"/>
      <point x="315" y="155" type="curve"/>
      <point x="315" y="56"/>
      <point x="378" y="-14"/>
      <point x="464" y="-14" type="curve" smooth="yes"/>
      <point x="575" y="-14"/>
      <point x="661" y="82"/>
      <point x="661" y="238" type="curve"/>
      <point x="661" y="424"/>
      <point x="523" y="519"/>
      <point x="406" y="519" type="curve"/>
      <point x="313" y="519"/>
      <point x="192" y="456"/>
      <point x="192" y="273" type="curve"/>
      <point x="192" y="177"/>
      <point x="176" y="71"/>
      <point x="83" y="71" type="curve"/>
      <point x="2" y="71"/>
      <point x="-48" y="145"/>
      <point x="-77" y="222" type="curve"/>
      <point x="-99" y="182" type="line"/>
      <point x="-90" y="84"/>
      <point x="-3" y="-14"/>
      <point x="86" y="-14" type="curve"/>
    </contour>
    <contour>
      <point x="-121" y="434"/>
      <point x="-67" y="480"/>
      <point x="-67" y="553" type="curve" smooth="yes"/>
      <point x="-67" y="651"/>
      <point x="-145" y="685"/>
      <point x="-202" y="685" type="curve" smooth="yes"/>
      <point x="-257" y="685"/>
      <point x="-285" y="657"/>
      <point x="-285" y="625" type="curve" smooth="yes"/>
      <point x="-285" y="592"/>
      <point x="-262" y="571"/>
      <point x="-228" y="571" type="curve" smooth="yes"/>
      <point x="-194" y="571"/>
      <point x="-173" y="597"/>
      <point x="-173" y="633" type="curve" smooth="yes"/>
      <point x="-173" y="639"/>
      <point x="-171" y="643"/>
      <point x="-167" y="643" type="curve" smooth="yes"/>
      <point x="-154" y="643"/>
      <point x="-110" y="629"/>
      <point x="-110" y="577" type="curve"/>
      <point x="-110" y="530"/>
      <point x="-150" y="509"/>
      <point x="-201" y="509" type="curve"/>
      <point x="-202" y="434" type="line"/>
    </contour>
    <contour>
      <point x="927" y="-15" type="line"/>
      <point x="926" y="14" type="line"/>
      <point x="847" y="91"/>
      <point x="803" y="170"/>
      <point x="803" y="240" type="curve"/>
      <point x="803" y="346"/>
      <point x="845" y="408"/>
      <point x="915" y="408" type="curve" smooth="yes"/>
      <point x="953" y="408"/>
      <point x="982" y="386"/>
      <point x="982" y="347" type="curve" smooth="yes"/>
      <point x="982" y="317"/>
      <point x="957" y="287"/>
      <point x="918" y="287" type="curve" smooth="yes"/>
      <point x="883" y="287"/>
      <point x="865" y="314"/>
      <point x="865" y="347" type="curve" smooth="yes"/>
      <point x="865" y="381"/>
      <point x="878" y="408"/>
      <point x="905" y="438" type="curve"/>
      <point x="861" y="420" type="line"/>
      <point x="851" y="392"/>
      <point x="841" y="361"/>
      <point x="841" y="325" type="curve" smooth="yes"/>
      <point x="841" y="267"/>
      <point x="868" y="229"/>
      <point x="916" y="229" type="curve" smooth="yes"/>
      <point x="953" y="229"/>
      <point x="1010" y="269"/>
      <point x="1010" y="345" type="curve" smooth="yes"/>
      <point x="1010" y="421"/>
      <point x="973" y="476"/>
      <point x="908" y="476" type="curve" smooth="yes"/>
      <point x="818" y="476"/>
      <point x="767" y="363"/>
      <point x="767" y="248" type="curve" smooth="yes"/>
      <point x="767" y="151"/>
      <point x="805" y="59"/>
      <point x="874" y="-15" type="curve"/>
    </contour>
  </outline>
</glyph>
<glyph name="knLLLA" format="1">
  <advance width="813"/>
  <unicode hex="0CDE"/>
  <outline>
    <contour>
      <point x="318" y="-14"/>
      <point x="382" y="43"/>
      <point x="405" y="126" type="curve"/>
      <point x="407" y="126" type="line"/>
      <point x="430" y="43"/>
      <point x="500" y="-14"/>
      <point x="570" y="-14" type="curve" smooth="yes"/>
      <point x="676" y="-14"/>
      <point x="753" y="82"/>
      <point x="753" y="261" type="curve" smooth="yes"/>
      <point x="753" y="392"/>
      <point x="685" y="519"/>
      <point x="583" y="519" type="curve" smooth="yes"/>
      <point x="512" y="519"/>
      <point x="476" y="457"/>
      <point x="476" y="391" type="curve" smooth="yes"/>
      <point x="476" y="325"/>
      <point x="518" y="273"/>
      <point x="581" y="273" type="curve" smooth="yes"/>
      <point x="639" y="273"/>
      <point x="682" y="308"/>
      <point x="682" y="381" type="curve" smooth="yes"/>
      <point x="682" y="394"/>
      <point x="681" y="407"/>
      <point x="678" y="429" type="curve"/>
      <point x="656" y="497" type="line"/>
      <point x="641" y="501"/>
      <point x="636" y="475"/>
      <point x="647" y="450" type="curve"/>
      <point x="650" y="440"/>
      <point x="654" y="419"/>
      <point x="654" y="408" type="curve" smooth="yes"/>
      <point x="654" y="365"/>
      <point x="623" y="344"/>
      <point x="581" y="344" type="curve" smooth="yes"/>
      <point x="534" y="344"/>
      <point x="506" y="365"/>
      <point x="506" y="401" type="curve" smooth="yes"/>
      <point x="506" y="440"/>
      <point x="540" y="454"/>
      <point x="578" y="454" type="curve" smooth="yes"/>
      <point x="671" y="454"/>
      <point x="713" y="365"/>
      <point x="713" y="272" type="curve" smooth="yes"/>
      <point x="713" y="149"/>
      <point x="656" y="71"/>
      <point x="565" y="71" type="curve" smooth="yes"/>
      <point x="490" y="71"/>
      <point x="423" y="146"/>
      <point x="410" y="221" type="curve"/>
      <point x="401" y="221" type="line"/>
      <point x="387" y="145"/>
      <point x="323" y="71"/>
      <point x="248" y="71" type="curve" smooth="yes"/>
      <point x="157" y="71"/>
      <point x="100" y="149"/>
      <point x="100" y="272" type="curve" smooth="yes"/>
      <point x="100" y="365"/>
      <point x="142" y="454"/>
      <point x="235" y="454" type="curve" smooth="yes"/>
      <point x="273" y="454"/>
      <point x="307" y="440"/>
      <point x="307" y="401" type="curve" smooth="yes"/>
      <point x="307" y="365"/>
      <point x="279" y="344"/>
      <point x="232" y="344" type="curve" smooth="yes"/>
      <point x="190" y="344"/>
      <point x="159" y="365"/>
      <point x="159" y="408" type="curve" smooth="yes"/>
      <point x="159" y="419"/>
      <point x="163" y="440"/>
      <point x="166" y="450" type="curve"/>
      <point x="177" y="475"/>
      <point x="172" y="501"/>
      <point x="157" y="497" type="curve"/>
      <point x="135" y="429" type="line"/>
      <point x="132" y="407"/>
      <point x="131" y="394"/>
      <point x="131" y="381" type="curve" smooth="yes"/>
      <point x="131" y="308"/>
      <point x="174" y="273"/>
      <point x="232" y="273" type="curve" smooth="yes"/>
      <point x="295" y="273"/>
      <point x="337" y="325"/>
      <point x="337" y="391" type="curve" smooth="yes"/>
      <point x="337" y="457"/>
      <point x="301" y="519"/>
      <point x="230" y="519" type="curve" smooth="yes"/>
      <point x="128" y="519"/>
      <point x="60" y="392"/>
      <point x="60" y="261" type="curve" smooth="yes"/>
      <point x="60" y="82"/>
      <point x="137" y="-14"/>
      <point x="248" y="-14" type="curve" smooth="yes"/>
    </contour>
  </outline>
</glyph>
<glyph name="knOne" format="1">
  <advance width="538"/>
  <unicode hex="0CE7"/>
  <outline>
    <contour>
      <point x="221" y="46" type="line"/>
      <point x="147" y="95"/>
      <point x="101" y="151"/>
      <point x="101" y="261" type="curve" smooth="yes"/>
      <point x="101" y="392"/>
      <point x="180" y="444"/>
      <point x="269" y="444" type="curve" smooth="yes"/>
      <point x="358" y="444"/>
      <point x="437" y="392"/>
      <point x="437" y="261" type="curve" smooth="yes"/>
      <point x="437" y="151"/>
      <point x="391" y="95"/>
      <point x="317" y="46" type="curve"/>
      <point x="361" y="-14" type="line"/>
      <point x="448" y="66"/>
      <point x="483" y="140"/>
      <point x="483" y="249" type="curve" smooth="yes"/>
      <point x="483" y="411"/>
      <point x="395" y="519"/>
      <point x="269" y="519" type="curve" smooth="yes"/>
      <point x="143" y="519"/>
      <point x="55" y="411"/>
      <point x="55" y="249" type="curve" smooth="yes"/>
      <point x="55" y="140"/>
      <point x="90" y="66"/>
      <point x="177" y="-14" type="curve"/>
    </contour>
  </outline>
</glyph>
<glyph name="knThree" format="1">
  <advance width="553"/>
  <unicode hex="0CE9"/>
  <outline>
    <contour>
      <point x="270" y="-14"/>
      <point x="351" y="124"/>
      <point x="351" y="260" type="curve" smooth="yes"/>
      <point x="351" y="423"/>
      <point x="277" y="519"/>
      <point x="183" y="519" type="curve" smooth="yes"/>
      <point x="103" y="519"/>
      <point x="59" y="462"/>
      <point x="59" y="388" type="curve" smooth="yes"/>
      <point x="59" y="319"/>
      <point x="96" y="269"/>
      <point x="160" y="269" type="curve" smooth="yes"/>
      <point x="197" y="269"/>
      <point x="241" y="301"/>
      <point x="246" y="349" type="curve"/>
      <point x="230" y="369" type="line"/>
      <point x="215" y="357"/>
      <point x="197" y="346"/>
      <point x="166" y="346" type="curve" smooth="yes"/>
      <point x="129" y="346"/>
      <point x="103" y="363"/>
      <point x="103" y="392" type="curve" smooth="yes"/>
      <point x="103" y="422"/>
      <point x="134" y="444"/>
      <point x="185" y="444" type="curve" smooth="yes"/>
      <point x="260" y="444"/>
      <point x="311" y="380"/>
      <point x="311" y="272" type="curve" smooth="yes"/>
      <point x="311" y="134"/>
      <point x="234" y="69"/>
      <point x="154" y="69" type="curve" smooth="yes"/>
      <point x="101" y="69"/>
      <point x="69" y="91"/>
      <point x="69" y="122" type="curve" smooth="yes"/>
      <point x="69" y="158"/>
      <point x="99" y="177"/>
      <point x="147" y="177" type="curve" smooth="yes"/>
      <point x="286" y="177"/>
      <point x="289" y="-14"/>
      <point x="444" y="-14" type="curve" smooth="yes"/>
      <point x="515" y="-14"/>
      <point x="548" y="47"/>
      <point x="553" y="95" type="curve"/>
      <point x="537" y="109" type="line"/>
      <point x="510" y="77"/>
      <point x="485" y="69"/>
      <point x="449" y="69" type="curve" smooth="yes"/>
      <point x="339" y="69"/>
      <point x="268" y="214"/>
      <point x="150" y="214" type="curve" smooth="yes"/>
      <point x="68" y="214"/>
      <point x="25" y="169"/>
      <point x="25" y="107" type="curve" smooth="yes"/>
      <point x="25" y="42"/>
      <point x="65" y="-14"/>
      <point x="155" y="-14" type="curve" smooth="yes"/>
    </contour>
  </outline>
</glyph>
<glyph name="quoteright" format="1">
  <advance width="240"/>
  <unicode hex="2019"/>
  <outline>
    <contour>
      <point x="60" y="426" type="line"/>
      <point x="120" y="429"/>
      <point x="202" y="501"/>
      <point x="202" y="593" type="curve" smooth="yes"/>
      <point x="202" y="649"/>
      <point x="165" y="690"/>
      <point x="126" y="690" type="curve" smooth="yes"/>
      <point x="87" y="690"/>
      <point x="64" y="670"/>
      <point x="64" y="646" type="curve" smooth="yes"/>
      <point x="64" y="621"/>
      <point x="83" y="605"/>
      <point x="108" y="603" type="curve" smooth="yes"/>
      <point x="132" y="601"/>
      <point x="150" y="575"/>
      <point x="150" y="558" type="curve" smooth="yes"/>
      <point x="150" y="494"/>
      <point x="106" y="460"/>
      <point x="54" y="449" type="curve" smooth="yes"/>
      <point x="45" y="447"/>
      <point x="40" y="443"/>
      <point x="40" y="437" type="curve" smooth="yes"/>
      <point x="40" y="430"/>
      <point x="46" y="426"/>
      <point x="58" y="426" type="curve" smooth="yes"/>
    </contour>
  </outline>
</glyph>
<glyph name="uni20A8" format="1">
  <advance width="958"/>
  <unicode hex="20A8"/>
  <outline>
    <contour>
      <point x="749" y="-26"/>
      <point x="810" y="33"/>
      <point x="810" y="106" type="curve" smooth="yes"/>
      <point x="810" y="126"/>
      <point x="803" y="146"/>
      <point x="790" y="165" type="curve" smooth="yes"/>
      <point x="763" y="203"/>
      <point x="748" y="210"/>
      <point x="715" y="231" type="curve" smooth="yes"/>
      <point x="658" y="266"/>
      <point x="630" y="296"/>
      <point x="630" y="320" type="curve" smooth="yes"/>
      <point x="630" y="355"/>
      <point x="652" y="388"/>
      <point x="692" y="388" type="curve" smooth="yes"/>
      <point x="732" y="388"/>
      <point x="760" y="355"/>
      <point x="763" y="330" type="curve" smooth="yes"/>
      <point x="764" y="322"/>
      <point x="787" y="309"/>
      <point x="796" y="309" type="curve" smooth="yes"/>
      <point x="801" y="309"/>
      <point x="803" y="310"/>
      <point x="803" y="313" type="curve" smooth="yes"/>
      <point x="803" y="351"/>
      <point x="797" y="377"/>
      <point x="786" y="391" type="curve"/>
      <point x="771" y="406"/>
      <point x="742" y="414"/>
      <point x="701" y="414" type="curve" smooth="yes"/>
      <point x="618" y="414"/>
      <point x="569" y="360"/>
      <point x="569" y="300" type="curve" smooth="yes"/>
      <point x="569" y="262"/>
      <point x="601" y="220"/>
      <point x="666" y="174" type="curve" smooth="yes"/>
      <point x="717" y="138"/>
      <point x="738" y="117"/>
      <point x="738" y="84" type="curve" smooth="yes"/>
      <point x="738" y="37"/>
      <point x="719" y="13"/>
      <point x="680" y="13" type="curve" smooth="yes"/>
      <point x="637" y="13"/>
      <point x="621" y="27"/>
      <point x="593" y="58" type="curve" smooth="yes"/>
      <point x="515" y="141"/>
      <point x="447" y="225"/>
      <point x="390" y="312" type="curve"/>
      <point x="387" y="317"/>
      <point x="387" y="320"/>
      <point x="390" y="321" type="curve"/>
      <point x="407" y="330"/>
      <point x="431" y="349"/>
      <point x="463" y="379" type="curve" smooth="yes"/>
      <point x="482" y="398"/>
      <point x="507" y="449"/>
      <point x="507" y="489" type="curve" smooth="yes"/>
      <point x="507" y="598"/>
      <point x="428" y="657"/>
      <point x="283" y="657" type="curve"/>
      <point x="168" y="652" type="line"/>
      <point x="70" y="653" type="line" smooth="yes"/>
      <point x="51" y="653"/>
      <point x="41" y="649"/>
      <point x="41" y="642" type="curve" smooth="yes"/>
      <point x="41" y="633"/>
      <point x="53" y="626"/>
      <point x="76" y="622" type="curve" smooth="yes"/>
      <point x="122" y="614"/>
      <point x="135" y="586"/>
      <point x="135" y="522" type="curve" smooth="yes"/>
      <point x="135" y="100" type="line" smooth="yes"/>
      <point x="135" y="52"/>
      <point x="113" y="33"/>
      <point x="65" y="25" type="curve"/>
      <point x="41" y="20"/>
      <point x="29" y="14"/>
      <point x="29" y="7" type="curve" smooth="yes"/>
      <point x="29" y="-1"/>
      <point x="39" y="-5"/>
      <point x="58" y="-5" type="curve"/>
      <point x="188" y="2" type="line"/>
      <point x="199" y="2"/>
      <point x="214" y="1"/>
      <point x="231" y="-1" type="curve"/>
      <point x="248" y="-4"/>
      <point x="267" y="-5"/>
      <point x="286" y="-5" type="curve" smooth="yes"/>
      <point x="305" y="-5"/>
      <point x="315" y="-1"/>
      <point x="315" y="7" type="curve" smooth="yes"/>
      <point x="315" y="14"/>
      <point x="304" y="20"/>
      <point x="282" y="24" type="curve" smooth="yes"/>
      <point x="237" y="32"/>
      <point x="215" y="61"/>
      <point x="215" y="110" type="curve" smooth="yes"/>
      <point x="215" y="282" type="line" smooth="yes"/>
      <point x="215" y="297"/>
      <point x="220" y="303"/>
      <point x="230" y="302" type="curve" smooth="yes"/>
      <point x="291" y="295"/>
      <point x="332" y="273"/>
      <point x="354" y="238" type="curve" smooth="yes"/>
      <point x="366" y="219"/>
      <point x="381" y="195"/>
      <point x="400" y="167" type="curve" smooth="yes"/>
      <point x="437" y="110"/>
      <point x="524" y="-26"/>
      <point x="637" y="-26" type="curve" smooth="yes"/>
    </contour>
    <contour>
      <point x="239" y="330"/>
      <point x="215" y="326"/>
      <point x="215" y="363" type="curve" smooth="yes"/>
      <point x="215" y="438"/>
      <point x="216" y="508"/>
      <point x="219" y="573" type="curve" smooth="yes"/>
      <point x="220" y="608"/>
      <point x="232" y="627"/>
      <point x="283" y="627" type="curve" smooth="yes"/>
      <point x="390" y="627"/>
      <point x="417" y="556"/>
      <point x="417" y="489" type="curve" smooth="yes"/>
      <point x="417" y="385"/>
      <point x="349" y="329"/>
      <point x="268" y="329" type="curve" smooth="yes"/>
      <point x="263" y="329" type="line"/>
    </contour>
  </outline>
</glyph>
<glyph name="uni2100" format="1">
  <advance width="568"/>
  <unicode hex="2100"/>
  <outline>
    <contour>
      <point x="53" y="-97"/>
      <point x="65" y="-92"/>
      <point x="71" y="-82" type="curve" smooth="yes"/>
      <point x="509" y="613" type="line"/>
      <point x="510" y="614"/>
      <point x="510" y="615"/>
      <point x="510" y="618" type="curve" smooth="yes"/>
      <point x="510" y="623"/>
      <point x="503" y="630"/>
      <point x="496" y="630" type="curve" smooth="yes"/>
      <point x="477" y="630"/>
      <point x="464" y="624"/>
      <point x="457" y="613" type="curve" smooth="yes"/>
      <point x="19" y="-82" type="line"/>
      <point x="18" y="-83"/>
      <point x="18" y="-84"/>
      <point x="18" y="-86" type="curve" smooth="yes"/>
      <point x="18" y="-90"/>
      <point x="27" y="-97"/>
      <point x="35" y="-97" type="curve" smooth="yes"/>
    </contour>
    <contour>
      <point x="494" y="-2"/>
      <point x="548" y="30"/>
      <point x="548" y="54" type="curve" smooth="yes"/>
      <point x="548" y="59"/>
      <point x="536" y="69"/>
      <point x="531" y="69" type="curve" smooth="yes"/>
      <point x="528" y="69"/>
      <point x="526" y="68"/>
      <point x="525" y="67" type="curve"/>
      <point x="510" y="49"/>
      <point x="490" y="40"/>
      <point x="465" y="40" type="curve" smooth="yes"/>
      <point x="415" y="40"/>
      <point x="383" y="81"/>
      <point x="383" y="133" type="curve" smooth="yes"/>
      <point x="383" y="184"/>
      <point x="409" y="222"/>
      <point x="456" y="222" type="curve" smooth="yes"/>
      <point x="479" y="222"/>
      <point x="497" y="212"/>
      <point x="509" y="193" type="curve"/>
      <point x="510" y="190"/>
      <point x="514" y="189"/>
      <point x="519" y="188" type="curve"/>
      <point x="530" y="187"/>
      <point x="547" y="202"/>
      <point x="547" y="211" type="curve" smooth="yes"/>
      <point x="547" y="216"/>
      <point x="546" y="219"/>
      <point x="544" y="222" type="curve"/>
      <point x="527" y="241"/>
      <point x="500" y="251"/>
      <point x="464" y="251" type="curve" smooth="yes"/>
      <point x="392" y="251"/>
      <point x="329" y="189"/>
      <point x="329" y="121" type="curve" smooth="yes"/>
      <point x="329" y="52"/>
      <point x="380" y="-2"/>
      <point x="437" y="-2" type="curve" smooth="yes"/>
    </contour>
    <contour>
      <point x="80" y="440"/>
      <point x="63" y="453"/>
      <point x="63" y="474" type="curve" smooth="yes"/>
      <point x="63" y="494"/>
      <point x="85" y="510"/>
      <point x="128" y="522" type="curve" smooth="yes"/>
      <point x="138" y="525"/>
      <point x="143" y="521"/>
      <point x="143" y="511" type="curve" smooth="yes"/>
      <point x="142" y="482" type="line" smooth="yes"/>
      <point x="142" y="471"/>
      <point x="140" y="463"/>
      <point x="135" y="459" type="curve" smooth="yes"/>
      <point x="119" y="446"/>
      <point x="107" y="440"/>
      <point x="98" y="440" type="curve" smooth="yes"/>
    </contour>
    <contour>
      <point x="95" y="400"/>
      <point x="118" y="408"/>
      <point x="135" y="423" type="curve" smooth="yes"/>
      <point x="141" y="428"/>
      <point x="145" y="431"/>
      <point x="146" y="431" type="curve" smooth="yes"/>
      <point x="147" y="431"/>
      <point x="150" y="428"/>
      <point x="155" y="423" type="curve"/>
      <point x="163" y="412"/>
      <point x="181" y="400"/>
      <point x="202" y="400" type="curve" smooth="yes"/>
      <point x="213" y="400"/>
      <point x="224" y="405"/>
      <point x="235" y="415" type="curve"/>
      <point x="246" y="424"/>
      <point x="251" y="431"/>
      <point x="251" y="434" type="curve" smooth="yes"/>
      <point x="251" y="441"/>
      <point x="245" y="455"/>
      <point x="238" y="448" type="curve"/>
      <point x="235" y="443"/>
      <point x="228" y="440"/>
      <point x="217" y="440" type="curve" smooth="yes"/>
      <point x="203" y="440"/>
      <point x="196" y="453"/>
      <point x="196" y="479" type="curve" smooth="yes"/>
      <point x="199" y="603" type="line" smooth="yes"/>
      <point x="200" y="631"/>
      <point x="169" y="656"/>
      <point x="138" y="656" type="curve" smooth="yes"/>
      <point x="122" y="656"/>
      <point x="104" y="652"/>
      <point x="84" y="643" type="curve" smooth="yes"/>
      <point x="44" y="625"/>
      <point x="24" y="607"/>
      <point x="16" y="587" type="curve" smooth="yes"/>
      <point x="12" y="576"/>
      <point x="11" y="570"/>
      <point x="12" y="568" type="curve" smooth="yes"/>
      <point x="13" y="566"/>
      <point x="14" y="565"/>
      <point x="16" y="566" type="curve"/>
      <point x="46" y="574"/>
      <point x="61" y="580"/>
      <point x="61" y="585" type="curve" smooth="yes"/>
      <point x="61" y="612"/>
      <point x="62" y="623"/>
      <point x="97" y="623" type="curve" smooth="yes"/>
      <point x="132" y="623"/>
      <point x="143" y="608"/>
      <point x="143" y="587" type="curve" smooth="yes"/>
      <point x="143" y="564" type="line" smooth="yes"/>
      <point x="143" y="548"/>
      <point x="142" y="545"/>
      <point x="125" y="540" type="curve"/>
      <point x="46" y="512" type="line" smooth="yes"/>
      <point x="15" y="501"/>
      <point x="8" y="485"/>
      <point x="8" y="460" type="curve" smooth="yes"/>
      <point x="8" y="435"/>
      <point x="40" y="400"/>
      <point x="67" y="400" type="curve" smooth="yes"/>
    </contour>
  </outline>
</glyph>
<glyph name="product" format="1">
  <advance width="580"/>
  <unicode hex="220F"/>
  <outline>
    <contour>
      <point x="93" y="-184"/>
      <point x="162" y="-148"/>
      <point x="162" y="-17" type="curve" smooth="yes"/>
      <point x="162" y="674" type="line"/>
      <point x="100" y="674" type="line"/>
      <point x="100" y="-27" type="line" smooth="yes"/>
      <point x="100" y="-93"/>
      <point x="70" y="-125"/>
      <point x="10" y="-125" type="curve" smooth="yes"/>
      <point x="-8" y="-125"/>
      <point x="-31" y="-120"/>
      <point x="-45" y="-113" type="curve"/>
      <point x="-45" y="-173" type="line"/>
      <point x="-31" y="-179"/>
      <point x="-2" y="-184"/>
      <point x="16" y="-184" type="curve" smooth="yes"/>
    </contour>
    <contour>
      <point x="504" y="-180" type="line"/>
      <point x="504" y="674" type="line"/>
      <point x="442" y="674" type="line"/>
      <point x="442" y="-180" type="line"/>
    </contour>
    <contour>
      <point x="461" y="617" type="line"/>
      <point x="461" y="674" type="line"/>
      <point x="127" y="674" type="line"/>
      <point x="127" y="617" type="line"/>
    </contour>
  </outline>
</glyph>
<glyph name="bulletoperator" format="1">
  <advance width="222"/>
  <unicode hex="2219"/>
  <outline>
    <contour>
      <point x="140" y="286"/>
      <point x="162" y="308"/>
      <point x="162" y="337" type="curve" smooth="yes"/>
      <point x="162" y="366"/>
      <point x="140" y="388"/>
      <point x="111" y="388" type="curve" smooth="yes"/>
      <point x="82" y="388"/>
      <point x="60" y="366"/>
      <point x="60" y="337" type="curve" smooth="yes"/>
      <point x="60" y="308"/>
      <point x="82" y="286"/>
      <point x="111" y="286" type="curve" smooth="yes"/>
    </contour>
  </outline>
</glyph>
<glyph name="radical" format="1">
  <advance width="736"/>
  <unicode hex="221A"/>
  <outline>
    <contour>
      <point x="455" y="-200" type="line"/>
      <point x="782" y="895" type="line"/>
      <point x="718" y="895" type="line"/>
      <point x="478" y="106" type="line"/>
      <point x="435" y="-36"/>
      <point x="406" y="-154"/>
      <point x="406" y="-154" type="curve"/>
      <point x="406" y="-154"/>
      <point x="366" y="-38"/>
      <point x="316" y="99" type="curve" smooth="yes"/>
      <point x="202" y="411" type="line"/>
      <point x="45" y="411" type="line"/>
      <point x="34" y="355" type="line"/>
      <point x="155" y="355" type="line"/>
      <point x="359" y="-200" type="line"/>
    </contour>
  </outline>
</glyph>
<glyph name="uni24AD" format="1">
  <advance width="993"/>
  <unicode hex="24AD"/>
  <outline>
    <contour>
      <point x="750" y="-213"/>
      <point x="756" y="-211"/>
      <point x="760" y="-207" type="curve" smooth="yes"/>
      <point x="839" y="-128"/>
      <point x="943" y="123"/>
      <point x="943" y="280" type="curve" smooth="yes"/>
      <point x="943" y="436"/>
      <point x="853" y="609"/>
      <point x="768" y="694" type="curve" smooth="yes"/>
      <point x="761" y="701"/>
      <point x="751" y="704"/>
      <point x="738" y="704" type="curve" smooth="yes"/>
      <point x="724" y="704"/>
      <point x="717" y="700"/>
      <point x="717" y="691" type="curve" smooth="yes"/>
      <point x="717" y="688"/>
      <point x="720" y="684"/>
      <point x="725" y="679" type="curve" smooth="yes"/>
      <point x="805" y="599"/>
      <point x="883" y="425"/>
      <point x="883" y="266" type="curve" smooth="yes"/>
      <point x="883" y="106"/>
      <point x="799" y="-105"/>
      <point x="723" y="-181" type="curve" smooth="yes"/>
      <point x="716" y="-188"/>
      <point x="713" y="-193"/>
      <point x="713" y="-196" type="curve" smooth="yes"/>
      <point x="713" y="-204"/>
      <point x="728" y="-213"/>
      <point x="743" y="-213" type="curve" smooth="yes"/>
    </contour>
    <contour>
      <point x="252" y="-214"/>
      <point x="264" y="-205"/>
      <point x="264" y="-192" type="curve" smooth="yes"/>
      <point x="264" y="-190"/>
      <point x="259" y="-184"/>
      <point x="248" y="-173" type="curve" smooth="yes"/>
      <point x="175" y="-100"/>
      <point x="100" y="117"/>
      <point x="100" y="278" type="curve" smooth="yes"/>
      <point x="100" y="439"/>
      <point x="171" y="589"/>
      <point x="252" y="670" type="curve" smooth="yes"/>
      <point x="261" y="679"/>
      <point x="265" y="685"/>
      <point x="265" y="689" type="curve" smooth="yes"/>
      <point x="265" y="697"/>
      <point x="253" y="705"/>
      <point x="238" y="705" type="curve" smooth="yes"/>
      <point x="231" y="705"/>
      <point x="223" y="701"/>
      <point x="216" y="694" type="curve" smooth="yes"/>
      <point x="132" y="610"/>
      <point x="40" y="425"/>
      <point x="40" y="268" type="curve" smooth="yes"/>
      <point x="40" y="111"/>
      <point x="141" y="-128"/>
      <point x="220" y="-207" type="curve" smooth="yes"/>
      <point x="225" y="-212"/>
      <point x="231" y="-214"/>
      <point x="238" y="-214" type="curve" smooth="yes"/>
    </contour>
    <contour>
      <point x="445" y="2" type="line"/>
      <point x="532" y="-3" type="line"/>
      <point x="545" y="-3"/>
      <point x="552" y="0"/>
      <point x="552" y="7" type="curve" smooth="yes"/>
      <point x="552" y="13"/>
      <point x="544" y="19"/>
      <point x="529" y="24" type="curve" smooth="yes"/>
      <point x="494" y="35"/>
      <point x="476" y="49"/>
      <point x="475" y="67" type="curve"/>
      <point x="475" y="264" type="line" smooth="yes"/>
      <point x="475" y="325"/>
      <point x="506" y="348"/>
      <point x="545" y="348" type="curve" smooth="yes"/>
      <point x="552" y="348"/>
      <point x="562" y="345"/>
      <point x="576" y="339" type="curve" smooth="yes"/>
      <point x="590" y="333"/>
      <point x="601" y="330"/>
      <point x="608" y="330" type="curve" smooth="yes"/>
      <point x="623" y="330"/>
      <point x="644" y="361"/>
      <point x="644" y="381" type="curve" smooth="yes"/>
      <point x="644" y="401"/>
      <point x="624" y="414"/>
      <point x="596" y="414" type="curve" smooth="yes"/>
      <point x="567" y="414"/>
      <point x="536" y="400"/>
      <point x="504" y="371" type="curve"/>
      <point x="501" y="369"/>
      <point x="495" y="362"/>
      <point x="486" y="351" type="curve"/>
      <point x="483" y="348"/>
      <point x="482" y="346"/>
      <point x="481" y="346" type="curve" smooth="yes"/>
      <point x="480" y="346"/>
      <point x="480" y="354"/>
      <point x="481" y="371" type="curve" smooth="yes"/>
      <point x="482" y="388"/>
      <point x="482" y="405"/>
      <point x="482" y="423" type="curve"/>
      <point x="481" y="428"/>
      <point x="479" y="430"/>
      <point x="478" y="430" type="curve" smooth="yes"/>
      <point x="476" y="430"/>
      <point x="475" y="430"/>
      <point x="475" y="430" type="curve"/>
      <point x="475" y="429"/>
      <point x="471" y="427"/>
      <point x="464" y="423" type="curve"/>
      <point x="457" y="418"/>
      <point x="442" y="409"/>
      <point x="419" y="394" type="curve" smooth="yes"/>
      <point x="407" y="386"/>
      <point x="388" y="379"/>
      <point x="363" y="374" type="curve" smooth="yes"/>
      <point x="358" y="373"/>
      <point x="356" y="369"/>
      <point x="356" y="362" type="curve" smooth="yes"/>
      <point x="356" y="355"/>
      <point x="359" y="350"/>
      <point x="364" y="349" type="curve" smooth="yes"/>
      <point x="391" y="343"/>
      <point x="405" y="319"/>
      <point x="405" y="277" type="curve" smooth="yes"/>
      <point x="405" y="62" type="line" smooth="yes"/>
      <point x="405" y="53"/>
      <point x="403" y="46"/>
      <point x="399" y="41" type="curve" smooth="yes"/>
      <point x="390" y="30"/>
      <point x="386" y="30"/>
      <point x="362" y="22" type="curve" smooth="yes"/>
      <point x="350" y="18"/>
      <point x="344" y="13"/>
      <point x="344" y="7" type="curve" smooth="yes"/>
      <point x="344" y="0"/>
      <point x="351" y="-3"/>
      <point x="364" y="-3" type="curve"/>
    </contour>
  </outline>
</glyph>
<glyph name="uni24B2" format="1">
  <advance width="1318"/>
  <unicode hex="24B2"/>
  <outline>
    <contour>
      <point x="544" y="-23"/>
      <point x="546" y="-21"/>
      <point x="549" y="-16" type="curve"/>
      <point x="658" y="241" type="line" smooth="yes"/>
      <point x="663" y="252"/>
      <point x="667" y="252"/>
      <point x="671" y="242" type="curve" smooth="yes"/>
      <point x="775" y="-16" type="line"/>
      <point x="778" y="-21"/>
      <point x="781" y="-23"/>
      <point x="784" y="-23" type="curve" smooth="yes"/>
      <point x="787" y="-23"/>
      <point x="790" y="-21"/>
      <point x="792" y="-16" type="curve" smooth="yes"/>
      <point x="929" y="312" type="line" smooth="yes"/>
      <point x="946" y="351"/>
      <point x="963" y="373"/>
      <point x="982" y="378" type="curve"/>
      <point x="997" y="383"/>
      <point x="1005" y="389"/>
      <point x="1005" y="396" type="curve" smooth="yes"/>
      <point x="1005" y="402"/>
      <point x="998" y="405"/>
      <point x="985" y="405" type="curve"/>
      <point x="927" y="400" type="line"/>
      <point x="852" y="405" type="line"/>
      <point x="839" y="405"/>
      <point x="832" y="402"/>
      <point x="832" y="396" type="curve" smooth="yes"/>
      <point x="832" y="389"/>
      <point x="838" y="384"/>
      <point x="850" y="380" type="curve" smooth="yes"/>
      <point x="874" y="372"/>
      <point x="890" y="352"/>
      <point x="890" y="328" type="curve" smooth="yes"/>
      <point x="890" y="316"/>
      <point x="888" y="305"/>
      <point x="883" y="295" type="curve"/>
      <point x="807" y="118" type="line" smooth="yes"/>
      <point x="802" y="106"/>
      <point x="796" y="106"/>
      <point x="791" y="119" type="curve" smooth="yes"/>
      <point x="716" y="312" type="line"/>
      <point x="711" y="323"/>
      <point x="709" y="333"/>
      <point x="709" y="342" type="curve" smooth="yes"/>
      <point x="709" y="359"/>
      <point x="720" y="371"/>
      <point x="743" y="378" type="curve" smooth="yes"/>
      <point x="758" y="383"/>
      <point x="766" y="389"/>
      <point x="766" y="396" type="curve" smooth="yes"/>
      <point x="766" y="402"/>
      <point x="759" y="405"/>
      <point x="746" y="405" type="curve"/>
      <point x="662" y="400" type="line"/>
      <point x="587" y="405" type="line"/>
      <point x="574" y="405"/>
      <point x="567" y="402"/>
      <point x="567" y="396" type="curve" smooth="yes"/>
      <point x="567" y="388"/>
      <point x="574" y="382"/>
      <point x="588" y="379" type="curve"/>
      <point x="615" y="371"/>
      <point x="640" y="341"/>
      <point x="640" y="314" type="curve" smooth="yes"/>
      <point x="640" y="301"/>
      <point x="638" y="289"/>
      <point x="634" y="278" type="curve"/>
      <point x="568" y="117" type="line" smooth="yes"/>
      <point x="563" y="104"/>
      <point x="558" y="103"/>
      <point x="553" y="116" type="curve" smooth="yes"/>
      <point x="477" y="312" type="line"/>
      <point x="474" y="321"/>
      <point x="472" y="329"/>
      <point x="472" y="338" type="curve" smooth="yes"/>
      <point x="472" y="361"/>
      <point x="479" y="374"/>
      <point x="493" y="378" type="curve"/>
      <point x="508" y="383"/>
      <point x="516" y="389"/>
      <point x="516" y="396" type="curve" smooth="yes"/>
      <point x="516" y="402"/>
      <point x="512" y="405"/>
      <point x="503" y="405" type="curve" smooth="yes"/>
      <point x="494" y="405"/>
      <point x="464" y="403"/>
      <point x="413" y="400" type="curve"/>
      <point x="340" y="405" type="line"/>
      <point x="327" y="405"/>
      <point x="320" y="402"/>
      <point x="320" y="396" type="curve" smooth="yes"/>
      <point x="320" y="389"/>
      <point x="328" y="383"/>
      <point x="343" y="378" type="curve"/>
      <point x="368" y="371"/>
      <point x="385" y="354"/>
      <point x="395" y="329" type="curve" smooth="yes"/>
      <point x="534" y="-16" type="line"/>
      <point x="535" y="-21"/>
      <point x="538" y="-23"/>
      <point x="541" y="-23" type="curve" smooth="yes"/>
    </contour>
    <contour>
      <point x="252" y="-214"/>
      <point x="264" y="-205"/>
      <point x="264" y="-192" type="curve" smooth="yes"/>
      <point x="264" y="-190"/>
      <point x="259" y="-184"/>
      <point x="248" y="-173" type="curve" smooth="yes"/>
      <point x="175" y="-100"/>
      <point x="100" y="117"/>
      <point x="100" y="278" type="curve" smooth="yes"/>
      <point x="100" y="439"/>
      <point x="171" y="589"/>
      <point x="252" y="670" type="curve" smooth="yes"/>
      <point x="261" y="679"/>
      <point x="265" y="685"/>
      <point x="265" y="689" type="curve" smooth="yes"/>
      <point x="265" y="697"/>
      <point x="253" y="705"/>
      <point x="238" y="705" type="curve" smooth="yes"/>
      <point x="231" y="705"/>
      <point x="223" y="701"/>
      <point x="216" y="694" type="curve" smooth="yes"/>
      <point x="132" y="610"/>
      <point x="40" y="425"/>
      <point x="40" y="268" type="curve" smooth="yes"/>
      <point x="40" y="111"/>
      <point x="141" y="-128"/>
      <point x="220" y="-207" type="curve" smooth="yes"/>
      <point x="225" y="-212"/>
      <point x="231" y="-214"/>
      <point x="238" y="-214" type="curve" smooth="yes"/>
    </contour>
    <contour>
      <point x="1075" y="-213"/>
      <point x="1081" y="-211"/>
      <point x="1085" y="-207" type="curve" smooth="yes"/>
      <point x="1164" y="-128"/>
      <point x="1268" y="123"/>
      <point x="1268" y="280" type="curve" smooth="yes"/>
      <point x="1268" y="436"/>
      <point x="1178" y="609"/>
      <point x="1093" y="694" type="curve" smooth="yes"/>
      <point x="1086" y="701"/>
      <point x="1076" y="704"/>
      <point x="1063" y="704" type="curve" smooth="yes"/>
      <point x="1049" y="704"/>
      <point x="1042" y="700"/>
      <point x="1042" y="691" type="curve" smooth="yes"/>
      <point x="1042" y="688"/>
      <point x="1045" y="684"/>
      <point x="1050" y="679" type="curve" smooth="yes"/>
      <point x="1130" y="599"/>
      <point x="1208" y="425"/>
      <point x="1208" y="266" type="curve" smooth="yes"/>
      <point x="1208" y="106"/>
      <point x="1124" y="-105"/>
      <point x="1048" y="-181" type="curve" smooth="yes"/>
      <point x="1041" y="-188"/>
      <point x="1038" y="-193"/>
      <point x="1038" y="-196" type="curve" smooth="yes"/>
      <point x="1038" y="-204"/>
      <point x="1053" y="-213"/>
      <point x="1068" y="-213" type="curve" smooth="yes"/>
    </contour>
  </outline>
</glyph>
<glyph name="uni24B3" format="1">
  <advance width="1050"/>
  <unicode hex="24B3"/>
  <outline>
    <contour>
      <point x="807" y="-213"/>
      <point x="813" y="-211"/>
      <point x="817" y="-207" type="curve" smooth="yes"/>
      <point x="896" y="-128"/>
      <point x="1000" y="123"/>
      <point x="1000" y="280" type="curve" smooth="yes"/>
      <point x="1000" y="436"/>
      <point x="910" y="609"/>
      <point x="825" y="694" type="curve" smooth="yes"/>
      <point x="818" y="701"/>
      <point x="808" y="704"/>
      <point x="795" y="704" type="curve" smooth="yes"/>
      <point x="781" y="704"/>
      <point x="774" y="700"/>
      <point x="774" y="691" type="curve" smooth="yes"/>
      <point x="774" y="688"/>
      <point x="777" y="684"/>
      <point x="782" y="679" type="curve" smooth="yes"/>
      <point x="862" y="599"/>
      <point x="940" y="425"/>
      <point x="940" y="266" type="curve" smooth="yes"/>
      <point x="940" y="106"/>
      <point x="856" y="-105"/>
      <point x="780" y="-181" type="curve" smooth="yes"/>
      <point x="773" y="-188"/>
      <point x="770" y="-193"/>
      <point x="770" y="-196" type="curve" smooth="yes"/>
      <point x="770" y="-204"/>
      <point x="785" y="-213"/>
      <point x="800" y="-213" type="curve" smooth="yes"/>
    </contour>
    <contour>
      <point x="252" y="-214"/>
      <point x="264" y="-205"/>
      <point x="264" y="-192" type="curve" smooth="yes"/>
      <point x="264" y="-190"/>
      <point x="259" y="-184"/>
      <point x="248" y="-173" type="curve" smooth="yes"/>
      <point x="175" y="-100"/>
      <point x="100" y="117"/>
      <point x="100" y="278" type="curve" smooth="yes"/>
      <point x="100" y="439"/>
      <point x="171" y="589"/>
      <point x="252" y="670" type="curve" smooth="yes"/>
      <point x="261" y="679"/>
      <point x="265" y="685"/>
      <point x="265" y="689" type="curve" smooth="yes"/>
      <point x="265" y="697"/>
      <point x="253" y="705"/>
      <point x="238" y="705" type="curve" smooth="yes"/>
      <point x="231" y="705"/>
      <point x="223" y="701"/>
      <point x="216" y="694" type="curve" smooth="yes"/>
      <point x="132" y="610"/>
      <point x="40" y="425"/>
      <point x="40" y="268" type="curve" smooth="yes"/>
      <point x="40" y="111"/>
      <point x="141" y="-128"/>
      <point x="220" y="-207" type="curve" smooth="yes"/>
      <point x="225" y="-212"/>
      <point x="231" y="-214"/>
      <point x="238" y="-214" type="curve" smooth="yes"/>
    </contour>
    <contour>
      <point x="412" y="1" type="line"/>
      <point x="465" y="-1" type="line"/>
      <point x="480" y="-1"/>
      <point x="488" y="2"/>
      <point x="488" y="9" type="curve" smooth="yes"/>
      <point x="488" y="15"/>
      <point x="480" y="21"/>
      <point x="465" y="26" type="curve" smooth="yes"/>
      <point x="456" y="29"/>
      <point x="451" y="35"/>
      <point x="451" y="45" type="curve" smooth="yes"/>
      <point x="451" y="54"/>
      <point x="453" y="62"/>
      <point x="456" y="67" type="curve"/>
      <point x="523" y="165" type="line" smooth="yes"/>
      <point x="525" y="168"/>
      <point x="528" y="167"/>
      <point x="531" y="162" type="curve" smooth="yes"/>
      <point x="585" y="70" type="line" smooth="yes"/>
      <point x="589" y="63"/>
      <point x="591" y="57"/>
      <point x="591" y="52" type="curve" smooth="yes"/>
      <point x="591" y="43"/>
      <point x="582" y="35"/>
      <point x="563" y="29" type="curve" smooth="yes"/>
      <point x="544" y="23"/>
      <point x="535" y="16"/>
      <point x="535" y="8" type="curve" smooth="yes"/>
      <point x="535" y="2"/>
      <point x="543" y="-1"/>
      <point x="558" y="-1" type="curve" smooth="yes"/>
      <point x="631" y="0" type="line"/>
      <point x="715" y="-4" type="line"/>
      <point x="728" y="-4"/>
      <point x="735" y="-1"/>
      <point x="735" y="5" type="curve" smooth="yes"/>
      <point x="735" y="13"/>
      <point x="727" y="19"/>
      <point x="711" y="24" type="curve"/>
      <point x="695" y="28"/>
      <point x="680" y="42"/>
      <point x="666" y="65" type="curve" smooth="yes"/>
      <point x="569" y="226" type="line" smooth="yes"/>
      <point x="566" y="231"/>
      <point x="565" y="235"/>
      <point x="568" y="239" type="curve" smooth="yes"/>
      <point x="633" y="331" type="line" smooth="yes"/>
      <point x="648" y="353"/>
      <point x="672" y="369"/>
      <point x="704" y="378" type="curve"/>
      <point x="719" y="383"/>
      <point x="727" y="389"/>
      <point x="727" y="396" type="curve" smooth="yes"/>
      <point x="727" y="402"/>
      <point x="723" y="405"/>
      <point x="714" y="405" type="curve" smooth="yes"/>
      <point x="705" y="405"/>
      <point x="695" y="404"/>
      <point x="683" y="403" type="curve"/>
      <point x="671" y="401"/>
      <point x="658" y="400"/>
      <point x="644" y="400" type="curve"/>
      <point x="594" y="403" type="line"/>
      <point x="579" y="403"/>
      <point x="571" y="400"/>
      <point x="571" y="394" type="curve" smooth="yes"/>
      <point x="571" y="387"/>
      <point x="577" y="382"/>
      <point x="589" y="378" type="curve" smooth="yes"/>
      <point x="601" y="374"/>
      <point x="607" y="368"/>
      <point x="607" y="361" type="curve" smooth="yes"/>
      <point x="607" y="353"/>
      <point x="604" y="345"/>
      <point x="599" y="338" type="curve"/>
      <point x="550" y="263" type="line" smooth="yes"/>
      <point x="548" y="260"/>
      <point x="545" y="262"/>
      <point x="542" y="268" type="curve"/>
      <point x="502" y="330" type="line" smooth="yes"/>
      <point x="493" y="344"/>
      <point x="489" y="355"/>
      <point x="489" y="362" type="curve" smooth="yes"/>
      <point x="489" y="369"/>
      <point x="496" y="374"/>
      <point x="509" y="379" type="curve"/>
      <point x="522" y="383"/>
      <point x="528" y="388"/>
      <point x="528" y="394" type="curve" smooth="yes"/>
      <point x="528" y="399"/>
      <point x="520" y="402"/>
      <point x="505" y="402" type="curve"/>
      <point x="454" y="400" type="line"/>
      <point x="375" y="404" type="line"/>
      <point x="360" y="404"/>
      <point x="352" y="401"/>
      <point x="352" y="395" type="curve" smooth="yes"/>
      <point x="352" y="387"/>
      <point x="360" y="381"/>
      <point x="376" y="377" type="curve"/>
      <point x="392" y="372"/>
      <point x="407" y="358"/>
      <point x="421" y="335" type="curve" smooth="yes"/>
      <point x="502" y="209" type="line" smooth="yes"/>
      <point x="507" y="201"/>
      <point x="506" y="193"/>
      <point x="500" y="186" type="curve" smooth="yes"/>
      <point x="415" y="80" type="line" smooth="yes"/>
      <point x="388" y="47"/>
      <point x="366" y="29"/>
      <point x="350" y="24" type="curve" smooth="yes"/>
      <point x="333" y="19"/>
      <point x="325" y="13"/>
      <point x="325" y="5" type="curve" smooth="yes"/>
      <point x="325" y="-1"/>
      <point x="332" y="-4"/>
      <point x="345" y="-4" type="curve"/>
    </contour>
  </outline>
</glyph>
<glyph name="Euro.tablining" format="1">
  <advance width="480"/>
  <outline>
    <contour>
      <point x="313" y="-15"/>
      <point x="339" y="-12"/>
      <point x="366" y="-6" type="curve" smooth="yes"/>
      <point x="465" y="14"/>
      <point x="463" y="74"/>
      <point x="463" y="109" type="curve" smooth="yes"/>
      <point x="463" y="126"/>
      <point x="459" y="135"/>
      <point x="452" y="135" type="curve" smooth="yes"/>
      <point x="445" y="135"/>
      <point x="433" y="119"/>
      <point x="428" y="106" type="curve"/>
      <point x="407" y="59"/>
      <point x="366" y="20"/>
      <point x="306" y="20" type="curve" smooth="yes"/>
      <point x="275" y="20"/>
      <point x="248" y="31"/>
      <point x="224" y="54" type="curve" smooth="yes"/>
      <point x="176" y="98"/>
      <point x="158" y="160"/>
      <point x="149" y="243" type="curve"/>
      <point x="317" y="241" type="line" smooth="yes"/>
      <point x="331" y="241"/>
      <point x="341" y="250"/>
      <point x="348" y="269" type="curve"/>
      <point x="351" y="276"/>
      <point x="343" y="283"/>
      <point x="335" y="283" type="curve" smooth="yes"/>
      <point x="146" y="280" type="line"/>
      <point x="145" y="290"/>
      <point x="145" y="303"/>
      <point x="145" y="320" type="curve" smooth="yes"/>
      <point x="145" y="336"/>
      <point x="145" y="347"/>
      <point x="146" y="353" type="curve"/>
      <point x="335" y="351" type="line" smooth="yes"/>
      <point x="349" y="351"/>
      <point x="359" y="360"/>
      <point x="366" y="379" type="curve"/>
      <point x="369" y="386"/>
      <point x="361" y="393"/>
      <point x="353" y="393" type="curve" smooth="yes"/>
      <point x="149" y="391" type="line"/>
      <point x="165" y="510"/>
      <point x="220" y="598"/>
      <point x="317" y="598" type="curve" smooth="yes"/>
      <point x="376" y="598"/>
      <point x="405" y="568"/>
      <point x="429" y="500" type="curve" smooth="yes"/>
      <point x="434" y="485"/>
      <point x="441" y="478"/>
      <point x="450" y="478" type="curve" smooth="yes"/>
      <point x="459" y="478"/>
      <point x="463" y="486"/>
      <point x="463" y="501" type="curve" smooth="yes"/>
      <point x="463" y="541"/>
      <point x="461" y="569"/>
      <point x="458" y="584" type="curve"/>
      <point x="454" y="599"/>
      <point x="450" y="606"/>
      <point x="446" y="606" type="curve"/>
      <point x="402" y="618" type="line" smooth="yes"/>
      <point x="373" y="626"/>
      <point x="348" y="630"/>
      <point x="329" y="630" type="curve" smooth="yes"/>
      <point x="192" y="630"/>
      <point x="96" y="529"/>
      <point x="68" y="390" type="curve"/>
      <point x="46" y="390" type="line" smooth="yes"/>
      <point x="33" y="390"/>
      <point x="22" y="376"/>
      <point x="22" y="368" type="curve" smooth="yes"/>
      <point x="22" y="360"/>
      <point x="29" y="354"/>
      <point x="36" y="354" type="curve" smooth="yes"/>
      <point x="62" y="354" type="line"/>
      <point x="61" y="345"/>
      <point x="60" y="332"/>
      <point x="60" y="315" type="curve" smooth="yes"/>
      <point x="60" y="298"/>
      <point x="60" y="286"/>
      <point x="61" y="279" type="curve"/>
      <point x="28" y="278" type="line" smooth="yes"/>
      <point x="15" y="278"/>
      <point x="4" y="265"/>
      <point x="4" y="258" type="curve" smooth="yes"/>
      <point x="4" y="250"/>
      <point x="11" y="244"/>
      <point x="18" y="244" type="curve" smooth="yes"/>
      <point x="64" y="244" type="line"/>
      <point x="84" y="99"/>
      <point x="163" y="-15"/>
      <point x="288" y="-15" type="curve" smooth="yes"/>
    </contour>
  </outline>
</glyph>
<glyph name="arch" format="1">
  <advance width="702"/>
  <outline>
    <contour>
      <point x="110" y="209" type="line"/>
      <point x="110" y="319"/>
      <point x="216" y="446"/>
      <point x="351" y="446" type="curve"/>
      <point x="486" y="446"/>
      <point x="592" y="319"/>
      <point x="592" y="209" type="curve"/>
      <point x="621" y="149" type="line"/>
      <point x="645" y="177" type="line"/>
      <point x="645" y="354"/>
      <point x="489" y="476"/>
      <point x="351" y="476" type="curve"/>
      <point x="213" y="476"/>
      <point x="57" y="354"/>
      <point x="57" y="177" type="curve"/>
      <point x="80" y="149" type="line"/>
    </contour>
  </outline>
</glyph>
<glyph name="asciicircum.ordn" format="1">
  <advance width="325"/>
  <outline>
    <contour>
      <point x="38" y="450" type="line"/>
      <point x="48" y="453"/>
      <point x="56" y="456"/>
      <point x="62" y="461" type="curve"/>
      <point x="70" y="469"/>
      <point x="93" y="499"/>
      <point x="130" y="550" type="curve" smooth="yes"/>
      <point x="145" y="570"/>
      <point x="155" y="582"/>
      <point x="158" y="586" type="curve" smooth="yes"/>
      <point x="161" y="590"/>
      <point x="163" y="591"/>
      <point x="165" y="588" type="curve" smooth="yes"/>
      <point x="174" y="575"/>
      <point x="197" y="544"/>
      <point x="234" y="496" type="curve" smooth="yes"/>
      <point x="259" y="463"/>
      <point x="264" y="455"/>
      <point x="287" y="450" type="curve"/>
      <point x="288" y="450" type="line" smooth="yes"/>
      <point x="293" y="450"/>
      <point x="295" y="452"/>
      <point x="295" y="457" type="curve" smooth="yes"/>
      <point x="295" y="459"/>
      <point x="294" y="461"/>
      <point x="292" y="463" type="curve"/>
      <point x="265" y="506"/>
      <point x="221" y="565"/>
      <point x="162" y="642" type="curve"/>
      <point x="75" y="525"/>
      <point x="31" y="464"/>
      <point x="31" y="457" type="curve" smooth="yes"/>
      <point x="31" y="452"/>
      <point x="33" y="450"/>
      <point x="37" y="450" type="curve" smooth="yes"/>
    </contour>
  </outline>
</glyph>
<glyph name="brokenbar.subs" format="1">
  <advance width="260"/>
  <outline>
    <contour>
      <point x="129" y="-180"/>
      <point x="160" y="-173"/>
      <point x="160" y="-156" type="curve" smooth="yes"/>
      <point x="160" y="197" type="line" smooth="yes"/>
      <point x="160" y="208"/>
      <point x="153" y="219"/>
      <point x="145" y="219" type="curve" smooth="yes"/>
      <point x="137" y="219"/>
      <point x="100" y="205"/>
      <point x="100" y="196" type="curve" smooth="yes"/>
      <point x="100" y="-166" type="line" smooth="yes"/>
      <point x="100" y="-173"/>
      <point x="105" y="-180"/>
      <point x="117" y="-180" type="curve" smooth="yes"/>
    </contour>
    <contour>
      <point x="123" y="306"/>
      <point x="160" y="318"/>
      <point x="160" y="327" type="curve" smooth="yes"/>
      <point x="160" y="652" type="line" smooth="yes"/>
      <point x="160" y="659"/>
      <point x="154" y="665"/>
      <point x="144" y="665" type="curve" smooth="yes"/>
      <point x="134" y="665"/>
      <point x="100" y="653"/>
      <point x="100" y="634" type="curve" smooth="yes"/>
      <point x="100" y="329" type="line" smooth="yes"/>
      <point x="100" y="318"/>
      <point x="106" y="306"/>
      <point x="115" y="306" type="curve" smooth="yes"/>
    </contour>
  </outline>
</glyph>
<glyph name="eye" format="1">
  <advance width="632"/>
  <outline>
    <contour>
      <point x="85" y="292" type="line"/>
      <point x="85" y="392"/>
      <point x="131" y="457"/>
      <point x="198" y="457" type="curve" smooth="yes"/>
      <point x="246" y="457"/>
      <point x="270" y="438"/>
      <point x="270" y="399" type="curve" smooth="yes"/>
      <point x="270" y="373"/>
      <point x="252" y="352"/>
      <point x="215" y="352" type="curve" smooth="yes"/>
      <point x="183" y="352"/>
      <point x="155" y="370"/>
      <point x="155" y="416" type="curve" smooth="yes"/>
      <point x="155" y="439"/>
      <point x="160" y="463"/>
      <point x="170" y="475" type="curve"/>
      <point x="146" y="480" type="line"/>
      <point x="133" y="458"/>
      <point x="125" y="425"/>
      <point x="125" y="389" type="curve" smooth="yes"/>
      <point x="125" y="316"/>
      <point x="167" y="281"/>
      <point x="215" y="281" type="curve" smooth="yes"/>
      <point x="268" y="281"/>
      <point x="300" y="333"/>
      <point x="300" y="399" type="curve" smooth="yes"/>
      <point x="300" y="465"/>
      <point x="273" y="517"/>
      <point x="203" y="517" type="curve" smooth="yes"/>
      <point x="117" y="517"/>
      <point x="38" y="412"/>
      <point x="38" y="281" type="curve"/>
      <point x="55" y="266" type="line"/>
    </contour>
  </outline>
</glyph>
<glyph name="kaNYU" format="1">
  <advance width="909"/>
  <outline>
    <contour>
      <point x="616" y="-97"/>
      <point x="627" y="-85"/>
      <point x="627" y="-61" type="curve" smooth="yes"/>
      <point x="627" y="60"/>
      <point x="531" y="223"/>
      <point x="353" y="223" type="curve" smooth="yes"/>
      <point x="256" y="223"/>
      <point x="196" y="180"/>
      <point x="196" y="117" type="curve" smooth="yes"/>
      <point x="196" y="40"/>
      <point x="271" y="-14"/>
      <point x="382" y="-14" type="curve" smooth="yes"/>
      <point x="507" y="-14"/>
      <point x="630" y="78"/>
      <point x="630" y="294" type="curve"/>
      <point x="630" y="430"/>
      <point x="560" y="519"/>
      <point x="469" y="519" type="curve" smooth="yes"/>
      <point x="398" y="519"/>
      <point x="330" y="461"/>
      <point x="307" y="377" type="curve"/>
      <point x="305" y="377" type="line"/>
      <point x="282" y="461"/>
      <point x="214" y="519"/>
      <point x="145" y="519" type="curve" smooth="yes"/>
      <point x="55" y="519"/>
      <point x="10" y="456"/>
      <point x="10" y="387" type="curve" smooth="yes"/>
      <point x="10" y="352"/>
      <point x="19" y="323"/>
      <point x="40" y="296" type="curve"/>
      <point x="71" y="317" type="line"/>
      <point x="64" y="325"/>
      <point x="58" y="340"/>
      <point x="58" y="367" type="curve" smooth="yes"/>
      <point x="58" y="392"/>
      <point x="74" y="444"/>
      <point x="148" y="444" type="curve" smooth="yes"/>
      <point x="232" y="444"/>
      <point x="288" y="358"/>
      <point x="302" y="283" type="curve"/>
      <point x="310" y="283" type="line"/>
      <point x="324" y="358"/>
      <point x="380" y="444"/>
      <point x="464" y="444" type="curve" smooth="yes"/>
      <point x="537" y="444"/>
      <point x="592" y="392"/>
      <point x="592" y="295" type="curve"/>
      <point x="592" y="129"/>
      <point x="496" y="71"/>
      <point x="375" y="71" type="curve"/>
      <point x="280" y="71"/>
      <point x="249" y="96"/>
      <point x="249" y="127" type="curve" smooth="yes"/>
      <point x="249" y="153"/>
      <point x="280" y="184"/>
      <point x="352" y="184" type="curve" smooth="yes"/>
      <point x="497" y="184"/>
      <point x="579" y="48"/>
      <point x="579" y="-70" type="curve" smooth="yes"/>
      <point x="579" y="-85"/>
      <point x="590" y="-97"/>
      <point x="603" y="-97" type="curve" smooth="yes"/>
    </contour>
    <contour>
      <point x="625" y="367"/>
      <point x="680" y="444"/>
      <point x="761" y="444" type="curve" smooth="yes"/>
      <point x="835" y="444"/>
      <point x="851" y="392"/>
      <point x="851" y="367" type="curve" smooth="yes"/>
      <point x="851" y="340"/>
      <point x="845" y="325"/>
      <point x="838" y="317" type="curve"/>
      <point x="869" y="296" type="line"/>
      <point x="890" y="323"/>
      <point x="899" y="352"/>
      <point x="899" y="387" type="curve" smooth="yes"/>
      <point x="899" y="456"/>
      <point x="854" y="519"/>
      <point x="775" y="519" type="curve" smooth="yes"/>
      <point x="689" y="519"/>
      <point x="617" y="441"/>
      <point x="614" y="347" type="curve"/>
      <point x="624" y="293" type="line"/>
    </contour>
  </outline>
</glyph>
<glyph name="knBE" format="1">
  <advance width="712"/>
  <outline>
    <contour>
      <point x="261" y="-12"/>
      <point x="329" y="45"/>
      <point x="352" y="128" type="curve"/>
      <point x="354" y="128" type="line"/>
      <point x="377" y="45"/>
      <point x="445" y="-12"/>
      <point x="516" y="-12" type="curve" smooth="yes"/>
      <point x="619" y="-12"/>
      <point x="669" y="97"/>
      <point x="669" y="224" type="curve" smooth="yes"/>
      <point x="669" y="397"/>
      <point x="574" y="513"/>
      <point x="503" y="513" type="curve" smooth="yes"/>
      <point x="472" y="513"/>
      <point x="455" y="493"/>
      <point x="455" y="470" type="curve" smooth="yes"/>
      <point x="455" y="451"/>
      <point x="467" y="435"/>
      <point x="483" y="430" type="curve" smooth="yes"/>
      <point x="506" y="423"/>
      <point x="527" y="428"/>
      <point x="551" y="420" type="curve" smooth="yes"/>
      <point x="588" y="407"/>
      <point x="634" y="326"/>
      <point x="634" y="237" type="curve" smooth="yes"/>
      <point x="634" y="131"/>
      <point x="581" y="73"/>
      <point x="509" y="73" type="curve" smooth="yes"/>
      <point x="436" y="73"/>
      <point x="370" y="148"/>
      <point x="357" y="223" type="curve"/>
      <point x="348" y="223" type="line"/>
      <point x="334" y="147"/>
      <point x="269" y="73"/>
      <point x="196" y="73" type="curve" smooth="yes"/>
      <point x="143" y="73"/>
      <point x="116" y="116"/>
      <point x="116" y="158" type="curve" smooth="yes"/>
      <point x="116" y="189"/>
      <point x="141" y="225"/>
      <point x="174" y="259" type="curve" smooth="yes"/>
      <point x="214" y="300"/>
      <point x="263" y="351"/>
      <point x="263" y="401" type="curve" smooth="yes"/>
      <point x="263" y="467"/>
      <point x="215" y="521"/>
      <point x="139" y="521" type="curve" smooth="yes"/>
      <point x="64" y="521"/>
      <point x="25" y="467"/>
      <point x="25" y="415" type="curve" smooth="yes"/>
      <point x="25" y="383"/>
      <point x="33" y="354"/>
      <point x="54" y="332" type="curve"/>
      <point x="74" y="347" type="line"/>
      <point x="67" y="362"/>
      <point x="64" y="374"/>
      <point x="64" y="385" type="curve" smooth="yes"/>
      <point x="64" y="423"/>
      <point x="87" y="454"/>
      <point x="139" y="454" type="curve" smooth="yes"/>
      <point x="176" y="454"/>
      <point x="210" y="429"/>
      <point x="210" y="387" type="curve" smooth="yes"/>
      <point x="210" y="346"/>
      <point x="179" y="313"/>
      <point x="147" y="280" type="curve" smooth="yes"/>
      <point x="108" y="240"/>
      <point x="65" y="195"/>
      <point x="65" y="127" type="curve" smooth="yes"/>
      <point x="65" y="40"/>
      <point x="126" y="-12"/>
      <point x="193" y="-12" type="curve" smooth="yes"/>
    </contour>
    <contour>
      <point x="618" y="434"/>
      <point x="672" y="480"/>
      <point x="672" y="553" type="curve" smooth="yes"/>
      <point x="672" y="651"/>
      <point x="594" y="685"/>
      <point x="537" y="685" type="curve" smooth="yes"/>
      <point x="482" y="685"/>
      <point x="454" y="657"/>
      <point x="454" y="625" type="curve" smooth="yes"/>
      <point x="454" y="592"/>
      <point x="477" y="571"/>
      <point x="511" y="571" type="curve" smooth="yes"/>
      <point x="545" y="571"/>
      <point x="566" y="597"/>
      <point x="566" y="633" type="curve" smooth="yes"/>
      <point x="566" y="639"/>
      <point x="568" y="643"/>
      <point x="572" y="643" type="curve" smooth="yes"/>
      <point x="585" y="643"/>
      <point x="629" y="629"/>
      <point x="629" y="577" type="curve"/>
      <point x="629" y="530"/>
      <point x="589" y="509"/>
      <point x="538" y="509" type="curve"/>
      <point x="537" y="434" type="line"/>
    </contour>
  </outline>
</glyph>
<glyph name="knBHAA" format="1">
  <advance width="1164"/>
  <outline>
    <contour>
      <point x="259" y="-14"/>
      <point x="327" y="43"/>
      <point x="350" y="126" type="curve"/>
      <point x="352" y="126" type="line"/>
      <point x="375" y="43"/>
      <point x="443" y="-14"/>
      <point x="514" y="-14" type="curve" smooth="yes"/>
      <point x="616" y="-14"/>
      <point x="670" y="84"/>
      <point x="670" y="171" type="curve" smooth="yes"/>
      <point x="670" y="360"/>
      <point x="527" y="470"/>
      <point x="391" y="470" type="curve"/>
      <point x="381" y="434" type="line"/>
      <point x="533" y="424"/>
      <point x="632" y="301"/>
      <point x="632" y="203" type="curve" smooth="yes"/>
      <point x="632" y="121"/>
      <point x="583" y="71"/>
      <point x="507" y="71" type="curve" smooth="yes"/>
      <point x="434" y="71"/>
      <point x="368" y="146"/>
      <point x="355" y="221" type="curve"/>
      <point x="346" y="221" type="line"/>
      <point x="332" y="145"/>
      <point x="267" y="71"/>
      <point x="194" y="71" type="curve" smooth="yes"/>
      <point x="141" y="71"/>
      <point x="114" y="114"/>
      <point x="114" y="156" type="curve" smooth="yes"/>
      <point x="114" y="187"/>
      <point x="139" y="223"/>
      <point x="172" y="257" type="curve" smooth="yes"/>
      <point x="212" y="298"/>
      <point x="261" y="349"/>
      <point x="261" y="399" type="curve" smooth="yes"/>
      <point x="261" y="465"/>
      <point x="213" y="519"/>
      <point x="137" y="519" type="curve" smooth="yes"/>
      <point x="62" y="519"/>
      <point x="23" y="465"/>
      <point x="23" y="413" type="curve" smooth="yes"/>
      <point x="23" y="381"/>
      <point x="31" y="352"/>
      <point x="52" y="330" type="curve"/>
      <point x="72" y="345" type="line"/>
      <point x="65" y="360"/>
      <point x="62" y="372"/>
      <point x="62" y="383" type="curve" smooth="yes"/>
      <point x="62" y="421"/>
      <point x="85" y="452"/>
      <point x="137" y="452" type="curve" smooth="yes"/>
      <point x="174" y="452"/>
      <point x="208" y="427"/>
      <point x="208" y="385" type="curve" smooth="yes"/>
      <point x="208" y="344"/>
      <point x="177" y="311"/>
      <point x="145" y="278" type="curve" smooth="yes"/>
      <point x="106" y="238"/>
      <point x="63" y="193"/>
      <point x="63" y="125" type="curve" smooth="yes"/>
      <point x="63" y="38"/>
      <point x="124" y="-14"/>
      <point x="191" y="-14" type="curve" smooth="yes"/>
    </contour>
    <contour>
      <point x="378" y="-220"/>
      <point x="403" y="-201"/>
      <point x="403" y="-161" type="curve" smooth="yes"/>
      <point x="403" y="-117"/>
      <point x="374" y="-104"/>
      <point x="360" y="16" type="curve"/>
      <point x="344" y="16" type="line"/>
      <point x="331" y="-104"/>
      <point x="300" y="-117"/>
      <point x="300" y="-161" type="curve" smooth="yes"/>
      <point x="300" y="-197"/>
      <point x="325" y="-220"/>
      <point x="352" y="-220" type="curve" smooth="yes"/>
    </contour>
    <contour>
      <point x="535" y="434" type="line"/>
      <point x="535" y="509" type="line"/>
      <point x="344" y="509" type="line"/>
      <point x="344" y="434" type="line"/>
    </contour>
    <contour>
      <point x="1030" y="-13"/>
      <point x="1104" y="93"/>
      <point x="1104" y="239" type="curve" smooth="yes"/>
      <point x="1104" y="390"/>
      <point x="1034" y="509"/>
      <point x="796" y="509" type="curve" smooth="yes"/>
      <point x="519" y="509" type="line"/>
      <point x="519" y="434" type="line"/>
      <point x="805" y="434" type="line" smooth="yes"/>
      <point x="999" y="434"/>
      <point x="1069" y="346"/>
      <point x="1069" y="236" type="curve" smooth="yes"/>
      <point x="1069" y="130"/>
      <point x="1007" y="69"/>
      <point x="917" y="69" type="curve" smooth="yes"/>
      <point x="844" y="69"/>
      <point x="800" y="112"/>
      <point x="799" y="170" type="curve" smooth="yes"/>
      <point x="798" y="212"/>
      <point x="820" y="238"/>
      <point x="832" y="238" type="curve" smooth="yes"/>
      <point x="837" y="238"/>
      <point x="839" y="234"/>
      <point x="838" y="228" type="curve"/>
      <point x="839" y="192"/>
      <point x="860" y="166"/>
      <point x="893" y="166" type="curve" smooth="yes"/>
      <point x="928" y="166"/>
      <point x="954" y="195"/>
      <point x="953" y="231" type="curve"/>
      <point x="954" y="263"/>
      <point x="929" y="300"/>
      <point x="874" y="300" type="curve" smooth="yes"/>
      <point x="802" y="300"/>
      <point x="762" y="236"/>
      <point x="761" y="158" type="curve" smooth="yes"/>
      <point x="762" y="59"/>
      <point x="822" y="-13"/>
      <point x="918" y="-13" type="curve" smooth="yes"/>
    </contour>
  </outline>
</glyph>
<glyph name="knBHAU" format="1">
  <advance width="1149"/>
  <outline>
    <contour>
      <point x="259" y="-14"/>
      <point x="327" y="43"/>
      <point x="350" y="126" type="curve"/>
      <point x="352" y="126" type="line"/>
      <point x="375" y="43"/>
      <point x="443" y="-14"/>
      <point x="514" y="-14" type="curve" smooth="yes"/>
      <point x="616" y="-14"/>
      <point x="670" y="84"/>
      <point x="670" y="171" type="curve" smooth="yes"/>
      <point x="670" y="360"/>
      <point x="527" y="470"/>
      <point x="391" y="470" type="curve"/>
      <point x="381" y="434" type="line"/>
      <point x="533" y="424"/>
      <point x="632" y="301"/>
      <point x="632" y="203" type="curve" smooth="yes"/>
      <point x="632" y="121"/>
      <point x="583" y="71"/>
      <point x="507" y="71" type="curve" smooth="yes"/>
      <point x="434" y="71"/>
      <point x="368" y="146"/>
      <point x="355" y="221" type="curve"/>
      <point x="346" y="221" type="line"/>
      <point x="332" y="145"/>
      <point x="267" y="71"/>
      <point x="194" y="71" type="curve" smooth="yes"/>
      <point x="141" y="71"/>
      <point x="114" y="114"/>
      <point x="114" y="156" type="curve" smooth="yes"/>
      <point x="114" y="187"/>
      <point x="139" y="223"/>
      <point x="172" y="257" type="curve" smooth="yes"/>
      <point x="212" y="298"/>
      <point x="261" y="349"/>
      <point x="261" y="399" type="curve" smooth="yes"/>
      <point x="261" y="465"/>
      <point x="213" y="519"/>
      <point x="137" y="519" type="curve" smooth="yes"/>
      <point x="62" y="519"/>
      <point x="23" y="465"/>
      <point x="23" y="413" type="curve" smooth="yes"/>
      <point x="23" y="381"/>
      <point x="31" y="352"/>
      <point x="52" y="330" type="curve"/>
      <point x="72" y="345" type="line"/>
      <point x="65" y="360"/>
      <point x="62" y="372"/>
      <point x="62" y="383" type="curve" smooth="yes"/>
      <point x="62" y="421"/>
      <point x="85" y="452"/>
      <point x="137" y="452" type="curve" smooth="yes"/>
      <point x="174" y="452"/>
      <point x="208" y="427"/>
      <point x="208" y="385" type="curve" smooth="yes"/>
      <point x="208" y="344"/>
      <point x="177" y="311"/>
      <point x="145" y="278" type="curve" smooth="yes"/>
      <point x="106" y="238"/>
      <point x="63" y="193"/>
      <point x="63" y="125" type="curve" smooth="yes"/>
      <point x="63" y="38"/>
      <point x="124" y="-14"/>
      <point x="191" y="-14" type="curve" smooth="yes"/>
    </contour>
    <contour>
      <point x="378" y="-220"/>
      <point x="403" y="-201"/>
      <point x="403" y="-161" type="curve" smooth="yes"/>
      <point x="403" y="-117"/>
      <point x="374" y="-104"/>
      <point x="360" y="16" type="curve"/>
      <point x="344" y="16" type="line"/>
      <point x="331" y="-104"/>
      <point x="300" y="-117"/>
      <point x="300" y="-161" type="curve" smooth="yes"/>
      <point x="300" y="-197"/>
      <point x="325" y="-220"/>
      <point x="352" y="-220" type="curve" smooth="yes"/>
    </contour>
    <contour>
      <point x="535" y="434" type="line"/>
      <point x="535" y="509" type="line"/>
      <point x="344" y="509" type="line"/>
      <point x="344" y="434" type="line"/>
    </contour>
    <component base="knmAU" xOffset="720"/>
  </outline>
</glyph>
<glyph name="knCAA" format="1">
  <advance width="1149"/>
  <outline>
    <contour>
      <point x="259" y="-14"/>
      <point x="327" y="43"/>
      <point x="350" y="126" type="curve"/>
      <point x="352" y="126" type="line"/>
      <point x="375" y="43"/>
      <point x="443" y="-14"/>
      <point x="511" y="-14" type="curve" smooth="yes"/>
      <point x="577" y="-14"/>
      <point x="638" y="38"/>
      <point x="638" y="125" type="curve" smooth="yes"/>
      <point x="638" y="195"/>
      <point x="592" y="311"/>
      <point x="508" y="327" type="curve"/>
      <point x="489" y="310" type="line"/>
      <point x="549" y="287"/>
      <point x="590" y="221"/>
      <point x="590" y="154" type="curve" smooth="yes"/>
      <point x="590" y="116"/>
      <point x="565" y="71"/>
      <point x="507" y="71" type="curve" smooth="yes"/>
      <point x="434" y="71"/>
      <point x="368" y="146"/>
      <point x="355" y="221" type="curve"/>
      <point x="346" y="221" type="line"/>
      <point x="332" y="145"/>
      <point x="267" y="71"/>
      <point x="194" y="71" type="curve" smooth="yes"/>
      <point x="141" y="71"/>
      <point x="114" y="114"/>
      <point x="114" y="156" type="curve" smooth="yes"/>
      <point x="114" y="187"/>
      <point x="139" y="223"/>
      <point x="172" y="257" type="curve" smooth="yes"/>
      <point x="212" y="298"/>
      <point x="261" y="349"/>
      <point x="261" y="399" type="curve" smooth="yes"/>
      <point x="261" y="465"/>
      <point x="213" y="519"/>
      <point x="137" y="519" type="curve" smooth="yes"/>
      <point x="62" y="519"/>
      <point x="23" y="465"/>
      <point x="23" y="413" type="curve" smooth="yes"/>
      <point x="23" y="381"/>
      <point x="31" y="352"/>
      <point x="52" y="330" type="curve"/>
      <point x="72" y="345" type="line"/>
      <point x="65" y="360"/>
      <point x="62" y="372"/>
      <point x="62" y="383" type="curve" smooth="yes"/>
      <point x="62" y="421"/>
      <point x="85" y="452"/>
      <point x="137" y="452" type="curve" smooth="yes"/>
      <point x="174" y="452"/>
      <point x="208" y="427"/>
      <point x="208" y="385" type="curve" smooth="yes"/>
      <point x="208" y="344"/>
      <point x="177" y="311"/>
      <point x="145" y="278" type="curve" smooth="yes"/>
      <point x="106" y="238"/>
      <point x="63" y="193"/>
      <point x="63" y="125" type="curve" smooth="yes"/>
      <point x="63" y="38"/>
      <point x="124" y="-14"/>
      <point x="191" y="-14" type="curve" smooth="yes"/>
    </contour>
    <contour>
      <point x="649" y="294" type="line"/>
      <point x="649" y="365" type="line"/>
      <point x="373" y="365" type="line"/>
      <point x="373" y="294" type="line"/>
    </contour>
    <contour>
      <point x="525" y="434" type="line"/>
      <point x="525" y="509" type="line"/>
      <point x="373" y="509" type="line"/>
      <point x="373" y="434" type="line"/>
    </contour>
    <contour>
      <point x="549" y="331"/>
      <point x="567" y="363"/>
      <point x="567" y="396" type="curve" smooth="yes"/>
      <point x="567" y="429"/>
      <point x="540" y="462"/>
      <point x="508" y="479" type="curve"/>
      <point x="493" y="448" type="line"/>
      <point x="520" y="437"/>
      <point x="533" y="416"/>
      <point x="533" y="395" type="curve" smooth="yes"/>
      <point x="533" y="374"/>
      <point x="520" y="354"/>
      <point x="493" y="342" type="curve"/>
      <point x="508" y="313" type="line"/>
    </contour>
    <contour>
      <point x="1015" y="-13"/>
      <point x="1089" y="93"/>
      <point x="1089" y="239" type="curve" smooth="yes"/>
      <point x="1089" y="390"/>
      <point x="1019" y="509"/>
      <point x="781" y="509" type="curve" smooth="yes"/>
      <point x="504" y="509" type="line"/>
      <point x="504" y="434" type="line"/>
      <point x="790" y="434" type="line" smooth="yes"/>
      <point x="984" y="434"/>
      <point x="1054" y="346"/>
      <point x="1054" y="236" type="curve" smooth="yes"/>
      <point x="1054" y="130"/>
      <point x="992" y="69"/>
      <point x="902" y="69" type="curve" smooth="yes"/>
      <point x="829" y="69"/>
      <point x="785" y="112"/>
      <point x="784" y="170" type="curve" smooth="yes"/>
      <point x="783" y="212"/>
      <point x="805" y="238"/>
      <point x="817" y="238" type="curve" smooth="yes"/>
      <point x="822" y="238"/>
      <point x="824" y="234"/>
      <point x="823" y="228" type="curve"/>
      <point x="824" y="192"/>
      <point x="845" y="166"/>
      <point x="878" y="166" type="curve" smooth="yes"/>
      <point x="913" y="166"/>
      <point x="939" y="195"/>
      <point x="938" y="231" type="curve"/>
      <point x="939" y="263"/>
      <point x="914" y="300"/>
      <point x="859" y="300" type="curve" smooth="yes"/>
      <point x="787" y="300"/>
      <point x="747" y="236"/>
      <point x="746" y="158" type="curve" smooth="yes"/>
      <point x="747" y="59"/>
      <point x="807" y="-13"/>
      <point x="903" y="-13" type="curve" smooth="yes"/>
    </contour>
  </outline>
</glyph>
<glyph name="knCE" format="1">
  <advance width="707"/>
  <outline>
    <contour>
      <point x="261" y="-14"/>
      <point x="329" y="43"/>
      <point x="352" y="126" type="curve"/>
      <point x="354" y="126" type="line"/>
      <point x="377" y="43"/>
      <point x="445" y="-14"/>
      <point x="513" y="-14" type="curve" smooth="yes"/>
      <point x="579" y="-14"/>
      <point x="640" y="38"/>
      <point x="640" y="125" type="curve" smooth="yes"/>
      <point x="640" y="195"/>
      <point x="594" y="311"/>
      <point x="510" y="327" type="curve"/>
      <point x="491" y="310" type="line"/>
      <point x="551" y="287"/>
      <point x="592" y="221"/>
      <point x="592" y="154" type="curve" smooth="yes"/>
      <point x="592" y="116"/>
      <point x="567" y="71"/>
      <point x="509" y="71" type="curve" smooth="yes"/>
      <point x="436" y="71"/>
      <point x="370" y="146"/>
      <point x="357" y="221" type="curve"/>
      <point x="348" y="221" type="line"/>
      <point x="334" y="145"/>
      <point x="269" y="71"/>
      <point x="196" y="71" type="curve" smooth="yes"/>
      <point x="143" y="71"/>
      <point x="116" y="114"/>
      <point x="116" y="156" type="curve" smooth="yes"/>
      <point x="116" y="187"/>
      <point x="141" y="223"/>
      <point x="174" y="257" type="curve" smooth="yes"/>
      <point x="214" y="298"/>
      <point x="263" y="349"/>
      <point x="263" y="399" type="curve" smooth="yes"/>
      <point x="263" y="465"/>
      <point x="215" y="519"/>
      <point x="139" y="519" type="curve" smooth="yes"/>
      <point x="64" y="519"/>
      <point x="25" y="465"/>
      <point x="25" y="413" type="curve" smooth="yes"/>
      <point x="25" y="381"/>
      <point x="33" y="352"/>
      <point x="54" y="330" type="curve"/>
      <point x="74" y="345" type="line"/>
      <point x="67" y="360"/>
      <point x="64" y="372"/>
      <point x="64" y="383" type="curve" smooth="yes"/>
      <point x="64" y="421"/>
      <point x="87" y="452"/>
      <point x="139" y="452" type="curve" smooth="yes"/>
      <point x="176" y="452"/>
      <point x="210" y="427"/>
      <point x="210" y="385" type="curve" smooth="yes"/>
      <point x="210" y="344"/>
      <point x="179" y="311"/>
      <point x="147" y="278" type="curve" smooth="yes"/>
      <point x="108" y="238"/>
      <point x="65" y="193"/>
      <point x="65" y="125" type="curve" smooth="yes"/>
      <point x="65" y="38"/>
      <point x="126" y="-14"/>
      <point x="193" y="-14" type="curve" smooth="yes"/>
    </contour>
    <contour>
      <point x="651" y="294" type="line"/>
      <point x="651" y="365" type="line"/>
      <point x="375" y="365" type="line"/>
      <point x="375" y="294" type="line"/>
    </contour>
    <contour>
      <point x="551" y="331"/>
      <point x="569" y="363"/>
      <point x="569" y="396" type="curve" smooth="yes"/>
      <point x="569" y="429"/>
      <point x="542" y="462"/>
      <point x="510" y="479" type="curve"/>
      <point x="495" y="448" type="line"/>
      <point x="522" y="437"/>
      <point x="535" y="416"/>
      <point x="535" y="395" type="curve" smooth="yes"/>
      <point x="535" y="374"/>
      <point x="522" y="354"/>
      <point x="495" y="342" type="curve"/>
      <point x="510" y="313" type="line"/>
    </contour>
    <contour>
      <point x="527" y="434" type="line" smooth="yes"/>
      <point x="608" y="434"/>
      <point x="662" y="480"/>
      <point x="662" y="552" type="curve" smooth="yes"/>
      <point x="662" y="607"/>
      <point x="631" y="648"/>
      <point x="588" y="664" type="curve"/>
      <point x="573" y="644" type="line"/>
      <point x="597" y="635"/>
      <point x="619" y="610"/>
      <point x="619" y="576" type="curve" smooth="yes"/>
      <point x="619" y="536"/>
      <point x="588" y="509"/>
      <point x="527" y="509" type="curve" smooth="yes"/>
      <point x="375" y="509" type="line"/>
      <point x="375" y="434" type="line"/>
    </contour>
    <contour>
      <point x="608" y="434"/>
      <point x="662" y="480"/>
      <point x="662" y="553" type="curve" smooth="yes"/>
      <point x="662" y="651"/>
      <point x="584" y="685"/>
      <point x="527" y="685" type="curve" smooth="yes"/>
      <point x="472" y="685"/>
      <point x="444" y="657"/>
      <point x="444" y="625" type="curve" smooth="yes"/>
      <point x="444" y="592"/>
      <point x="467" y="571"/>
      <point x="501" y="571" type="curve" smooth="yes"/>
      <point x="535" y="571"/>
      <point x="556" y="597"/>
      <point x="556" y="633" type="curve" smooth="yes"/>
      <point x="556" y="639"/>
      <point x="558" y="643"/>
      <point x="562" y="643" type="curve" smooth="yes"/>
      <point x="575" y="643"/>
      <point x="619" y="629"/>
      <point x="619" y="577" type="curve"/>
      <point x="619" y="530"/>
      <point x="579" y="509"/>
      <point x="528" y="509" type="curve"/>
      <point x="527" y="434" type="line"/>
    </contour>
  </outline>
</glyph>
<glyph name="knCHAA" format="1">
  <advance width="1225"/>
  <outline>
    <contour>
      <point x="317" y="-14"/>
      <point x="385" y="43"/>
      <point x="408" y="126" type="curve"/>
      <point x="410" y="126" type="line"/>
      <point x="433" y="43"/>
      <point x="501" y="-14"/>
      <point x="571" y="-14" type="curve" smooth="yes"/>
      <point x="682" y="-14"/>
      <point x="744" y="78"/>
      <point x="744" y="224" type="curve" smooth="yes"/>
      <point x="744" y="416"/>
      <point x="590" y="509"/>
      <point x="457" y="509" type="curve"/>
      <point x="497" y="434" type="line"/>
      <point x="626" y="434"/>
      <point x="705" y="372"/>
      <point x="705" y="237" type="curve" smooth="yes"/>
      <point x="705" y="158"/>
      <point x="663" y="71"/>
      <point x="565" y="71" type="curve" smooth="yes"/>
      <point x="492" y="71"/>
      <point x="426" y="146"/>
      <point x="413" y="221" type="curve"/>
      <point x="404" y="221" type="line"/>
      <point x="390" y="145"/>
      <point x="322" y="71"/>
      <point x="247" y="71" type="curve" smooth="yes"/>
      <point x="156" y="71"/>
      <point x="99" y="149"/>
      <point x="99" y="272" type="curve" smooth="yes"/>
      <point x="99" y="365"/>
      <point x="141" y="454"/>
      <point x="234" y="454" type="curve" smooth="yes"/>
      <point x="272" y="454"/>
      <point x="306" y="440"/>
      <point x="306" y="401" type="curve" smooth="yes"/>
      <point x="306" y="365"/>
      <point x="278" y="344"/>
      <point x="231" y="344" type="curve" smooth="yes"/>
      <point x="189" y="344"/>
      <point x="158" y="365"/>
      <point x="158" y="408" type="curve" smooth="yes"/>
      <point x="158" y="419"/>
      <point x="162" y="440"/>
      <point x="165" y="450" type="curve"/>
      <point x="176" y="475"/>
      <point x="171" y="501"/>
      <point x="156" y="497" type="curve"/>
      <point x="134" y="429" type="line"/>
      <point x="131" y="407"/>
      <point x="130" y="394"/>
      <point x="130" y="381" type="curve" smooth="yes"/>
      <point x="130" y="308"/>
      <point x="173" y="273"/>
      <point x="231" y="273" type="curve" smooth="yes"/>
      <point x="294" y="273"/>
      <point x="336" y="325"/>
      <point x="336" y="391" type="curve" smooth="yes"/>
      <point x="336" y="457"/>
      <point x="300" y="519"/>
      <point x="229" y="519" type="curve" smooth="yes"/>
      <point x="127" y="519"/>
      <point x="59" y="392"/>
      <point x="59" y="261" type="curve" smooth="yes"/>
      <point x="59" y="82"/>
      <point x="136" y="-14"/>
      <point x="247" y="-14" type="curve" smooth="yes"/>
    </contour>
    <contour>
      <point x="436" y="-220"/>
      <point x="461" y="-201"/>
      <point x="461" y="-161" type="curve" smooth="yes"/>
      <point x="461" y="-117"/>
      <point x="432" y="-104"/>
      <point x="418" y="16" type="curve"/>
      <point x="402" y="16" type="line"/>
      <point x="389" y="-104"/>
      <point x="358" y="-117"/>
      <point x="358" y="-161" type="curve" smooth="yes"/>
      <point x="358" y="-197"/>
      <point x="383" y="-220"/>
      <point x="410" y="-220" type="curve" smooth="yes"/>
    </contour>
    <contour>
      <point x="610" y="434" type="line"/>
      <point x="610" y="509" type="line"/>
      <point x="449" y="509" type="line"/>
      <point x="449" y="434" type="line"/>
    </contour>
    <contour>
      <point x="1091" y="-13"/>
      <point x="1165" y="93"/>
      <point x="1165" y="239" type="curve" smooth="yes"/>
      <point x="1165" y="390"/>
      <point x="1095" y="509"/>
      <point x="857" y="509" type="curve" smooth="yes"/>
      <point x="580" y="509" type="line"/>
      <point x="580" y="434" type="line"/>
      <point x="866" y="434" type="line" smooth="yes"/>
      <point x="1060" y="434"/>
      <point x="1130" y="346"/>
      <point x="1130" y="236" type="curve" smooth="yes"/>
      <point x="1130" y="130"/>
      <point x="1068" y="69"/>
      <point x="978" y="69" type="curve" smooth="yes"/>
      <point x="905" y="69"/>
      <point x="861" y="112"/>
      <point x="860" y="170" type="curve" smooth="yes"/>
      <point x="859" y="212"/>
      <point x="881" y="238"/>
      <point x="893" y="238" type="curve" smooth="yes"/>
      <point x="898" y="238"/>
      <point x="900" y="234"/>
      <point x="899" y="228" type="curve"/>
      <point x="900" y="192"/>
      <point x="921" y="166"/>
      <point x="954" y="166" type="curve" smooth="yes"/>
      <point x="989" y="166"/>
      <point x="1015" y="195"/>
      <point x="1014" y="231" type="curve"/>
      <point x="1015" y="263"/>
      <point x="990" y="300"/>
      <point x="935" y="300" type="curve" smooth="yes"/>
      <point x="863" y="300"/>
      <point x="823" y="236"/>
      <point x="822" y="158" type="curve" smooth="yes"/>
      <point x="823" y="59"/>
      <point x="883" y="-13"/>
      <point x="979" y="-13" type="curve" smooth="yes"/>
    </contour>
  </outline>
</glyph>
<glyph name="knHA.base" format="1">
  <advance width="724"/>
  <outline>
    <contour>
      <point x="598" y="-14"/>
      <point x="669" y="64"/>
      <point x="669" y="162" type="curve" smooth="yes"/>
      <point x="669" y="261"/>
      <point x="598" y="340"/>
      <point x="503" y="340" type="curve" smooth="yes"/>
      <point x="428" y="340"/>
      <point x="386" y="302"/>
      <point x="359" y="247" type="curve"/>
      <point x="356" y="99" type="line"/>
      <point x="382" y="25"/>
      <point x="435" y="-14"/>
      <point x="503" y="-14" type="curve" smooth="yes"/>
    </contour>
    <contour>
      <point x="289" y="-14"/>
      <point x="342" y="25"/>
      <point x="368" y="99" type="curve"/>
      <point x="365" y="247" type="line"/>
      <point x="338" y="302"/>
      <point x="296" y="340"/>
      <point x="221" y="340" type="curve" smooth="yes"/>
      <point x="126" y="340"/>
      <point x="55" y="261"/>
      <point x="55" y="162" type="curve" smooth="yes"/>
      <point x="55" y="64"/>
      <point x="126" y="-14"/>
      <point x="221" y="-14" type="curve" smooth="yes"/>
    </contour>
    <contour>
      <point x="159" y="71"/>
      <point x="105" y="113"/>
      <point x="105" y="187" type="curve" smooth="yes"/>
      <point x="105" y="259"/>
      <point x="159" y="305"/>
      <point x="221" y="305" type="curve" smooth="yes"/>
      <point x="289" y="305"/>
      <point x="341" y="259"/>
      <point x="341" y="187" type="curve" smooth="yes"/>
      <point x="341" y="113"/>
      <point x="288" y="71"/>
      <point x="221" y="71" type="curve" smooth="yes"/>
    </contour>
    <contour>
      <point x="380" y="381"/>
      <point x="345" y="448"/>
      <point x="229" y="470" type="curve"/>
      <point x="229" y="435" type="line"/>
      <point x="311" y="427"/>
      <point x="340" y="363"/>
      <point x="340" y="269" type="curve"/>
      <point x="380" y="234" type="line"/>
    </contour>
    <contour>
      <point x="435" y="71"/>
      <point x="383" y="113"/>
      <point x="383" y="187" type="curve" smooth="yes"/>
      <point x="383" y="259"/>
      <point x="435" y="305"/>
      <point x="497" y="305" type="curve" smooth="yes"/>
      <point x="565" y="305"/>
      <point x="619" y="259"/>
      <point x="619" y="187" type="curve" smooth="yes"/>
      <point x="619" y="113"/>
      <point x="564" y="71"/>
      <point x="497" y="71" type="curve" smooth="yes"/>
    </contour>
    <contour>
      <point x="533" y="434" type="line"/>
      <point x="533" y="509" type="line"/>
      <point x="55" y="509" type="line"/>
      <point x="55" y="434" type="line"/>
    </contour>
  </outline>
</glyph>
<glyph name="knJAA" format="1">
  <advance width="1145"/>
  <outline>
    <contour>
      <point x="259" y="-14"/>
      <point x="327" y="43"/>
      <point x="350" y="126" type="curve"/>
      <point x="352" y="126" type="line"/>
      <point x="375" y="43"/>
      <point x="443" y="-14"/>
      <point x="511" y="-14" type="curve" smooth="yes"/>
      <point x="577" y="-14"/>
      <point x="638" y="38"/>
      <point x="638" y="125" type="curve" smooth="yes"/>
      <point x="638" y="172"/>
      <point x="609" y="222"/>
      <point x="575" y="251" type="curve"/>
      <point x="554" y="236" type="line"/>
      <point x="578" y="212"/>
      <point x="590" y="183"/>
      <point x="590" y="154" type="curve" smooth="yes"/>
      <point x="590" y="116"/>
      <point x="565" y="71"/>
      <point x="507" y="71" type="curve" smooth="yes"/>
      <point x="434" y="71"/>
      <point x="368" y="146"/>
      <point x="355" y="221" type="curve"/>
      <point x="346" y="221" type="line"/>
      <point x="332" y="145"/>
      <point x="267" y="71"/>
      <point x="194" y="71" type="curve" smooth="yes"/>
      <point x="141" y="71"/>
      <point x="114" y="114"/>
      <point x="114" y="156" type="curve" smooth="yes"/>
      <point x="114" y="187"/>
      <point x="138" y="223"/>
      <point x="172" y="257" type="curve" smooth="yes"/>
      <point x="213" y="298"/>
      <point x="261" y="349"/>
      <point x="261" y="399" type="curve" smooth="yes"/>
      <point x="261" y="465"/>
      <point x="213" y="519"/>
      <point x="137" y="519" type="curve" smooth="yes"/>
      <point x="62" y="519"/>
      <point x="23" y="465"/>
      <point x="23" y="413" type="curve" smooth="yes"/>
      <point x="23" y="381"/>
      <point x="31" y="352"/>
      <point x="52" y="330" type="curve"/>
      <point x="72" y="345" type="line"/>
      <point x="65" y="360"/>
      <point x="62" y="372"/>
      <point x="62" y="383" type="curve" smooth="yes"/>
      <point x="62" y="421"/>
      <point x="85" y="452"/>
      <point x="137" y="452" type="curve" smooth="yes"/>
      <point x="174" y="452"/>
      <point x="208" y="427"/>
      <point x="208" y="385" type="curve" smooth="yes"/>
      <point x="208" y="344"/>
      <point x="177" y="311"/>
      <point x="145" y="278" type="curve" smooth="yes"/>
      <point x="106" y="238"/>
      <point x="63" y="193"/>
      <point x="63" y="125" type="curve" smooth="yes"/>
      <point x="63" y="38"/>
      <point x="124" y="-14"/>
      <point x="191" y="-14" type="curve" smooth="yes"/>
    </contour>
    <contour>
      <point x="527" y="287"/>
      <point x="580" y="339"/>
      <point x="580" y="414" type="curve" smooth="yes"/>
      <point x="580" y="458"/>
      <point x="558" y="503"/>
      <point x="521" y="536" type="curve"/>
      <point x="502" y="519" type="line"/>
      <point x="527" y="494"/>
      <point x="538" y="469"/>
      <point x="538" y="443" type="curve" smooth="yes"/>
      <point x="538" y="387"/>
      <point x="498" y="360"/>
      <point x="444" y="360" type="curve" smooth="yes"/>
      <point x="378" y="360"/>
      <point x="308" y="393"/>
      <point x="229" y="480" type="curve"/>
      <point x="197" y="477" type="line"/>
      <point x="284" y="356"/>
      <point x="370" y="287"/>
      <point x="462" y="287" type="curve" smooth="yes"/>
    </contour>
    <contour>
      <point x="1011" y="-13"/>
      <point x="1085" y="93"/>
      <point x="1085" y="239" type="curve" smooth="yes"/>
      <point x="1085" y="390"/>
      <point x="1015" y="509"/>
      <point x="777" y="509" type="curve" smooth="yes"/>
      <point x="500" y="509" type="line"/>
      <point x="500" y="434" type="line"/>
      <point x="786" y="434" type="line" smooth="yes"/>
      <point x="980" y="434"/>
      <point x="1050" y="346"/>
      <point x="1050" y="236" type="curve" smooth="yes"/>
      <point x="1050" y="130"/>
      <point x="988" y="69"/>
      <point x="898" y="69" type="curve" smooth="yes"/>
      <point x="825" y="69"/>
      <point x="781" y="112"/>
      <point x="780" y="170" type="curve" smooth="yes"/>
      <point x="779" y="212"/>
      <point x="801" y="238"/>
      <point x="813" y="238" type="curve" smooth="yes"/>
      <point x="818" y="238"/>
      <point x="820" y="234"/>
      <point x="819" y="228" type="curve"/>
      <point x="820" y="192"/>
      <point x="841" y="166"/>
      <point x="874" y="166" type="curve" smooth="yes"/>
      <point x="909" y="166"/>
      <point x="935" y="195"/>
      <point x="934" y="231" type="curve"/>
      <point x="935" y="263"/>
      <point x="910" y="300"/>
      <point x="855" y="300" type="curve" smooth="yes"/>
      <point x="783" y="300"/>
      <point x="743" y="236"/>
      <point x="742" y="158" type="curve" smooth="yes"/>
      <point x="743" y="59"/>
      <point x="803" y="-13"/>
      <point x="899" y="-13" type="curve" smooth="yes"/>
    </contour>
  </outline>
</glyph>
<glyph name="knJHAA" format="1">
  <advance width="1645"/>
  <outline>
    <contour>
      <point x="1511" y="-13"/>
      <point x="1585" y="93"/>
      <point x="1585" y="239" type="curve" smooth="yes"/>
      <point x="1585" y="390"/>
      <point x="1515" y="509"/>
      <point x="1277" y="509" type="curve" smooth="yes"/>
      <point x="1000" y="509" type="line"/>
      <point x="1000" y="434" type="line"/>
      <point x="1286" y="434" type="line" smooth="yes"/>
      <point x="1480" y="434"/>
      <point x="1550" y="346"/>
      <point x="1550" y="236" type="curve" smooth="yes"/>
      <point x="1550" y="130"/>
      <point x="1488" y="69"/>
      <point x="1398" y="69" type="curve" smooth="yes"/>
      <point x="1325" y="69"/>
      <point x="1281" y="112"/>
      <point x="1280" y="170" type="curve" smooth="yes"/>
      <point x="1279" y="212"/>
      <point x="1301" y="238"/>
      <point x="1313" y="238" type="curve" smooth="yes"/>
      <point x="1318" y="238"/>
      <point x="1320" y="234"/>
      <point x="1319" y="228" type="curve"/>
      <point x="1320" y="192"/>
      <point x="1341" y="166"/>
      <point x="1374" y="166" type="curve" smooth="yes"/>
      <point x="1409" y="166"/>
      <point x="1435" y="195"/>
      <point x="1434" y="231" type="curve"/>
      <point x="1435" y="263"/>
      <point x="1410" y="300"/>
      <point x="1355" y="300" type="curve" smooth="yes"/>
      <point x="1283" y="300"/>
      <point x="1243" y="236"/>
      <point x="1242" y="158" type="curve" smooth="yes"/>
      <point x="1243" y="59"/>
      <point x="1303" y="-13"/>
      <point x="1399" y="-13" type="curve" smooth="yes"/>
    </contour>
    <component base="knJHA"/>
  </outline>
</glyph>
<glyph name="knJHE" format="1">
  <advance width="1226"/>
  <outline>
    <contour>
      <point x="421" y="-14"/>
      <point x="515" y="86"/>
      <point x="515" y="226" type="curve" smooth="yes"/>
      <point x="515" y="315"/>
      <point x="469" y="398"/>
      <point x="395" y="436" type="curve" smooth="yes"/>
      <point x="363" y="453"/>
      <point x="326" y="461"/>
      <point x="285" y="461" type="curve" smooth="yes"/>
      <point x="244" y="461"/>
      <point x="207" y="453"/>
      <point x="175" y="436" type="curve" smooth="yes"/>
      <point x="101" y="398"/>
      <point x="55" y="315"/>
      <point x="55" y="226" type="curve" smooth="yes"/>
      <point x="55" y="86"/>
      <point x="149" y="-14"/>
      <point x="285" y="-14" type="curve" smooth="yes"/>
    </contour>
    <contour>
      <point x="175" y="71"/>
      <point x="100" y="144"/>
      <point x="100" y="247" type="curve" smooth="yes"/>
      <point x="100" y="348"/>
      <point x="184" y="433"/>
      <point x="285" y="433" type="curve" smooth="yes"/>
      <point x="386" y="433"/>
      <point x="470" y="349"/>
      <point x="470" y="248" type="curve" smooth="yes"/>
      <point x="470" y="145"/>
      <point x="394" y="71"/>
      <point x="285" y="71" type="curve" smooth="yes"/>
    </contour>
    <contour>
      <point x="836" y="-220"/>
      <point x="861" y="-201"/>
      <point x="861" y="-161" type="curve" smooth="yes"/>
      <point x="861" y="-117"/>
      <point x="832" y="-104"/>
      <point x="818" y="16" type="curve"/>
      <point x="802" y="16" type="line"/>
      <point x="789" y="-104"/>
      <point x="758" y="-117"/>
      <point x="758" y="-161" type="curve" smooth="yes"/>
      <point x="758" y="-197"/>
      <point x="783" y="-220"/>
      <point x="810" y="-220" type="curve" smooth="yes"/>
    </contour>
    <contour>
      <point x="218" y="434" type="line"/>
      <point x="284" y="451" type="line"/>
      <point x="348" y="434" type="line"/>
      <point x="380" y="434" type="line" smooth="yes"/>
      <point x="461" y="434"/>
      <point x="515" y="480"/>
      <point x="515" y="552" type="curve" smooth="yes"/>
      <point x="515" y="607"/>
      <point x="484" y="648"/>
      <point x="441" y="664" type="curve"/>
      <point x="426" y="644" type="line"/>
      <point x="450" y="635"/>
      <point x="472" y="610"/>
      <point x="472" y="576" type="curve" smooth="yes"/>
      <point x="472" y="536"/>
      <point x="441" y="509"/>
      <point x="380" y="509" type="curve" smooth="yes"/>
      <point x="55" y="509" type="line"/>
      <point x="55" y="434" type="line"/>
    </contour>
    <contour>
      <point x="755" y="-14"/>
      <point x="835" y="95"/>
      <point x="835" y="242" type="curve" smooth="yes"/>
      <point x="835" y="415"/>
      <point x="739" y="513"/>
      <point x="668" y="513" type="curve" smooth="yes"/>
      <point x="637" y="513"/>
      <point x="620" y="493"/>
      <point x="620" y="470" type="curve" smooth="yes"/>
      <point x="620" y="451"/>
      <point x="632" y="435"/>
      <point x="648" y="430" type="curve" smooth="yes"/>
      <point x="671" y="423"/>
      <point x="692" y="428"/>
      <point x="716" y="420" type="curve" smooth="yes"/>
      <point x="753" y="407"/>
      <point x="800" y="344"/>
      <point x="800" y="255" type="curve" smooth="yes"/>
      <point x="800" y="137"/>
      <point x="730" y="71"/>
      <point x="642" y="71" type="curve" smooth="yes"/>
      <point x="573" y="71"/>
      <point x="520" y="105"/>
      <point x="483" y="207" type="curve"/>
      <point x="463" y="188" type="line"/>
      <point x="481" y="61"/>
      <point x="556" y="-14"/>
      <point x="642" y="-14" type="curve" smooth="yes"/>
    </contour>
    <contour>
      <point x="1091" y="-14"/>
      <point x="1171" y="95"/>
      <point x="1171" y="242" type="curve" smooth="yes"/>
      <point x="1171" y="415"/>
      <point x="1075" y="513"/>
      <point x="1004" y="513" type="curve" smooth="yes"/>
      <point x="973" y="513"/>
      <point x="956" y="493"/>
      <point x="956" y="470" type="curve" smooth="yes"/>
      <point x="956" y="451"/>
      <point x="968" y="435"/>
      <point x="984" y="430" type="curve" smooth="yes"/>
      <point x="1007" y="423"/>
      <point x="1028" y="428"/>
      <point x="1052" y="420" type="curve" smooth="yes"/>
      <point x="1089" y="407"/>
      <point x="1136" y="344"/>
      <point x="1136" y="255" type="curve" smooth="yes"/>
      <point x="1136" y="137"/>
      <point x="1066" y="71"/>
      <point x="978" y="71" type="curve" smooth="yes"/>
      <point x="909" y="71"/>
      <point x="856" y="105"/>
      <point x="819" y="207" type="curve"/>
      <point x="799" y="188" type="line"/>
      <point x="817" y="61"/>
      <point x="892" y="-14"/>
      <point x="978" y="-14" type="curve" smooth="yes"/>
    </contour>
    <contour>
      <point x="1084" y="434"/>
      <point x="1138" y="480"/>
      <point x="1138" y="553" type="curve" smooth="yes"/>
      <point x="1138" y="651"/>
      <point x="1060" y="685"/>
      <point x="1003" y="685" type="curve" smooth="yes"/>
      <point x="948" y="685"/>
      <point x="920" y="657"/>
      <point x="920" y="625" type="curve" smooth="yes"/>
      <point x="920" y="592"/>
      <point x="943" y="571"/>
      <point x="977" y="571" type="curve" smooth="yes"/>
      <point x="1011" y="571"/>
      <point x="1032" y="597"/>
      <point x="1032" y="633" type="curve" smooth="yes"/>
      <point x="1032" y="639"/>
      <point x="1034" y="643"/>
      <point x="1038" y="643" type="curve" smooth="yes"/>
      <point x="1051" y="643"/>
      <point x="1095" y="629"/>
      <point x="1095" y="577" type="curve"/>
      <point x="1095" y="530"/>
      <point x="1055" y="513"/>
      <point x="1004" y="513" type="curve"/>
      <point x="1003" y="434" type="line"/>
    </contour>
  </outline>
</glyph>
<glyph name="knKAA" format="1">
  <advance width="910"/>
  <outline>
    <contour>
      <point x="776" y="-13"/>
      <point x="850" y="93"/>
      <point x="850" y="239" type="curve" smooth="yes"/>
      <point x="850" y="390"/>
      <point x="780" y="509"/>
      <point x="542" y="509" type="curve" smooth="yes"/>
      <point x="265" y="509" type="line"/>
      <point x="265" y="434" type="line"/>
      <point x="551" y="434" type="line" smooth="yes"/>
      <point x="745" y="434"/>
      <point x="815" y="346"/>
      <point x="815" y="236" type="curve" smooth="yes"/>
      <point x="815" y="130"/>
      <point x="753" y="69"/>
      <point x="663" y="69" type="curve" smooth="yes"/>
      <point x="590" y="69"/>
      <point x="546" y="112"/>
      <point x="545" y="170" type="curve" smooth="yes"/>
      <point x="544" y="212"/>
      <point x="566" y="238"/>
      <point x="578" y="238" type="curve" smooth="yes"/>
      <point x="583" y="238"/>
      <point x="585" y="234"/>
      <point x="584" y="228" type="curve"/>
      <point x="585" y="192"/>
      <point x="606" y="166"/>
      <point x="639" y="166" type="curve" smooth="yes"/>
      <point x="674" y="166"/>
      <point x="700" y="195"/>
      <point x="699" y="231" type="curve"/>
      <point x="700" y="263"/>
      <point x="675" y="300"/>
      <point x="620" y="300" type="curve" smooth="yes"/>
      <point x="548" y="300"/>
      <point x="508" y="236"/>
      <point x="507" y="158" type="curve" smooth="yes"/>
      <point x="508" y="59"/>
      <point x="568" y="-13"/>
      <point x="664" y="-13" type="curve" smooth="yes"/>
    </contour>
    <contour>
      <point x="333" y="-14"/>
      <point x="406" y="64"/>
      <point x="406" y="159" type="curve" smooth="yes"/>
      <point x="406" y="249"/>
      <point x="333" y="327"/>
      <point x="239" y="327" type="curve" smooth="yes"/>
      <point x="142" y="327"/>
      <point x="69" y="249"/>
      <point x="69" y="159" type="curve" smooth="yes"/>
      <point x="69" y="64"/>
      <point x="142" y="-14"/>
      <point x="239" y="-14" type="curve" smooth="yes"/>
    </contour>
    <contour>
      <point x="167" y="71"/>
      <point x="117" y="117"/>
      <point x="117" y="186" type="curve" smooth="yes"/>
      <point x="117" y="252"/>
      <point x="176" y="297"/>
      <point x="239" y="297" type="curve" smooth="yes"/>
      <point x="301" y="297"/>
      <point x="359" y="252"/>
      <point x="359" y="186" type="curve" smooth="yes"/>
      <point x="359" y="117"/>
      <point x="310" y="71"/>
      <point x="239" y="71" type="curve" smooth="yes"/>
    </contour>
    <contour>
      <point x="183" y="294" type="line"/>
      <point x="239" y="306" type="line"/>
      <point x="298" y="294" type="line"/>
      <point x="450" y="294" type="line"/>
      <point x="450" y="360" type="line"/>
      <point x="25" y="360" type="line"/>
      <point x="25" y="294" type="line"/>
    </contour>
    <contour>
      <point x="249" y="331"/>
      <point x="266" y="364"/>
      <point x="266" y="401" type="curve" smooth="yes"/>
      <point x="266" y="438"/>
      <point x="249" y="471"/>
      <point x="209" y="488" type="curve"/>
      <point x="196" y="465" type="line"/>
      <point x="220" y="453"/>
      <point x="232" y="430"/>
      <point x="232" y="401" type="curve" smooth="yes"/>
      <point x="232" y="372"/>
      <point x="216" y="350"/>
      <point x="192" y="337" type="curve"/>
      <point x="209" y="314" type="line"/>
    </contour>
    <contour>
      <point x="315" y="434" type="line"/>
      <point x="315" y="509" type="line"/>
      <point x="25" y="509" type="line"/>
      <point x="25" y="434" type="line"/>
    </contour>
    <contour>
      <point x="270" y="0" type="move" name="blwm.kssa"/>
    </contour>
  </outline>
</glyph>
<glyph name="knKAU" format="1">
  <advance width="944"/>
  <outline>
    <component base="knKA.base"/>
    <component base="knmAU" xOffset="515"/>
    <contour>
      <point x="270" y="0" type="move" name="blwm.kssa"/>
    </contour>
  </outline>
</glyph>
<glyph name="knKHAA" format="1">
  <advance width="1210"/>
  <outline>
    <contour>
      <point x="349" y="-14"/>
      <point x="437" y="169"/>
      <point x="437" y="279" type="curve" smooth="yes"/>
      <point x="437" y="445"/>
      <point x="358" y="520"/>
      <point x="259" y="520" type="curve" smooth="yes"/>
      <point x="198" y="520"/>
      <point x="147" y="469"/>
      <point x="147" y="407" type="curve" smooth="yes"/>
      <point x="147" y="350"/>
      <point x="181" y="300"/>
      <point x="237" y="300" type="curve" smooth="yes"/>
      <point x="281" y="300"/>
      <point x="305" y="330"/>
      <point x="305" y="356" type="curve" smooth="yes"/>
      <point x="305" y="385"/>
      <point x="284" y="408"/>
      <point x="257" y="408" type="curve" smooth="yes"/>
      <point x="229" y="408"/>
      <point x="212" y="387"/>
      <point x="212" y="357" type="curve" smooth="yes"/>
      <point x="212" y="352"/>
      <point x="211" y="351"/>
      <point x="208" y="351" type="curve" smooth="yes"/>
      <point x="195" y="351"/>
      <point x="186" y="369"/>
      <point x="186" y="390" type="curve" smooth="yes"/>
      <point x="186" y="426"/>
      <point x="218" y="455"/>
      <point x="266" y="455" type="curve" smooth="yes"/>
      <point x="337" y="455"/>
      <point x="398" y="397"/>
      <point x="398" y="287" type="curve" smooth="yes"/>
      <point x="398" y="159"/>
      <point x="327" y="71"/>
      <point x="200" y="71" type="curve" smooth="yes"/>
      <point x="126" y="71"/>
      <point x="95" y="104"/>
      <point x="95" y="136" type="curve" smooth="yes"/>
      <point x="95" y="167"/>
      <point x="118" y="196"/>
      <point x="170" y="196" type="curve" smooth="yes"/>
      <point x="312" y="196"/>
      <point x="381" y="-14"/>
      <point x="529" y="-14" type="curve" smooth="yes"/>
      <point x="642" y="-14"/>
      <point x="722" y="95"/>
      <point x="724" y="242" type="curve"/>
      <point x="722" y="415"/>
      <point x="626" y="513"/>
      <point x="557" y="513" type="curve" smooth="yes"/>
      <point x="524" y="513"/>
      <point x="507" y="493"/>
      <point x="509" y="470" type="curve"/>
      <point x="507" y="451"/>
      <point x="519" y="435"/>
      <point x="537" y="430" type="curve"/>
      <point x="558" y="423"/>
      <point x="579" y="428"/>
      <point x="605" y="420" type="curve"/>
      <point x="640" y="407"/>
      <point x="687" y="344"/>
      <point x="689" y="255" type="curve"/>
      <point x="687" y="137"/>
      <point x="617" y="71"/>
      <point x="531" y="71" type="curve" smooth="yes"/>
      <point x="382" y="71"/>
      <point x="313" y="231"/>
      <point x="169" y="231" type="curve" smooth="yes"/>
      <point x="93" y="231"/>
      <point x="41" y="187"/>
      <point x="41" y="116" type="curve" smooth="yes"/>
      <point x="41" y="46"/>
      <point x="101" y="-14"/>
      <point x="195" y="-14" type="curve" smooth="yes"/>
    </contour>
    <contour>
      <point x="1076" y="-13"/>
      <point x="1150" y="93"/>
      <point x="1150" y="239" type="curve" smooth="yes"/>
      <point x="1150" y="390"/>
      <point x="1080" y="509"/>
      <point x="842" y="509" type="curve" smooth="yes"/>
      <point x="565" y="509" type="line"/>
      <point x="565" y="434" type="line"/>
      <point x="851" y="434" type="line"/>
      <point x="1045" y="434"/>
      <point x="1115" y="346"/>
      <point x="1115" y="236" type="curve" smooth="yes"/>
      <point x="1115" y="130"/>
      <point x="1053" y="69"/>
      <point x="963" y="69" type="curve" smooth="yes"/>
      <point x="890" y="69"/>
      <point x="846" y="112"/>
      <point x="845" y="170" type="curve" smooth="yes"/>
      <point x="844" y="212"/>
      <point x="866" y="238"/>
      <point x="878" y="238" type="curve" smooth="yes"/>
      <point x="883" y="238"/>
      <point x="885" y="234"/>
      <point x="884" y="228" type="curve"/>
      <point x="885" y="192"/>
      <point x="906" y="166"/>
      <point x="939" y="166" type="curve" smooth="yes"/>
      <point x="974" y="166"/>
      <point x="1000" y="195"/>
      <point x="999" y="231" type="curve"/>
      <point x="1000" y="263"/>
      <point x="975" y="300"/>
      <point x="920" y="300" type="curve" smooth="yes"/>
      <point x="848" y="300"/>
      <point x="808" y="236"/>
      <point x="807" y="158" type="curve" smooth="yes"/>
      <point x="808" y="59"/>
      <point x="868" y="-13"/>
      <point x="964" y="-13" type="curve" smooth="yes"/>
    </contour>
  </outline>
</glyph>
<glyph name="knKHE" format="1">
  <advance width="778"/>
  <outline>
    <contour>
      <point x="636" y="438"/>
      <point x="690" y="480"/>
      <point x="690" y="553" type="curve" smooth="yes"/>
      <point x="690" y="651"/>
      <point x="612" y="685"/>
      <point x="555" y="685" type="curve" smooth="yes"/>
      <point x="500" y="685"/>
      <point x="472" y="657"/>
      <point x="472" y="625" type="curve" smooth="yes"/>
      <point x="472" y="592"/>
      <point x="495" y="571"/>
      <point x="529" y="571" type="curve" smooth="yes"/>
      <point x="563" y="571"/>
      <point x="584" y="597"/>
      <point x="584" y="633" type="curve" smooth="yes"/>
      <point x="584" y="639"/>
      <point x="586" y="643"/>
      <point x="590" y="643" type="curve" smooth="yes"/>
      <point x="603" y="643"/>
      <point x="647" y="629"/>
      <point x="647" y="577" type="curve"/>
      <point x="647" y="530"/>
      <point x="607" y="513"/>
      <point x="556" y="513" type="curve"/>
      <point x="555" y="438" type="line"/>
    </contour>
    <contour>
      <point x="348" y="-14"/>
      <point x="436" y="169"/>
      <point x="436" y="279" type="curve" smooth="yes"/>
      <point x="436" y="445"/>
      <point x="357" y="520"/>
      <point x="258" y="520" type="curve" smooth="yes"/>
      <point x="197" y="520"/>
      <point x="146" y="469"/>
      <point x="146" y="407" type="curve" smooth="yes"/>
      <point x="146" y="350"/>
      <point x="180" y="300"/>
      <point x="236" y="300" type="curve" smooth="yes"/>
      <point x="280" y="300"/>
      <point x="304" y="330"/>
      <point x="304" y="356" type="curve" smooth="yes"/>
      <point x="304" y="385"/>
      <point x="283" y="408"/>
      <point x="256" y="408" type="curve" smooth="yes"/>
      <point x="228" y="408"/>
      <point x="211" y="387"/>
      <point x="211" y="357" type="curve" smooth="yes"/>
      <point x="211" y="352"/>
      <point x="210" y="351"/>
      <point x="207" y="351" type="curve" smooth="yes"/>
      <point x="194" y="351"/>
      <point x="185" y="369"/>
      <point x="185" y="390" type="curve" smooth="yes"/>
      <point x="185" y="426"/>
      <point x="217" y="455"/>
      <point x="265" y="455" type="curve" smooth="yes"/>
      <point x="336" y="455"/>
      <point x="397" y="397"/>
      <point x="397" y="287" type="curve" smooth="yes"/>
      <point x="397" y="159"/>
      <point x="326" y="71"/>
      <point x="199" y="71" type="curve" smooth="yes"/>
      <point x="125" y="71"/>
      <point x="94" y="104"/>
      <point x="94" y="136" type="curve" smooth="yes"/>
      <point x="94" y="167"/>
      <point x="117" y="196"/>
      <point x="169" y="196" type="curve" smooth="yes"/>
      <point x="311" y="196"/>
      <point x="380" y="-14"/>
      <point x="528" y="-14" type="curve" smooth="yes"/>
      <point x="641" y="-14"/>
      <point x="721" y="95"/>
      <point x="723" y="242" type="curve"/>
      <point x="721" y="415"/>
      <point x="625" y="513"/>
      <point x="556" y="513" type="curve" smooth="yes"/>
      <point x="523" y="513"/>
      <point x="506" y="493"/>
      <point x="508" y="470" type="curve"/>
      <point x="506" y="451"/>
      <point x="518" y="435"/>
      <point x="536" y="430" type="curve"/>
      <point x="557" y="423"/>
      <point x="578" y="428"/>
      <point x="604" y="420" type="curve"/>
      <point x="639" y="407"/>
      <point x="686" y="344"/>
      <point x="688" y="255" type="curve"/>
      <point x="686" y="137"/>
      <point x="616" y="71"/>
      <point x="530" y="71" type="curve" smooth="yes"/>
      <point x="381" y="71"/>
      <point x="312" y="231"/>
      <point x="168" y="231" type="curve" smooth="yes"/>
      <point x="92" y="231"/>
      <point x="40" y="187"/>
      <point x="40" y="116" type="curve" smooth="yes"/>
      <point x="40" y="46"/>
      <point x="100" y="-14"/>
      <point x="194" y="-14" type="curve" smooth="yes"/>
    </contour>
  </outline>
</glyph>
<glyph name="knKI" format="1">
  <advance width="480"/>
  <outline>
    <contour>
      <point x="333" y="-14"/>
      <point x="406" y="64"/>
      <point x="406" y="159" type="curve" smooth="yes"/>
      <point x="406" y="249"/>
      <point x="333" y="327"/>
      <point x="239" y="327" type="curve" smooth="yes"/>
      <point x="142" y="327"/>
      <point x="69" y="249"/>
      <point x="69" y="159" type="curve" smooth="yes"/>
      <point x="69" y="64"/>
      <point x="142" y="-14"/>
      <point x="239" y="-14" type="curve" smooth="yes"/>
    </contour>
    <contour>
      <point x="167" y="71"/>
      <point x="117" y="117"/>
      <point x="117" y="186" type="curve" smooth="yes"/>
      <point x="117" y="252"/>
      <point x="176" y="297"/>
      <point x="239" y="297" type="curve" smooth="yes"/>
      <point x="301" y="297"/>
      <point x="359" y="252"/>
      <point x="359" y="186" type="curve" smooth="yes"/>
      <point x="359" y="117"/>
      <point x="310" y="71"/>
      <point x="239" y="71" type="curve" smooth="yes"/>
    </contour>
    <contour>
      <point x="183" y="294" type="line"/>
      <point x="239" y="306" type="line"/>
      <point x="298" y="294" type="line"/>
      <point x="450" y="294" type="line"/>
      <point x="450" y="360" type="line"/>
      <point x="25" y="360" type="line"/>
      <point x="25" y="294" type="line"/>
    </contour>
    <contour>
      <point x="321" y="328"/>
      <point x="393" y="400"/>
      <point x="393" y="494" type="curve" smooth="yes"/>
      <point x="393" y="581"/>
      <point x="332" y="674"/>
      <point x="248" y="674" type="curve" smooth="yes"/>
      <point x="189" y="674"/>
      <point x="153" y="629"/>
      <point x="153" y="560" type="curve" smooth="yes"/>
      <point x="153" y="499"/>
      <point x="193" y="450"/>
      <point x="249" y="451" type="curve" smooth="yes"/>
      <point x="307" y="452"/>
      <point x="337" y="505"/>
      <point x="337" y="563" type="curve" smooth="yes"/>
      <point x="337" y="594"/>
      <point x="330" y="612"/>
      <point x="319" y="627" type="curve"/>
      <point x="291" y="631" type="line"/>
      <point x="305" y="617"/>
      <point x="309" y="601"/>
      <point x="309" y="578" type="curve" smooth="yes"/>
      <point x="309" y="548"/>
      <point x="290" y="511"/>
      <point x="243" y="511" type="curve" smooth="yes"/>
      <point x="207" y="511"/>
      <point x="186" y="530"/>
      <point x="186" y="560" type="curve" smooth="yes"/>
      <point x="186" y="583"/>
      <point x="206" y="608"/>
      <point x="250" y="608" type="curve" smooth="yes"/>
      <point x="316" y="608"/>
      <point x="361" y="549"/>
      <point x="361" y="498" type="curve" smooth="yes"/>
      <point x="361" y="431"/>
      <point x="291" y="373"/>
      <point x="170" y="359" type="curve"/>
      <point x="199" y="308" type="line"/>
    </contour>
    <contour>
      <point x="270" y="0" type="move" name="blwm.kssa"/>
    </contour>
  </outline>
</glyph>
<glyph name="knLLA.base" format="1">
  <advance width="630"/>
  <outline>
    <contour>
      <point x="398" y="-14"/>
      <point x="442" y="34"/>
      <point x="442" y="97" type="curve" smooth="yes"/>
      <point x="442" y="301"/>
      <point x="80" y="191"/>
      <point x="80" y="363" type="curve" smooth="yes"/>
      <point x="80" y="422"/>
      <point x="146" y="454"/>
      <point x="214" y="454" type="curve" smooth="yes"/>
      <point x="265" y="454"/>
      <point x="280" y="430"/>
      <point x="280" y="413" type="curve" smooth="yes"/>
      <point x="280" y="390"/>
      <point x="260" y="373"/>
      <point x="221" y="373" type="curve" smooth="yes"/>
      <point x="178" y="373"/>
      <point x="158" y="394"/>
      <point x="158" y="427" type="curve" smooth="yes"/>
      <point x="158" y="450"/>
      <point x="163" y="471"/>
      <point x="170" y="477" type="curve"/>
      <point x="146" y="482" type="line"/>
      <point x="134" y="460"/>
      <point x="128" y="436"/>
      <point x="128" y="410" type="curve" smooth="yes"/>
      <point x="128" y="350"/>
      <point x="164" y="310"/>
      <point x="220" y="310" type="curve" smooth="yes"/>
      <point x="286" y="310"/>
      <point x="310" y="363"/>
      <point x="310" y="414" type="curve" smooth="yes"/>
      <point x="310" y="467"/>
      <point x="277" y="519"/>
      <point x="207" y="519" type="curve" smooth="yes"/>
      <point x="110" y="519"/>
      <point x="45" y="460"/>
      <point x="45" y="363" type="curve" smooth="yes"/>
      <point x="45" y="107"/>
      <point x="406" y="207"/>
      <point x="406" y="109" type="curve" smooth="yes"/>
      <point x="406" y="83"/>
      <point x="373" y="71"/>
      <point x="336" y="71" type="curve" smooth="yes"/>
      <point x="293" y="71"/>
      <point x="261" y="85"/>
      <point x="261" y="112" type="curve" smooth="yes"/>
      <point x="261" y="203"/>
      <point x="582" y="186"/>
      <point x="582" y="354" type="curve" smooth="yes"/>
      <point x="582" y="434"/>
      <point x="509" y="471"/>
      <point x="448" y="471" type="curve"/>
      <point x="439" y="434" type="line"/>
      <point x="509" y="434"/>
      <point x="547" y="400"/>
      <point x="547" y="355" type="curve" smooth="yes"/>
      <point x="547" y="211"/>
      <point x="215" y="246"/>
      <point x="215" y="86" type="curve" smooth="yes"/>
      <point x="215" y="28"/>
      <point x="260" y="-14"/>
      <point x="331" y="-14" type="curve" smooth="yes"/>
    </contour>
    <contour>
      <point x="485" y="434" type="line"/>
      <point x="485" y="509" type="line"/>
      <point x="404" y="509" type="line"/>
      <point x="404" y="434" type="line"/>
    </contour>
  </outline>
</glyph>
<glyph name="knLLAU" format="1">
  <advance width="1079"/>
  <outline>
    <contour>
      <point x="398" y="-14"/>
      <point x="442" y="34"/>
      <point x="442" y="97" type="curve" smooth="yes"/>
      <point x="442" y="301"/>
      <point x="80" y="191"/>
      <point x="80" y="363" type="curve" smooth="yes"/>
      <point x="80" y="422"/>
      <point x="146" y="454"/>
      <point x="214" y="454" type="curve" smooth="yes"/>
      <point x="265" y="454"/>
      <point x="280" y="430"/>
      <point x="280" y="413" type="curve" smooth="yes"/>
      <point x="280" y="390"/>
      <point x="260" y="373"/>
      <point x="221" y="373" type="curve" smooth="yes"/>
      <point x="178" y="373"/>
      <point x="158" y="394"/>
      <point x="158" y="427" type="curve" smooth="yes"/>
      <point x="158" y="450"/>
      <point x="163" y="471"/>
      <point x="170" y="477" type="curve"/>
      <point x="146" y="482" type="line"/>
      <point x="134" y="460"/>
      <point x="128" y="436"/>
      <point x="128" y="410" type="curve" smooth="yes"/>
      <point x="128" y="350"/>
      <point x="164" y="310"/>
      <point x="220" y="310" type="curve" smooth="yes"/>
      <point x="286" y="310"/>
      <point x="310" y="363"/>
      <point x="310" y="414" type="curve" smooth="yes"/>
      <point x="310" y="467"/>
      <point x="277" y="519"/>
      <point x="207" y="519" type="curve" smooth="yes"/>
      <point x="110" y="519"/>
      <point x="45" y="460"/>
      <point x="45" y="363" type="curve" smooth="yes"/>
      <point x="45" y="107"/>
      <point x="406" y="207"/>
      <point x="406" y="109" type="curve" smooth="yes"/>
      <point x="406" y="83"/>
      <point x="373" y="71"/>
      <point x="336" y="71" type="curve" smooth="yes"/>
      <point x="293" y="71"/>
      <point x="261" y="85"/>
      <point x="261" y="112" type="curve" smooth="yes"/>
      <point x="261" y="203"/>
      <point x="582" y="186"/>
      <point x="582" y="354" type="curve" smooth="yes"/>
      <point x="582" y="434"/>
      <point x="509" y="471"/>
      <point x="448" y="471" type="curve"/>
      <point x="439" y="434" type="line"/>
      <point x="509" y="434"/>
      <point x="547" y="400"/>
      <point x="547" y="355" type="curve" smooth="yes"/>
      <point x="547" y="211"/>
      <point x="215" y="246"/>
      <point x="215" y="86" type="curve" smooth="yes"/>
      <point x="215" y="28"/>
      <point x="260" y="-14"/>
      <point x="331" y="-14" type="curve" smooth="yes"/>
    </contour>
    <contour>
      <point x="485" y="434" type="line"/>
      <point x="485" y="509" type="line"/>
      <point x="404" y="509" type="line"/>
      <point x="404" y="434" type="line"/>
    </contour>
    <component base="knmAU" xOffset="650"/>
  </outline>
</glyph>
<glyph name="knMO" format="1">
  <advance width="1426"/>
  <outline>
    <contour>
      <point x="251" y="-14"/>
      <point x="321" y="43"/>
      <point x="344" y="126" type="curve"/>
      <point x="346" y="126" type="line"/>
      <point x="369" y="43"/>
      <point x="438" y="-14"/>
      <point x="503" y="-14" type="curve" smooth="yes"/>
      <point x="598" y="-14"/>
      <point x="636" y="84"/>
      <point x="636" y="171" type="curve" smooth="yes"/>
      <point x="636" y="360"/>
      <point x="493" y="474"/>
      <point x="357" y="474" type="curve"/>
      <point x="347" y="434" type="line"/>
      <point x="499" y="424"/>
      <point x="598" y="311"/>
      <point x="598" y="193" type="curve" smooth="yes"/>
      <point x="598" y="121"/>
      <point x="559" y="71"/>
      <point x="493" y="71" type="curve" smooth="yes"/>
      <point x="428" y="71"/>
      <point x="363" y="145"/>
      <point x="349" y="221" type="curve"/>
      <point x="340" y="221" type="line"/>
      <point x="326" y="145"/>
      <point x="261" y="71"/>
      <point x="186" y="71" type="curve" smooth="yes"/>
      <point x="135" y="71"/>
      <point x="100" y="104"/>
      <point x="100" y="156" type="curve" smooth="yes"/>
      <point x="100" y="201"/>
      <point x="129" y="227"/>
      <point x="166" y="227" type="curve" smooth="yes"/>
      <point x="196" y="227"/>
      <point x="221" y="217"/>
      <point x="232" y="193" type="curve"/>
      <point x="248" y="208" type="line"/>
      <point x="235" y="250"/>
      <point x="211" y="287"/>
      <point x="163" y="287" type="curve" smooth="yes"/>
      <point x="103" y="287"/>
      <point x="60" y="232"/>
      <point x="60" y="143" type="curve" smooth="yes"/>
      <point x="60" y="56"/>
      <point x="109" y="-14"/>
      <point x="183" y="-14" type="curve" smooth="yes"/>
    </contour>
    <contour>
      <point x="495" y="434" type="line" smooth="yes"/>
      <point x="576" y="434"/>
      <point x="630" y="480"/>
      <point x="630" y="552" type="curve" smooth="yes"/>
      <point x="630" y="607"/>
      <point x="599" y="648"/>
      <point x="556" y="664" type="curve"/>
      <point x="541" y="644" type="line"/>
      <point x="565" y="635"/>
      <point x="587" y="610"/>
      <point x="587" y="576" type="curve" smooth="yes"/>
      <point x="587" y="536"/>
      <point x="556" y="509"/>
      <point x="495" y="509" type="curve" smooth="yes"/>
      <point x="60" y="509" type="line"/>
      <point x="60" y="434" type="line"/>
    </contour>
    <contour>
      <point x="576" y="434"/>
      <point x="630" y="480"/>
      <point x="630" y="553" type="curve" smooth="yes"/>
      <point x="630" y="651"/>
      <point x="552" y="685"/>
      <point x="495" y="685" type="curve" smooth="yes"/>
      <point x="440" y="685"/>
      <point x="412" y="657"/>
      <point x="412" y="625" type="curve" smooth="yes"/>
      <point x="412" y="592"/>
      <point x="435" y="571"/>
      <point x="469" y="571" type="curve" smooth="yes"/>
      <point x="503" y="571"/>
      <point x="524" y="597"/>
      <point x="524" y="633" type="curve" smooth="yes"/>
      <point x="524" y="639"/>
      <point x="526" y="643"/>
      <point x="530" y="643" type="curve" smooth="yes"/>
      <point x="543" y="643"/>
      <point x="587" y="629"/>
      <point x="587" y="577" type="curve"/>
      <point x="587" y="530"/>
      <point x="547" y="509"/>
      <point x="496" y="509" type="curve"/>
      <point x="495" y="434" type="line"/>
    </contour>
    <component base="knmUU" xOffset="711"/>
  </outline>
</glyph>
<glyph name="knNE" format="1">
  <advance width="649"/>
  <outline>
    <contour>
      <point x="204" y="-75"/>
      <point x="234" y="-66"/>
      <point x="234" y="-43" type="curve" smooth="yes"/>
      <point x="234" y="-20"/>
      <point x="218" y="1"/>
      <point x="193" y="10" type="curve" smooth="yes"/>
      <point x="142" y="27"/>
      <point x="110" y="73"/>
      <point x="110" y="112" type="curve" smooth="yes"/>
      <point x="110" y="171"/>
      <point x="143" y="212"/>
      <point x="199" y="212" type="curve" smooth="yes"/>
      <point x="357" y="212"/>
      <point x="287" y="-14"/>
      <point x="441" y="-14" type="curve" smooth="yes"/>
      <point x="521" y="-14"/>
      <point x="584" y="72"/>
      <point x="584" y="176" type="curve" smooth="yes"/>
      <point x="584" y="295"/>
      <point x="508" y="399"/>
      <point x="373" y="437" type="curve"/>
      <point x="247" y="438" type="line"/>
      <point x="289" y="432" type="line"/>
      <point x="435" y="398"/>
      <point x="536" y="311"/>
      <point x="536" y="188" type="curve" smooth="yes"/>
      <point x="536" y="116"/>
      <point x="493" y="71"/>
      <point x="441" y="71" type="curve" smooth="yes"/>
      <point x="307" y="71"/>
      <point x="347" y="294"/>
      <point x="200" y="294" type="curve" smooth="yes"/>
      <point x="134" y="294"/>
      <point x="75" y="224"/>
      <point x="75" y="140" type="curve" smooth="yes"/>
      <point x="75" y="54"/>
      <point x="115" y="-23"/>
      <point x="181" y="-61" type="curve" smooth="yes"/>
    </contour>
    <contour>
      <point x="430" y="434" type="line" smooth="yes"/>
      <point x="512" y="434"/>
      <point x="565" y="480"/>
      <point x="565" y="552" type="curve" smooth="yes"/>
      <point x="565" y="607"/>
      <point x="534" y="648"/>
      <point x="491" y="664" type="curve"/>
      <point x="476" y="644" type="line"/>
      <point x="500" y="635"/>
      <point x="522" y="610"/>
      <point x="522" y="576" type="curve" smooth="yes"/>
      <point x="522" y="537"/>
      <point x="491" y="509"/>
      <point x="430" y="509" type="curve" smooth="yes"/>
      <point x="75" y="509" type="line"/>
      <point x="75" y="434" type="line"/>
    </contour>
    <contour>
      <point x="511" y="434"/>
      <point x="565" y="480"/>
      <point x="565" y="553" type="curve" smooth="yes"/>
      <point x="565" y="651"/>
      <point x="487" y="685"/>
      <point x="430" y="685" type="curve" smooth="yes"/>
      <point x="375" y="685"/>
      <point x="347" y="657"/>
      <point x="347" y="625" type="curve" smooth="yes"/>
      <point x="347" y="592"/>
      <point x="370" y="571"/>
      <point x="404" y="571" type="curve" smooth="yes"/>
      <point x="438" y="571"/>
      <point x="459" y="597"/>
      <point x="459" y="633" type="curve" smooth="yes"/>
      <point x="459" y="639"/>
      <point x="461" y="643"/>
      <point x="465" y="643" type="curve" smooth="yes"/>
      <point x="478" y="643"/>
      <point x="522" y="629"/>
      <point x="522" y="577" type="curve"/>
      <point x="522" y="530"/>
      <point x="482" y="509"/>
      <point x="431" y="509" type="curve"/>
      <point x="430" y="434" type="line"/>
    </contour>
  </outline>
</glyph>
<glyph name="knNGA.base" format="1">
  <advance width="678"/>
  <outline>
    <contour>
      <point x="259" y="-14"/>
      <point x="327" y="43"/>
      <point x="350" y="126" type="curve"/>
      <point x="352" y="126" type="line"/>
      <point x="375" y="43"/>
      <point x="443" y="-14"/>
      <point x="511" y="-14" type="curve" smooth="yes"/>
      <point x="577" y="-14"/>
      <point x="638" y="38"/>
      <point x="638" y="125" type="curve" smooth="yes"/>
      <point x="638" y="172"/>
      <point x="609" y="222"/>
      <point x="575" y="251" type="curve"/>
      <point x="554" y="236" type="line"/>
      <point x="578" y="212"/>
      <point x="590" y="183"/>
      <point x="590" y="154" type="curve" smooth="yes"/>
      <point x="590" y="116"/>
      <point x="565" y="71"/>
      <point x="507" y="71" type="curve" smooth="yes"/>
      <point x="434" y="71"/>
      <point x="368" y="146"/>
      <point x="355" y="221" type="curve"/>
      <point x="346" y="221" type="line"/>
      <point x="332" y="145"/>
      <point x="267" y="71"/>
      <point x="194" y="71" type="curve" smooth="yes"/>
      <point x="141" y="71"/>
      <point x="114" y="114"/>
      <point x="114" y="156" type="curve" smooth="yes"/>
      <point x="114" y="187"/>
      <point x="138" y="223"/>
      <point x="172" y="257" type="curve" smooth="yes"/>
      <point x="213" y="298"/>
      <point x="261" y="349"/>
      <point x="261" y="399" type="curve" smooth="yes"/>
      <point x="261" y="465"/>
      <point x="213" y="519"/>
      <point x="137" y="519" type="curve" smooth="yes"/>
      <point x="62" y="519"/>
      <point x="23" y="465"/>
      <point x="23" y="413" type="curve" smooth="yes"/>
      <point x="23" y="381"/>
      <point x="31" y="352"/>
      <point x="52" y="330" type="curve"/>
      <point x="72" y="345" type="line"/>
      <point x="65" y="360"/>
      <point x="62" y="372"/>
      <point x="62" y="383" type="curve" smooth="yes"/>
      <point x="62" y="421"/>
      <point x="85" y="452"/>
      <point x="137" y="452" type="curve" smooth="yes"/>
      <point x="174" y="452"/>
      <point x="208" y="427"/>
      <point x="208" y="385" type="curve" smooth="yes"/>
      <point x="208" y="344"/>
      <point x="177" y="311"/>
      <point x="145" y="278" type="curve" smooth="yes"/>
      <point x="106" y="238"/>
      <point x="63" y="193"/>
      <point x="63" y="125" type="curve" smooth="yes"/>
      <point x="63" y="38"/>
      <point x="124" y="-14"/>
      <point x="191" y="-14" type="curve" smooth="yes"/>
    </contour>
    <contour>
      <point x="412" y="278"/>
      <point x="435" y="302"/>
      <point x="435" y="331" type="curve" smooth="yes"/>
      <point x="435" y="361"/>
      <point x="412" y="385"/>
      <point x="382" y="385" type="curve" smooth="yes"/>
      <point x="352" y="385"/>
      <point x="329" y="361"/>
      <point x="329" y="331" type="curve" smooth="yes"/>
      <point x="329" y="302"/>
      <point x="352" y="278"/>
      <point x="382" y="278" type="curve" smooth="yes"/>
    </contour>
    <contour>
      <point x="307" y="423"/>
      <point x="378" y="467"/>
      <point x="465" y="467" type="curve" smooth="yes"/>
      <point x="529" y="467"/>
      <point x="570" y="430"/>
      <point x="570" y="376" type="curve" smooth="yes"/>
      <point x="570" y="355"/>
      <point x="562" y="337"/>
      <point x="550" y="324" type="curve"/>
      <point x="569" y="308" type="line"/>
      <point x="592" y="332"/>
      <point x="613" y="360"/>
      <point x="613" y="402" type="curve" smooth="yes"/>
      <point x="613" y="472"/>
      <point x="564" y="536"/>
      <point x="480" y="536" type="curve" smooth="yes"/>
      <point x="371" y="536"/>
      <point x="271" y="438"/>
      <point x="219" y="346" type="curve"/>
      <point x="219" y="307" type="line"/>
    </contour>
  </outline>
</glyph>
<glyph name="knNGAA" format="1">
  <advance width="1132"/>
  <outline>
    <contour>
      <point x="259" y="-14"/>
      <point x="327" y="43"/>
      <point x="350" y="126" type="curve"/>
      <point x="352" y="126" type="line"/>
      <point x="375" y="43"/>
      <point x="443" y="-14"/>
      <point x="511" y="-14" type="curve" smooth="yes"/>
      <point x="577" y="-14"/>
      <point x="638" y="38"/>
      <point x="638" y="125" type="curve" smooth="yes"/>
      <point x="638" y="172"/>
      <point x="609" y="222"/>
      <point x="575" y="251" type="curve"/>
      <point x="554" y="236" type="line"/>
      <point x="578" y="212"/>
      <point x="590" y="183"/>
      <point x="590" y="154" type="curve" smooth="yes"/>
      <point x="590" y="116"/>
      <point x="565" y="71"/>
      <point x="507" y="71" type="curve" smooth="yes"/>
      <point x="434" y="71"/>
      <point x="368" y="146"/>
      <point x="355" y="221" type="curve"/>
      <point x="346" y="221" type="line"/>
      <point x="332" y="145"/>
      <point x="267" y="71"/>
      <point x="194" y="71" type="curve" smooth="yes"/>
      <point x="141" y="71"/>
      <point x="114" y="114"/>
      <point x="114" y="156" type="curve" smooth="yes"/>
      <point x="114" y="187"/>
      <point x="138" y="223"/>
      <point x="172" y="257" type="curve" smooth="yes"/>
      <point x="213" y="298"/>
      <point x="261" y="349"/>
      <point x="261" y="399" type="curve" smooth="yes"/>
      <point x="261" y="465"/>
      <point x="213" y="519"/>
      <point x="137" y="519" type="curve" smooth="yes"/>
      <point x="62" y="519"/>
      <point x="23" y="465"/>
      <point x="23" y="413" type="curve" smooth="yes"/>
      <point x="23" y="381"/>
      <point x="31" y="352"/>
      <point x="52" y="330" type="curve"/>
      <point x="72" y="345" type="line"/>
      <point x="65" y="360"/>
      <point x="62" y="372"/>
      <point x="62" y="383" type="curve" smooth="yes"/>
      <point x="62" y="421"/>
      <point x="85" y="452"/>
      <point x="137" y="452" type="curve" smooth="yes"/>
      <point x="174" y="452"/>
      <point x="208" y="427"/>
      <point x="208" y="385" type="curve" smooth="yes"/>
      <point x="208" y="344"/>
      <point x="177" y="311"/>
      <point x="145" y="278" type="curve" smooth="yes"/>
      <point x="106" y="238"/>
      <point x="63" y="193"/>
      <point x="63" y="125" type="curve" smooth="yes"/>
      <point x="63" y="38"/>
      <point x="124" y="-14"/>
      <point x="191" y="-14" type="curve" smooth="yes"/>
    </contour>
    <contour>
      <point x="412" y="278"/>
      <point x="435" y="302"/>
      <point x="435" y="331" type="curve" smooth="yes"/>
      <point x="435" y="361"/>
      <point x="412" y="385"/>
      <point x="382" y="385" type="curve" smooth="yes"/>
      <point x="352" y="385"/>
      <point x="329" y="361"/>
      <point x="329" y="331" type="curve" smooth="yes"/>
      <point x="329" y="302"/>
      <point x="352" y="278"/>
      <point x="382" y="278" type="curve" smooth="yes"/>
    </contour>
    <contour>
      <point x="307" y="423"/>
      <point x="378" y="467"/>
      <point x="465" y="467" type="curve" smooth="yes"/>
      <point x="529" y="467"/>
      <point x="570" y="430"/>
      <point x="570" y="376" type="curve" smooth="yes"/>
      <point x="570" y="355"/>
      <point x="562" y="337"/>
      <point x="550" y="324" type="curve"/>
      <point x="569" y="308" type="line"/>
      <point x="592" y="332"/>
      <point x="613" y="360"/>
      <point x="613" y="402" type="curve" smooth="yes"/>
      <point x="613" y="472"/>
      <point x="564" y="536"/>
      <point x="480" y="536" type="curve" smooth="yes"/>
      <point x="371" y="536"/>
      <point x="271" y="438"/>
      <point x="219" y="346" type="curve"/>
      <point x="219" y="307" type="line"/>
    </contour>
    <contour>
      <point x="998" y="-13"/>
      <point x="1072" y="93"/>
      <point x="1072" y="239" type="curve" smooth="yes"/>
      <point x="1072" y="390"/>
      <point x="1002" y="509"/>
      <point x="764" y="509" type="curve" smooth="yes"/>
      <point x="487" y="509" type="line"/>
      <point x="487" y="434" type="line"/>
      <point x="773" y="434" type="line" smooth="yes"/>
      <point x="967" y="434"/>
      <point x="1037" y="346"/>
      <point x="1037" y="236" type="curve" smooth="yes"/>
      <point x="1037" y="130"/>
      <point x="975" y="69"/>
      <point x="885" y="69" type="curve" smooth="yes"/>
      <point x="812" y="69"/>
      <point x="768" y="112"/>
      <point x="767" y="170" type="curve" smooth="yes"/>
      <point x="766" y="212"/>
      <point x="788" y="238"/>
      <point x="800" y="238" type="curve" smooth="yes"/>
      <point x="805" y="238"/>
      <point x="807" y="234"/>
      <point x="806" y="228" type="curve"/>
      <point x="807" y="192"/>
      <point x="828" y="166"/>
      <point x="861" y="166" type="curve" smooth="yes"/>
      <point x="896" y="166"/>
      <point x="922" y="195"/>
      <point x="921" y="231" type="curve"/>
      <point x="922" y="263"/>
      <point x="897" y="300"/>
      <point x="842" y="300" type="curve" smooth="yes"/>
      <point x="770" y="300"/>
      <point x="730" y="236"/>
      <point x="729" y="158" type="curve" smooth="yes"/>
      <point x="730" y="59"/>
      <point x="790" y="-13"/>
      <point x="886" y="-13" type="curve" smooth="yes"/>
    </contour>
  </outline>
</glyph>
<glyph name="knNGE" format="1">
  <advance width="1053"/>
  <outline>
    <contour>
      <point x="261" y="-14"/>
      <point x="329" y="43"/>
      <point x="352" y="126" type="curve"/>
      <point x="354" y="126" type="line"/>
      <point x="377" y="43"/>
      <point x="445" y="-14"/>
      <point x="513" y="-14" type="curve" smooth="yes"/>
      <point x="579" y="-14"/>
      <point x="640" y="38"/>
      <point x="640" y="125" type="curve" smooth="yes"/>
      <point x="640" y="172"/>
      <point x="611" y="222"/>
      <point x="577" y="251" type="curve"/>
      <point x="556" y="236" type="line"/>
      <point x="580" y="212"/>
      <point x="592" y="183"/>
      <point x="592" y="154" type="curve" smooth="yes"/>
      <point x="592" y="116"/>
      <point x="567" y="71"/>
      <point x="509" y="71" type="curve" smooth="yes"/>
      <point x="436" y="71"/>
      <point x="370" y="146"/>
      <point x="357" y="221" type="curve"/>
      <point x="348" y="221" type="line"/>
      <point x="334" y="145"/>
      <point x="269" y="71"/>
      <point x="196" y="71" type="curve" smooth="yes"/>
      <point x="143" y="71"/>
      <point x="116" y="114"/>
      <point x="116" y="156" type="curve" smooth="yes"/>
      <point x="116" y="187"/>
      <point x="140" y="223"/>
      <point x="174" y="257" type="curve" smooth="yes"/>
      <point x="215" y="298"/>
      <point x="263" y="349"/>
      <point x="263" y="399" type="curve" smooth="yes"/>
      <point x="263" y="465"/>
      <point x="215" y="519"/>
      <point x="139" y="519" type="curve" smooth="yes"/>
      <point x="64" y="519"/>
      <point x="25" y="465"/>
      <point x="25" y="413" type="curve" smooth="yes"/>
      <point x="25" y="381"/>
      <point x="33" y="352"/>
      <point x="54" y="330" type="curve"/>
      <point x="74" y="345" type="line"/>
      <point x="67" y="360"/>
      <point x="64" y="372"/>
      <point x="64" y="383" type="curve" smooth="yes"/>
      <point x="64" y="421"/>
      <point x="87" y="452"/>
      <point x="139" y="452" type="curve" smooth="yes"/>
      <point x="176" y="452"/>
      <point x="210" y="427"/>
      <point x="210" y="385" type="curve" smooth="yes"/>
      <point x="210" y="344"/>
      <point x="179" y="311"/>
      <point x="147" y="278" type="curve" smooth="yes"/>
      <point x="108" y="238"/>
      <point x="65" y="193"/>
      <point x="65" y="125" type="curve" smooth="yes"/>
      <point x="65" y="38"/>
      <point x="126" y="-14"/>
      <point x="193" y="-14" type="curve" smooth="yes"/>
    </contour>
    <contour>
      <point x="414" y="278"/>
      <point x="437" y="302"/>
      <point x="437" y="331" type="curve" smooth="yes"/>
      <point x="437" y="361"/>
      <point x="414" y="385"/>
      <point x="384" y="385" type="curve" smooth="yes"/>
      <point x="354" y="385"/>
      <point x="331" y="361"/>
      <point x="331" y="331" type="curve" smooth="yes"/>
      <point x="331" y="302"/>
      <point x="354" y="278"/>
      <point x="384" y="278" type="curve" smooth="yes"/>
    </contour>
    <contour>
      <point x="309" y="423"/>
      <point x="380" y="467"/>
      <point x="467" y="467" type="curve" smooth="yes"/>
      <point x="531" y="467"/>
      <point x="572" y="430"/>
      <point x="572" y="376" type="curve" smooth="yes"/>
      <point x="572" y="355"/>
      <point x="564" y="337"/>
      <point x="552" y="324" type="curve"/>
      <point x="571" y="308" type="line"/>
      <point x="594" y="332"/>
      <point x="615" y="360"/>
      <point x="615" y="402" type="curve" smooth="yes"/>
      <point x="615" y="472"/>
      <point x="566" y="536"/>
      <point x="482" y="536" type="curve" smooth="yes"/>
      <point x="373" y="536"/>
      <point x="273" y="438"/>
      <point x="221" y="346" type="curve"/>
      <point x="221" y="307" type="line"/>
    </contour>
    <contour>
      <point x="832" y="434"/>
      <point x="886" y="480"/>
      <point x="886" y="553" type="curve" smooth="yes"/>
      <point x="886" y="651"/>
      <point x="808" y="685"/>
      <point x="751" y="685" type="curve" smooth="yes"/>
      <point x="696" y="685"/>
      <point x="668" y="657"/>
      <point x="668" y="625" type="curve" smooth="yes"/>
      <point x="668" y="592"/>
      <point x="691" y="571"/>
      <point x="725" y="571" type="curve" smooth="yes"/>
      <point x="759" y="571"/>
      <point x="780" y="597"/>
      <point x="780" y="633" type="curve" smooth="yes"/>
      <point x="780" y="639"/>
      <point x="782" y="643"/>
      <point x="786" y="643" type="curve" smooth="yes"/>
      <point x="799" y="643"/>
      <point x="843" y="629"/>
      <point x="843" y="577" type="curve"/>
      <point x="843" y="530"/>
      <point x="803" y="509"/>
      <point x="752" y="509" type="curve"/>
      <point x="751" y="434" type="line"/>
    </contour>
  </outline>
</glyph>
<glyph name="knNNAA" format="1">
  <advance width="1205"/>
  <outline>
    <contour>
      <point x="1071" y="-13"/>
      <point x="1145" y="93"/>
      <point x="1145" y="239" type="curve" smooth="yes"/>
      <point x="1145" y="390"/>
      <point x="1075" y="509"/>
      <point x="837" y="509" type="curve" smooth="yes"/>
      <point x="560" y="509" type="line"/>
      <point x="560" y="434" type="line"/>
      <point x="846" y="434" type="line" smooth="yes"/>
      <point x="1040" y="434"/>
      <point x="1110" y="346"/>
      <point x="1110" y="236" type="curve" smooth="yes"/>
      <point x="1110" y="130"/>
      <point x="1048" y="69"/>
      <point x="958" y="69" type="curve" smooth="yes"/>
      <point x="885" y="69"/>
      <point x="841" y="112"/>
      <point x="840" y="170" type="curve" smooth="yes"/>
      <point x="839" y="212"/>
      <point x="861" y="238"/>
      <point x="873" y="238" type="curve" smooth="yes"/>
      <point x="878" y="238"/>
      <point x="880" y="234"/>
      <point x="879" y="228" type="curve"/>
      <point x="880" y="192"/>
      <point x="901" y="166"/>
      <point x="934" y="166" type="curve" smooth="yes"/>
      <point x="969" y="166"/>
      <point x="995" y="195"/>
      <point x="994" y="231" type="curve"/>
      <point x="995" y="263"/>
      <point x="970" y="300"/>
      <point x="915" y="300" type="curve" smooth="yes"/>
      <point x="843" y="300"/>
      <point x="803" y="236"/>
      <point x="802" y="158" type="curve" smooth="yes"/>
      <point x="803" y="59"/>
      <point x="863" y="-13"/>
      <point x="959" y="-13" type="curve" smooth="yes"/>
    </contour>
    <component base="knNNA"/>
  </outline>
</glyph>
<glyph name="knNYU" format="1">
  <advance width="1294"/>
  <outline>
    <contour>
      <point x="616" y="-97"/>
      <point x="627" y="-85"/>
      <point x="627" y="-61" type="curve" smooth="yes"/>
      <point x="627" y="-12"/>
      <point x="611" y="45"/>
      <point x="580" y="94" type="curve"/>
      <point x="611" y="143"/>
      <point x="630" y="209"/>
      <point x="630" y="294" type="curve" smooth="yes"/>
      <point x="630" y="306"/>
      <point x="629" y="317"/>
      <point x="628" y="328" type="curve"/>
      <point x="643" y="390"/>
      <point x="693" y="444"/>
      <point x="761" y="444" type="curve" smooth="yes"/>
      <point x="835" y="444"/>
      <point x="856" y="402"/>
      <point x="856" y="357" type="curve" smooth="yes"/>
      <point x="856" y="303"/>
      <point x="843" y="241"/>
      <point x="843" y="177" type="curve" smooth="yes"/>
      <point x="843" y="80"/>
      <point x="910" y="-14"/>
      <point x="1036" y="-14" type="curve" smooth="yes"/>
      <point x="1159" y="-14"/>
      <point x="1239" y="95"/>
      <point x="1239" y="242" type="curve" smooth="yes"/>
      <point x="1239" y="415"/>
      <point x="1143" y="513"/>
      <point x="1072" y="513" type="curve" smooth="yes"/>
      <point x="1041" y="513"/>
      <point x="1024" y="493"/>
      <point x="1024" y="470" type="curve" smooth="yes"/>
      <point x="1024" y="451"/>
      <point x="1036" y="435"/>
      <point x="1052" y="430" type="curve" smooth="yes"/>
      <point x="1075" y="423"/>
      <point x="1096" y="428"/>
      <point x="1120" y="420" type="curve" smooth="yes"/>
      <point x="1157" y="407"/>
      <point x="1204" y="344"/>
      <point x="1204" y="255" type="curve" smooth="yes"/>
      <point x="1204" y="137"/>
      <point x="1134" y="71"/>
      <point x="1026" y="71" type="curve" smooth="yes"/>
      <point x="941" y="71"/>
      <point x="890" y="105"/>
      <point x="890" y="178" type="curve" smooth="yes"/>
      <point x="890" y="251"/>
      <point x="905" y="299"/>
      <point x="905" y="362" type="curve" smooth="yes"/>
      <point x="905" y="456"/>
      <point x="849" y="519"/>
      <point x="775" y="519" type="curve" smooth="yes"/>
      <point x="700" y="519"/>
      <point x="636" y="460"/>
      <point x="619" y="383" type="curve"/>
      <point x="595" y="468"/>
      <point x="538" y="519"/>
      <point x="469" y="519" type="curve" smooth="yes"/>
      <point x="398" y="519"/>
      <point x="330" y="461"/>
      <point x="307" y="377" type="curve"/>
      <point x="305" y="377" type="line"/>
      <point x="282" y="461"/>
      <point x="214" y="519"/>
      <point x="145" y="519" type="curve" smooth="yes"/>
      <point x="55" y="519"/>
      <point x="10" y="456"/>
      <point x="10" y="387" type="curve" smooth="yes"/>
      <point x="10" y="352"/>
      <point x="19" y="323"/>
      <point x="40" y="296" type="curve"/>
      <point x="71" y="317" type="line"/>
      <point x="64" y="325"/>
      <point x="58" y="340"/>
      <point x="58" y="367" type="curve" smooth="yes"/>
      <point x="58" y="392"/>
      <point x="74" y="444"/>
      <point x="148" y="444" type="curve" smooth="yes"/>
      <point x="232" y="444"/>
      <point x="288" y="358"/>
      <point x="302" y="283" type="curve"/>
      <point x="310" y="283" type="line"/>
      <point x="324" y="358"/>
      <point x="380" y="444"/>
      <point x="464" y="444" type="curve" smooth="yes"/>
      <point x="537" y="444"/>
      <point x="592" y="392"/>
      <point x="592" y="295" type="curve" smooth="yes"/>
      <point x="592" y="225"/>
      <point x="575" y="174"/>
      <point x="546" y="139" type="curve"/>
      <point x="500" y="188"/>
      <point x="435" y="223"/>
      <point x="353" y="223" type="curve" smooth="yes"/>
      <point x="256" y="223"/>
      <point x="196" y="180"/>
      <point x="196" y="117" type="curve" smooth="yes"/>
      <point x="196" y="40"/>
      <point x="271" y="-14"/>
      <point x="382" y="-14" type="curve" smooth="yes"/>
      <point x="443" y="-14"/>
      <point x="503" y="8"/>
      <point x="549" y="55" type="curve"/>
      <point x="569" y="16"/>
      <point x="579" y="-28"/>
      <point x="579" y="-70" type="curve" smooth="yes"/>
      <point x="579" y="-85"/>
      <point x="590" y="-97"/>
      <point x="603" y="-97" type="curve" smooth="yes"/>
    </contour>
    <contour>
      <point x="280" y="71"/>
      <point x="249" y="96"/>
      <point x="249" y="127" type="curve" smooth="yes"/>
      <point x="249" y="153"/>
      <point x="280" y="184"/>
      <point x="352" y="184" type="curve" smooth="yes"/>
      <point x="421" y="184"/>
      <point x="475" y="153"/>
      <point x="514" y="109" type="curve"/>
      <point x="476" y="82"/>
      <point x="428" y="71"/>
      <point x="375" y="71" type="curve" smooth="yes"/>
    </contour>
  </outline>
</glyph>
